<svg width="174" height="174" viewBox="0 0 174 174" fill="none" xmlns="http://www.w3.org/2000/svg">
<circle cx="87.3892" cy="87.3667" r="65.3657" fill="#2E2E2E"/>
<g clip-path="url(#clip0_322_29)">
<path fill-rule="evenodd" clip-rule="evenodd" d="M96.3172 77.6486C96.3172 77.4333 96.2317 77.2269 96.0795 77.0746C95.9273 76.9224 95.7209 76.8369 95.5056 76.8369H85.7657C85.5504 76.8369 85.3439 76.9224 85.1917 77.0746C85.0395 77.2269 84.954 77.4333 84.954 77.6486C84.954 77.8638 85.0395 78.0703 85.1917 78.2225C85.3439 78.3747 85.5504 78.4602 85.7657 78.4602H93.5462L77.0744 94.9305C76.9989 95.0059 76.9391 95.0955 76.8982 95.1941C76.8574 95.2927 76.8364 95.3984 76.8364 95.5051C76.8364 95.6118 76.8574 95.7175 76.8982 95.8161C76.9391 95.9147 76.9989 96.0043 77.0744 96.0798C77.1499 96.1552 77.2394 96.2151 77.338 96.2559C77.4366 96.2968 77.5423 96.3178 77.6491 96.3178C77.7558 96.3178 77.8615 96.2968 77.9601 96.2559C78.0587 96.2151 78.1482 96.1552 78.2237 96.0798L94.6939 79.6079V87.3885C94.6939 87.6038 94.7794 87.8102 94.9317 87.9624C95.0839 88.1147 95.2903 88.2002 95.5056 88.2002C95.7209 88.2002 95.9273 88.1147 96.0795 87.9624C96.2317 87.8102 96.3172 87.6038 96.3172 87.3885V77.6486Z" fill="#FAD02C"/>
<path fill-rule="evenodd" clip-rule="evenodd" d="M76.8374 77.6486C76.8374 77.4333 76.9229 77.2269 77.0751 77.0746C77.2273 76.9224 77.4338 76.8369 77.6491 76.8369H87.389C87.6043 76.8369 87.8107 76.9224 87.9629 77.0746C88.1151 77.2269 88.2007 77.4333 88.2007 77.6486C88.2007 77.8638 88.1151 78.0703 87.9629 78.2225C87.8107 78.3747 87.6043 78.4602 87.389 78.4602H79.6084L96.0803 94.9305C96.2327 95.0829 96.3183 95.2896 96.3183 95.5051C96.3183 95.7207 96.2327 95.9274 96.0803 96.0798C95.9278 96.2322 95.7211 96.3178 95.5056 96.3178C95.2901 96.3178 95.0834 96.2322 94.9309 96.0798L78.4607 79.6079V87.3885C78.4607 87.6038 78.3752 87.8102 78.223 87.9624C78.0708 88.1147 77.8643 88.2002 77.6491 88.2002C77.4338 88.2002 77.2273 88.1147 77.0751 87.9624C76.9229 87.8102 76.8374 87.6038 76.8374 87.3885V77.6486Z" fill="#FDFDFD"/>
</g>
<path d="M55.929 52.0416L55.9923 51.9777C56.1949 51.773 56.2024 51.5778 56.0147 51.392C55.9465 51.3245 55.8613 51.2656 55.7593 51.2152L51.5108 49.2898L49.295 51.5287L51.2511 55.6679C51.294 55.761 51.3453 55.8371 51.405 55.8962C51.5159 56.0059 51.635 56.0647 51.7623 56.0725C51.8811 56.0719 51.9743 56.0375 52.0418 55.9693L52.1051 55.9053L52.2331 56.0319L50.8276 57.452L50.6997 57.3254L50.763 57.2614C50.8727 57.1506 50.9143 56.9806 50.8876 56.7517C50.8609 56.5057 50.7917 56.26 50.6801 56.0145L45.7756 45.361L56.3392 50.143C56.5689 50.2521 56.8154 50.3357 57.0787 50.3937C57.3505 50.4433 57.5708 50.3827 57.7396 50.2121L57.803 50.1482L57.9309 50.2748L56.0569 52.1682L55.929 52.0416ZM48.9866 50.9702L50.9366 49L47.2877 47.3388L48.9866 50.9702Z" fill="#FDFDFD"/>
<path d="M66.642 43.7185C66.6896 43.8019 66.7535 43.8898 66.8338 43.9821C66.9082 44.064 66.99 44.1347 67.0793 44.1943C67.179 44.248 67.2728 44.2912 67.3606 44.324C67.4588 44.3508 67.5496 44.3404 67.633 44.2929L67.7222 44.4492L65.7055 45.6001L65.6162 45.4438C65.6892 45.4021 65.7391 45.3322 65.7659 45.234C65.7928 45.1358 65.8033 45.0331 65.7974 44.9259C65.8019 44.8128 65.7878 44.7034 65.7551 44.5977C65.7165 44.4816 65.6734 44.3818 65.6258 44.2984L63.9664 41.3906C63.7523 41.0154 63.5128 40.7168 63.248 40.4949C62.9832 40.273 62.7087 40.1188 62.4244 40.0323C62.1402 39.9458 61.8596 39.9263 61.5827 39.9738C61.3104 40.0049 61.0595 40.0859 60.8302 40.2167C60.6009 40.3476 60.3984 40.5253 60.2226 40.75C60.0573 40.9687 59.9307 41.2067 59.8427 41.4642C59.7592 41.7053 59.7196 41.9627 59.7239 42.2366C59.7327 42.4941 59.7996 42.7323 59.9245 42.9512L61.9051 46.4218C61.9526 46.5052 62.0166 46.593 62.0969 46.6853C62.1713 46.7672 62.2531 46.838 62.3424 46.8976C62.4421 46.9512 62.5358 46.9944 62.6236 47.0272C62.7218 47.0541 62.8126 47.0437 62.896 46.9961L62.9852 47.1525L60.9529 48.3123L60.8637 48.1559C60.9366 48.1143 60.9865 48.0444 61.0134 47.9462C61.0402 47.8479 61.0507 47.7452 61.0448 47.6381C61.0493 47.525 61.0353 47.4156 61.0026 47.3099C60.9639 47.1937 60.9208 47.094 60.8733 47.0106L58.4109 42.6958C58.3098 42.5186 58.1885 42.3667 58.0472 42.2401C57.8999 42.1031 57.6983 42.1008 57.4422 42.2331L57.3619 42.0924L58.6397 40.7L59.1304 41.5598C59.1558 41.4348 59.199 41.2927 59.2602 41.1334C59.3153 40.9638 59.3973 40.7927 59.506 40.6201C59.6193 40.4311 59.7652 40.2511 59.9439 40.08C60.1271 39.8926 60.3646 39.7156 60.6564 39.5491C61.1463 39.2695 61.6108 39.115 62.0499 39.0855C62.489 39.0559 62.8953 39.1142 63.2688 39.2603C63.6363 39.3959 63.9592 39.5986 64.2374 39.8681C64.5201 40.1213 64.7476 40.399 64.9201 40.7013L66.642 43.7185Z" fill="#FDFDFD"/>
<path d="M76.4995 41.6454L76.2598 40.7592L76.1964 40.8696C75.9851 41.2375 75.7103 41.5542 75.3719 41.8198C75.0451 42.0822 74.6152 42.2855 74.0824 42.4296C73.6769 42.5393 73.3169 42.5869 73.0022 42.5726C72.6876 42.5582 72.4157 42.495 72.1864 42.383C71.9541 42.2593 71.7618 42.1 71.6097 41.905C71.469 41.7068 71.3658 41.4861 71.3001 41.2428C71.1935 40.849 71.2038 40.4733 71.3309 40.1157C71.4695 39.755 71.7102 39.404 72.053 39.0627C72.3958 38.7213 72.8317 38.3797 73.3607 38.0377C73.8983 37.681 74.5184 37.3081 75.2213 36.9192C75.0759 36.4737 74.8845 36.1338 74.6472 35.8997C74.4098 35.6655 74.1607 35.5029 73.8999 35.4119C73.636 35.3092 73.3761 35.2676 73.1203 35.2871C72.8614 35.2949 72.645 35.3224 72.4713 35.3694C72.1701 35.4508 71.9162 35.5692 71.7096 35.7245C71.5145 35.8767 71.3505 36.0516 71.2175 36.2492C71.0929 36.4321 70.9962 36.6261 70.9274 36.8311C70.8554 37.0246 70.805 37.2061 70.7762 37.3755L70.6198 37.4178L70.2768 36.1493C70.3663 36.1127 70.4454 36.0602 70.5139 35.992C70.5825 35.9237 70.6684 35.8507 70.7717 35.7731C70.9267 35.6566 71.1375 35.4939 71.4042 35.285C71.6678 35.0646 72.0718 34.8807 72.6163 34.7335C73.2534 34.5611 73.7908 34.5028 74.2285 34.5585C74.6662 34.6141 75.0254 34.747 75.3059 34.957C75.5981 35.1639 75.8259 35.4317 75.9894 35.7604C76.1497 36.0776 76.2785 36.4157 76.3756 36.7748L77.3061 40.2152C77.3687 40.4469 77.4804 40.6529 77.641 40.8332C77.7985 41.0019 77.9642 41.0628 78.1379 41.0158L78.1849 41.1895L76.4995 41.6454ZM76.053 39.9947L75.381 37.5099L75.2167 37.5917C74.9575 37.7364 74.6408 37.9215 74.2667 38.147C73.9042 38.3693 73.5684 38.6217 73.2594 38.9042C72.9505 39.1866 72.703 39.4898 72.5171 39.8135C72.3312 40.1373 72.2837 40.4671 72.3745 40.8031C72.4748 41.1738 72.7084 41.44 73.0753 41.6018C73.4423 41.7636 73.8691 41.7787 74.3556 41.6471C74.7378 41.5438 75.0518 41.3718 75.2976 41.1313C75.5402 40.8792 75.7471 40.5871 75.9183 40.2549L76.053 39.9947Z" fill="#FDFDFD"/>
<path d="M83.2527 40.6046L83.2431 40.4249C83.339 40.4197 83.4209 40.3793 83.489 40.3035C83.557 40.2278 83.6124 40.1407 83.6552 40.0423C83.71 39.9432 83.7465 39.8391 83.7646 39.73C83.7822 39.6088 83.7884 39.5004 83.7832 39.4045L83.2899 30.2017C83.279 29.998 83.2388 29.8079 83.1692 29.6314C83.0997 29.4548 82.9148 29.3686 82.6146 29.3727L82.6049 29.1929L84.3904 28.5384L84.9695 39.3409C84.9747 39.4368 84.9924 39.544 85.0228 39.6625C85.0526 39.7691 85.094 39.869 85.1471 39.9623C85.2121 40.0549 85.2765 40.1356 85.3403 40.2043C85.416 40.2723 85.5019 40.3038 85.5977 40.2986L85.6074 40.4784L83.2527 40.6046Z" fill="#FDFDFD"/>
<path d="M93.6791 43.551C93.4344 44.0226 93.1675 44.3266 92.8786 44.4631C92.6016 44.6015 92.3268 44.6491 92.0542 44.6059C91.8764 44.5778 91.7201 44.5287 91.5854 44.4588C91.4625 44.3907 91.3534 44.3127 91.258 44.2247C91.1725 44.1504 91.1049 44.079 91.055 44.0103C91.0051 43.9417 90.9771 43.8887 90.9708 43.8512L91.7855 42.504C91.811 42.7268 91.845 42.8962 91.8873 43.0122C91.9278 43.1401 91.9939 43.2599 92.0856 43.3716C92.1772 43.4833 92.3001 43.5514 92.4542 43.5758C92.7386 43.6208 92.9967 43.4491 93.2283 43.0605L94.4456 41.0117L92.6079 34.0871C92.5711 33.9355 92.4957 33.7595 92.3816 33.5592C92.2813 33.3489 92.1126 33.225 91.8755 33.1875L91.9037 33.0097L94.2504 33.3813L94.2223 33.5591C94.1749 33.5515 94.1091 33.5836 94.0248 33.6554C93.9406 33.7271 93.8881 33.8281 93.8675 33.9585C93.8506 34.0652 93.8593 34.1637 93.8935 34.2542L95.2837 39.6317L98.1951 34.8259C98.2438 34.7485 98.2737 34.6743 98.285 34.6032C98.3038 34.4847 98.2773 34.3833 98.2056 34.299C98.1457 34.2167 98.0743 34.1689 97.9914 34.1558L98.0195 33.978L99.744 34.251L99.7159 34.4288C99.5262 34.3988 99.3472 34.4555 99.1787 34.5989C99.0239 34.7323 98.8891 34.8932 98.7742 35.0816L93.6791 43.551Z" fill="#FDFDFD"/>
<path d="M108.591 43.3592C108.471 43.6473 108.289 43.8833 108.043 44.0672C107.798 44.2511 107.508 44.3843 107.175 44.4667C106.858 44.5427 106.51 44.567 106.131 44.5396C105.758 44.5012 105.377 44.4014 104.989 44.2402C104.512 44.0421 104.15 43.82 103.901 43.5737C103.657 43.3164 103.458 43.0775 103.303 42.857C103.195 42.7085 103.092 42.5812 102.993 42.4752C102.899 42.358 102.78 42.2695 102.636 42.2096L103.161 40.9464L103.327 41.0155C103.296 41.1844 103.319 41.3953 103.396 41.6482C103.488 41.8946 103.613 42.1414 103.77 42.3886C103.938 42.6405 104.132 42.8771 104.352 43.0984C104.588 43.3133 104.844 43.4783 105.121 43.5935C105.321 43.6764 105.535 43.7394 105.764 43.7826C105.993 43.8258 106.211 43.832 106.419 43.8014C106.638 43.7754 106.832 43.7133 107.003 43.6153C107.189 43.5109 107.326 43.3534 107.414 43.1428C107.501 42.9323 107.516 42.7241 107.459 42.5183C107.401 42.3125 107.302 42.1151 107.159 41.926C107.022 41.7258 106.849 41.5307 106.642 41.3407C106.435 41.1508 106.226 40.9663 106.015 40.7874C105.763 40.579 105.511 40.3573 105.258 40.1221C105.016 39.8915 104.809 39.6559 104.636 39.4151C104.467 39.1632 104.355 38.9021 104.299 38.6317C104.247 38.3502 104.283 38.0599 104.407 37.7607C104.513 37.5058 104.659 37.2805 104.844 37.0846C105.041 36.8934 105.279 36.7584 105.558 36.6797C105.854 36.5945 106.194 36.5734 106.579 36.6165C106.968 36.6485 107.407 36.7658 107.894 36.9684C108.326 37.148 108.643 37.325 108.843 37.4993C109.059 37.6671 109.229 37.822 109.352 37.9641C109.429 38.0609 109.51 38.1467 109.596 38.2214C109.686 38.285 109.792 38.3421 109.914 38.3928L109.431 39.5563L109.298 39.501C109.25 39.0525 109.061 38.6488 108.729 38.29C108.397 37.9312 108.015 37.662 107.583 37.4824C107.306 37.3672 107.052 37.307 106.82 37.3017C106.593 37.2852 106.39 37.3048 106.211 37.3603C106.048 37.4094 105.905 37.4866 105.783 37.5919C105.673 37.7019 105.59 37.8233 105.534 37.9563C105.456 38.1447 105.439 38.3261 105.484 38.5005C105.539 38.6795 105.635 38.8558 105.771 39.0292C105.918 39.2072 106.084 39.3866 106.268 39.5674C106.464 39.7527 106.673 39.9372 106.896 40.1207C107.165 40.3494 107.429 40.5891 107.689 40.84C107.953 41.0798 108.172 41.3334 108.347 41.6009C108.522 41.8685 108.638 42.1508 108.697 42.448C108.76 42.7341 108.724 43.0378 108.591 43.3592Z" fill="#FDFDFD"/>
<path d="M114.873 45.2376C114.664 45.6051 114.51 45.9899 114.409 46.392C114.316 46.7844 114.286 47.1712 114.319 47.5524C114.363 47.9407 114.482 48.3172 114.676 48.682C114.877 49.0371 115.176 49.3597 115.574 49.6499C115.787 49.8056 116.031 49.9393 116.306 50.051C116.598 50.1601 116.888 50.2309 117.176 50.2632C117.465 50.2956 117.747 50.286 118.022 50.2345C118.314 50.1804 118.567 50.068 118.781 49.8972L118.912 49.9928L118.116 51.083C118.058 51.0405 117.976 51.0103 117.87 50.9925C117.774 50.9817 117.656 50.97 117.516 50.9574C117.238 50.9321 116.884 50.867 116.456 50.762C116.034 50.6473 115.552 50.3918 115.009 49.9955C114.573 49.677 114.203 49.3097 113.897 48.8935C113.602 48.4844 113.399 48.0393 113.29 47.5583C113.181 47.0772 113.182 46.566 113.296 46.0245C113.418 45.4901 113.685 44.9419 114.096 44.3798C114.357 44.0213 114.681 43.7003 115.066 43.417C115.461 43.1408 115.886 42.9458 116.341 42.832C116.812 42.7156 117.309 42.7069 117.831 42.8059C118.353 42.9049 118.885 43.1526 119.428 43.5489C119.912 43.9028 120.274 44.293 120.512 44.7197C120.76 45.1534 120.894 45.6005 120.914 46.0611C120.944 46.5287 120.872 47.0037 120.698 47.4859C120.524 47.9682 120.264 48.4467 119.917 48.9215L114.873 45.2376ZM119.019 43.9861C118.68 43.7384 118.335 43.5904 117.984 43.542C117.643 43.5008 117.307 43.523 116.977 43.6088C116.647 43.6946 116.334 43.8378 116.039 44.0383C115.744 44.2389 115.483 44.4642 115.256 44.7143L119.398 47.74C119.594 47.4519 119.742 47.1368 119.843 46.7947C119.954 46.4597 120.005 46.1254 119.996 45.7919C119.987 45.4584 119.903 45.1366 119.743 44.8266C119.59 44.5069 119.349 44.2268 119.019 43.9861Z" fill="#FDFDFD"/>
<path d="M121.422 54.5542C121.6 54.3927 121.803 54.3131 122.032 54.3154C122.27 54.3266 122.469 54.421 122.631 54.5985C122.792 54.7761 122.867 54.9835 122.856 55.2208C122.845 55.4581 122.75 55.6575 122.573 55.819C122.395 55.9806 122.188 56.0557 121.951 56.0445C121.722 56.0252 121.527 55.9268 121.366 55.7493C121.204 55.5717 121.125 55.3683 121.127 55.1391C121.146 54.9106 121.245 54.7157 121.422 54.5542Z" fill="#FAD02C"/>
<path d="M125.573 60.3153L125.616 60.3938C125.658 60.4672 125.727 60.5177 125.825 60.5453C125.923 60.573 126.026 60.5844 126.133 60.5794C126.246 60.5849 126.355 60.5717 126.461 60.54C126.578 60.5023 126.678 60.4601 126.762 60.4132L135.135 55.7292C135.208 55.6882 135.286 55.6308 135.368 55.5572C135.451 55.4835 135.522 55.4023 135.583 55.3135C135.643 55.2248 135.682 55.1343 135.699 55.0422C135.727 54.9442 135.717 54.8533 135.67 54.7695L135.626 54.691L135.783 54.6031L137.479 57.6349C137.942 58.4623 138.212 59.2879 138.288 60.1117C138.374 60.9296 138.297 61.7015 138.057 62.4271C137.833 63.1574 137.474 63.8188 136.98 64.4112C136.487 65.0036 135.899 65.4902 135.219 65.871C134.58 66.2283 133.887 66.4647 133.14 66.5799C132.404 66.6893 131.666 66.6484 130.927 66.4571C130.187 66.2658 129.472 65.9095 128.782 65.3882C128.102 64.861 127.507 64.1419 126.997 63.2308L125.415 60.4032L125.573 60.3153ZM134.385 64.9346C135.056 64.5596 135.622 64.0847 136.084 63.5099C136.546 62.9351 136.874 62.3048 137.068 61.6188C137.278 60.9375 137.347 60.2252 137.275 59.4818C137.209 58.7488 136.982 58.0368 136.596 57.3456L136.148 56.5444L126.879 61.7293L127.345 62.5619C127.661 63.1274 128.062 63.6461 128.545 64.1179C129.046 64.5943 129.603 64.9633 130.217 65.2249C130.841 65.4806 131.504 65.5975 132.207 65.5757C132.916 65.5642 133.642 65.3505 134.385 64.9346Z" fill="#FAD02C"/>
<path d="M135.207 73.0775C134.81 73.2231 134.444 73.4171 134.107 73.6592C133.783 73.8985 133.51 74.1746 133.289 74.4874C133.072 74.8119 132.919 75.1761 132.832 75.58C132.757 75.9812 132.777 76.4208 132.893 76.8989C132.955 77.1555 133.055 77.4152 133.193 77.6781C133.346 77.9498 133.521 78.1912 133.721 78.4021C133.92 78.613 134.142 78.7877 134.385 78.9262C134.643 79.0735 134.909 79.151 135.182 79.1588L135.221 79.3162L133.909 79.6345C133.892 79.5646 133.849 79.4886 133.779 79.4066C133.713 79.3363 133.631 79.2513 133.532 79.1517C133.336 78.9524 133.108 78.6744 132.848 78.3175C132.6 77.9578 132.397 77.4514 132.239 76.7983C132.111 76.2736 132.066 75.7537 132.101 75.2388C132.14 74.7356 132.272 74.265 132.5 73.8271C132.727 73.3892 133.058 73 133.494 72.6596C133.933 72.3308 134.491 72.0844 135.167 71.9203C135.599 71.8156 136.053 71.7794 136.53 71.8118C137.01 71.8559 137.46 71.9812 137.881 72.1879C138.316 72.4034 138.701 72.7175 139.035 73.1302C139.37 73.5429 139.617 74.0757 139.775 74.7288C139.917 75.3119 139.941 75.8432 139.847 76.3228C139.757 76.814 139.57 77.242 139.288 77.6068C139.009 77.9832 138.648 78.2994 138.203 78.5554C137.759 78.8113 137.251 79.0086 136.68 79.1473L135.207 73.0775ZM139.181 74.7989C139.082 74.3907 138.914 74.0549 138.677 73.7913C138.443 73.5393 138.173 73.3396 137.865 73.1919C137.558 73.0442 137.226 72.9517 136.872 72.9143C136.517 72.877 136.172 72.8804 135.837 72.9246L137.047 77.91C137.382 77.8162 137.699 77.6715 137.997 77.4756C138.298 77.2914 138.553 77.0691 138.761 76.8086C138.97 76.5481 139.113 76.2478 139.191 75.9078C139.281 75.565 139.277 75.1954 139.181 74.7989Z" fill="#FAD02C"/>
<path d="M135.534 90.068C135.222 90.0684 134.934 89.9907 134.669 89.835C134.405 89.6793 134.171 89.4636 133.967 89.1878C133.774 88.9241 133.618 88.6122 133.498 88.2524C133.389 87.8925 133.335 87.5026 133.334 87.0826C133.334 86.5666 133.399 86.1465 133.531 85.8223C133.674 85.4982 133.818 85.222 133.962 84.9938C134.058 84.8377 134.135 84.6936 134.195 84.5616C134.267 84.4295 134.303 84.2854 134.303 84.1294L135.671 84.1279L135.671 84.3079C135.503 84.3441 135.317 84.4463 135.113 84.6145C134.922 84.7947 134.742 85.0049 134.574 85.2451C134.406 85.4973 134.263 85.7675 134.143 86.0556C134.035 86.3558 133.982 86.6558 133.982 86.9558C133.982 87.1718 134.007 87.3938 134.055 87.6217C134.103 87.8497 134.181 88.0536 134.29 88.2335C134.398 88.4253 134.53 88.5812 134.686 88.701C134.854 88.8328 135.052 88.8986 135.28 88.8983C135.508 88.8981 135.706 88.8318 135.874 88.6996C136.042 88.5674 136.186 88.3993 136.306 88.1951C136.437 87.991 136.551 87.7569 136.647 87.4927C136.742 87.2286 136.832 86.9645 136.916 86.7004C137.011 86.3883 137.119 86.0702 137.239 85.7461C137.358 85.4339 137.496 85.1518 137.652 84.8996C137.819 84.6474 138.017 84.4432 138.245 84.2869C138.485 84.1306 138.767 84.0523 139.091 84.0519C139.367 84.0516 139.631 84.0993 139.883 84.195C140.135 84.3027 140.351 84.4705 140.531 84.6982C140.724 84.938 140.874 85.2439 140.983 85.6157C141.103 85.9876 141.163 86.4375 141.164 86.9655C141.165 87.4335 141.123 87.7936 141.039 88.0457C140.968 88.3097 140.89 88.5258 140.806 88.6939C140.746 88.802 140.698 88.9101 140.662 89.0181C140.639 89.1261 140.627 89.2461 140.627 89.3781L139.367 89.3796L139.367 89.2356C139.762 89.0191 140.062 88.6888 140.266 88.2446C140.469 87.8003 140.571 87.3442 140.57 86.8762C140.57 86.5762 140.527 86.3183 140.443 86.1024C140.371 85.8864 140.275 85.7065 140.154 85.5627C140.046 85.4308 139.92 85.329 139.776 85.2571C139.632 85.1973 139.488 85.1675 139.344 85.1676C139.14 85.1679 138.966 85.2221 138.822 85.3302C138.678 85.4504 138.553 85.6065 138.445 85.7987C138.337 86.0028 138.235 86.2249 138.14 86.465C138.044 86.7171 137.954 86.9812 137.87 87.2573C137.763 87.5935 137.643 87.9296 137.512 88.2657C137.392 88.6019 137.242 88.9021 137.063 89.1663C136.883 89.4305 136.667 89.6467 136.415 89.815C136.176 89.9833 135.882 90.0676 135.534 90.068Z" fill="#FAD02C"/>
<path d="M132.766 95.1058L132.942 95.1417C132.923 95.2358 132.942 95.3253 132.998 95.4102C133.054 95.4951 133.124 95.5706 133.209 95.6368C133.293 95.703 133.386 95.7586 133.487 95.8036C133.6 95.851 133.703 95.8843 133.797 95.9035L138.683 96.8972C138.883 96.9378 139.077 96.9467 139.266 96.9238C139.466 96.9033 139.601 96.7531 139.67 96.4732L139.828 96.5055L140.034 98.3842L133.561 97.0676C133.467 97.0485 133.358 97.0387 133.236 97.0383C133.125 97.0403 133.018 97.0553 132.915 97.0832C132.811 97.1111 132.717 97.1531 132.632 97.2093C132.547 97.2655 132.495 97.3407 132.476 97.4348L132.299 97.3989L132.766 95.1058ZM142.061 97.0882C142.296 97.136 142.481 97.2531 142.614 97.4395C142.745 97.6376 142.787 97.8542 142.739 98.0894C142.691 98.3246 142.568 98.5078 142.37 98.6389C142.172 98.7701 141.956 98.8117 141.72 98.7639C141.485 98.7161 141.308 98.5943 141.188 98.3986C141.069 98.2028 141.033 97.9874 141.081 97.7522C141.129 97.517 141.246 97.3327 141.432 97.1991C141.616 97.0773 141.826 97.0404 142.061 97.0882Z" fill="#FAD02C"/>
<path d="M126.273 104.763C126.129 105.093 126.025 105.421 125.962 105.747C125.887 106.068 125.857 106.362 125.871 106.63C125.88 106.909 125.933 107.148 126.03 107.347C126.126 107.546 126.262 107.684 126.438 107.761C126.625 107.843 126.826 107.819 127.039 107.689C127.248 107.571 127.469 107.379 127.702 107.114C127.936 106.849 128.179 106.53 128.434 106.157C128.677 105.779 128.934 105.386 129.202 104.98L129.718 104.203C129.63 103.864 129.498 103.597 129.321 103.402C129.144 103.207 128.973 103.074 128.808 103.002C128.577 102.901 128.348 102.873 128.119 102.917C127.874 102.967 127.64 103.068 127.417 103.22C127.189 103.382 126.98 103.592 126.789 103.849C126.594 104.117 126.422 104.422 126.273 104.763ZM129.177 107.109C128.919 107.521 128.673 107.845 128.438 108.083C128.199 108.332 127.969 108.514 127.749 108.627C127.519 108.736 127.301 108.785 127.096 108.774C126.88 108.759 126.668 108.705 126.459 108.614C126.085 108.451 125.806 108.205 125.622 107.876C125.434 107.558 125.323 107.196 125.291 106.789C125.243 106.389 125.266 105.96 125.361 105.504C125.45 105.059 125.588 104.621 125.776 104.193C125.958 103.775 126.177 103.392 126.433 103.046C126.678 102.694 126.947 102.406 127.242 102.181C127.536 101.956 127.849 101.811 128.178 101.745C128.497 101.674 128.816 101.709 129.135 101.848C129.421 101.973 129.657 102.18 129.845 102.472C130.021 102.758 130.149 103.154 130.23 103.661C130.595 103.362 130.989 103.18 131.41 103.115C131.837 103.066 132.227 103.118 132.579 103.271C132.788 103.362 132.97 103.501 133.125 103.686C133.291 103.876 133.413 104.12 133.494 104.416C133.795 104.325 134.073 104.289 134.326 104.308C134.58 104.327 134.833 104.392 135.086 104.502C135.482 104.675 135.815 104.918 136.084 105.232C136.353 105.545 136.551 105.9 136.68 106.297C136.808 106.693 136.86 107.115 136.835 107.562C136.81 108.009 136.701 108.453 136.509 108.893C136.308 109.355 136.034 109.759 135.686 110.105C135.35 110.456 134.993 110.719 134.615 110.895L134.097 112.083L133.503 111.824L133.834 111.065C133.636 111.07 133.404 111.06 133.14 111.037C132.886 111.018 132.638 110.956 132.396 110.85C132.044 110.697 131.745 110.468 131.498 110.164C131.262 109.864 131.087 109.513 130.975 109.111C130.869 108.724 130.83 108.302 130.86 107.843C130.896 107.401 131.01 106.96 131.202 106.52C131.379 106.113 131.612 105.743 131.901 105.411C132.19 105.079 132.515 104.814 132.875 104.618C132.851 104.463 132.788 104.338 132.686 104.241C132.596 104.149 132.49 104.077 132.369 104.024C132.017 103.87 131.672 103.91 131.335 104.143C131.009 104.38 130.699 104.729 130.407 105.191L129.177 107.109ZM136.018 108.443C136.133 108.179 136.192 107.91 136.194 107.636C136.206 107.367 136.169 107.108 136.08 106.86C135.992 106.612 135.851 106.38 135.657 106.165C135.469 105.965 135.227 105.8 134.93 105.671C134.567 105.513 134.211 105.443 133.863 105.461C133.51 105.49 133.189 105.58 132.901 105.729C132.614 105.878 132.36 106.069 132.141 106.301C131.918 106.544 131.751 106.792 131.64 107.045C131.52 107.32 131.462 107.589 131.465 107.852C131.474 108.131 131.531 108.391 131.635 108.633C131.75 108.879 131.909 109.1 132.113 109.293C132.317 109.487 132.55 109.641 132.814 109.756C133.144 109.9 133.476 109.966 133.808 109.954C134.141 109.942 134.449 109.866 134.732 109.728C135.021 109.605 135.275 109.428 135.494 109.196C135.723 108.969 135.898 108.718 136.018 108.443Z" fill="#FAD02C"/>
<path d="M122.184 119.265C122.109 119.206 122.016 119.148 121.907 119.093C121.807 119.045 121.705 119.011 121.6 118.989C121.487 118.977 121.384 118.972 121.29 118.975C121.189 118.987 121.109 119.031 121.05 119.107L120.908 118.995L122.342 117.169L122.484 117.28C122.432 117.346 122.412 117.43 122.424 117.531C122.436 117.632 122.465 117.731 122.511 117.828C122.55 117.935 122.604 118.031 122.674 118.116C122.754 118.209 122.831 118.286 122.907 118.345L125.54 120.412C125.88 120.679 126.214 120.866 126.543 120.971C126.872 121.077 127.184 121.116 127.48 121.089C127.776 121.062 128.043 120.975 128.282 120.826C128.522 120.695 128.724 120.525 128.887 120.317C129.05 120.11 129.171 119.869 129.249 119.594C129.32 119.33 129.347 119.061 129.332 118.79C129.318 118.535 129.258 118.282 129.15 118.03C129.045 117.794 128.894 117.599 128.695 117.443L125.552 114.975C125.477 114.916 125.385 114.859 125.275 114.804C125.176 114.756 125.073 114.721 124.968 114.7C124.856 114.687 124.752 114.683 124.659 114.686C124.558 114.698 124.477 114.742 124.418 114.817L124.277 114.706L125.722 112.865L125.863 112.977C125.811 113.043 125.792 113.126 125.804 113.227C125.816 113.328 125.845 113.428 125.891 113.525C125.929 113.631 125.983 113.727 126.054 113.813C126.133 113.906 126.211 113.982 126.286 114.041L130.194 117.109C130.354 117.235 130.524 117.33 130.702 117.394C130.89 117.466 131.078 117.392 131.265 117.173L131.393 117.273L130.734 119.044L129.955 118.433C129.979 118.558 129.992 118.706 129.996 118.876C130.009 119.054 129.997 119.244 129.962 119.445C129.928 119.662 129.861 119.884 129.76 120.11C129.661 120.353 129.507 120.606 129.3 120.87C128.952 121.314 128.58 121.632 128.184 121.825C127.789 122.018 127.39 122.117 126.989 122.123C126.598 122.136 126.222 122.07 125.863 121.925C125.506 121.797 125.19 121.625 124.916 121.41L122.184 119.265Z" fill="#FAD02C"/>
<path d="M117.862 122.708C118.015 122.893 118.086 123.099 118.073 123.328C118.052 123.565 117.949 123.76 117.765 123.914C117.58 124.067 117.37 124.133 117.133 124.112C116.896 124.09 116.701 123.987 116.548 123.803C116.394 123.618 116.328 123.408 116.35 123.171C116.379 122.944 116.486 122.753 116.67 122.6C116.854 122.446 117.061 122.375 117.29 122.388C117.517 122.417 117.708 122.524 117.862 122.708Z" fill="#FAD02C"/>
<path d="M111.301 139.493C112.094 139.093 112.713 138.601 113.157 138.014C113.595 137.444 113.891 136.832 114.045 136.177C114.204 135.532 114.237 134.877 114.144 134.212C114.04 133.552 113.848 132.944 113.568 132.386C113.249 131.754 112.813 131.194 112.259 130.708C111.71 130.231 111.103 129.866 110.436 129.61C109.765 129.37 109.067 129.251 108.343 129.253C107.623 129.266 106.926 129.442 106.251 129.782C106.058 129.88 105.844 130.014 105.608 130.187C105.362 130.364 105.14 130.577 104.942 130.825C104.749 131.083 104.603 131.378 104.502 131.711C104.39 132.05 104.367 132.431 104.432 132.854L104.271 132.935L103.373 131.151C103.534 131.07 103.694 130.962 103.855 130.828C104.005 130.698 104.174 130.553 104.361 130.391C104.602 130.176 104.878 129.95 105.188 129.713C105.488 129.481 105.826 129.271 106.201 129.082C107.133 128.613 108.034 128.361 108.903 128.326C109.773 128.291 110.573 128.413 111.303 128.69C112.034 128.967 112.679 129.367 113.239 129.892C113.804 130.427 114.253 131.027 114.588 131.691C114.923 132.356 115.137 133.074 115.23 133.847C115.323 134.619 115.258 135.384 115.035 136.142C114.817 136.91 114.425 137.638 113.858 138.326C113.291 139.015 112.514 139.607 111.528 140.104C111.175 140.282 110.842 140.409 110.531 140.485C110.209 140.566 109.92 140.632 109.662 140.681C109.474 140.708 109.308 140.738 109.163 140.77C109.013 140.819 108.874 140.876 108.745 140.941L107.847 139.156L108.008 139.075C108.239 139.375 108.495 139.589 108.774 139.717C109.059 139.856 109.349 139.925 109.644 139.924C109.928 139.928 110.215 139.885 110.505 139.793C110.789 139.717 111.055 139.617 111.301 139.493Z" fill="#FDFDFD"/>
<path d="M95.9854 138.908C96.1767 139.112 96.3549 139.227 96.52 139.253C96.6851 139.279 96.8674 139.271 97.0669 139.228C97.1959 139.2 97.3304 139.14 97.4703 139.049C97.5984 138.96 97.7228 138.853 97.8434 138.729C97.9639 138.605 98.082 138.469 98.1975 138.321C98.3038 138.188 98.3938 138.064 98.4675 137.95L97.4829 133.375C97.4627 133.281 97.4295 133.184 97.3833 133.084C97.3371 132.983 97.2792 132.885 97.2095 132.789C97.1307 132.708 97.0543 132.639 96.9805 132.581C96.8975 132.537 96.8091 132.526 96.7152 132.546L96.6774 132.37L98.965 131.878L99.0029 132.054C98.9207 132.071 98.8508 132.117 98.793 132.191C98.7378 132.276 98.6968 132.371 98.6701 132.475C98.6342 132.593 98.6158 132.708 98.6151 132.818C98.6143 132.929 98.6241 133.031 98.6443 133.125L99.7009 138.035C99.7362 138.199 99.8243 138.352 99.9653 138.493C100.106 138.635 100.281 138.708 100.491 138.712L100.521 138.852L98.8576 139.763L98.6303 138.707C98.5525 138.859 98.4676 139.006 98.3755 139.149C98.286 139.303 98.1809 139.442 98.0603 139.566C97.9305 139.705 97.784 139.822 97.6206 139.919C97.4598 140.027 97.2621 140.106 97.0275 140.157C96.8632 140.192 96.6445 140.202 96.3712 140.187C96.098 140.173 95.8704 140.142 95.6885 140.095L95.9854 138.908Z" fill="#FDFDFD"/>
<path d="M88.3071 137.048C88.2659 136.628 88.1704 136.224 88.0206 135.838C87.8706 135.463 87.672 135.13 87.4247 134.838C87.1653 134.546 86.8512 134.306 86.4821 134.121C86.1129 133.947 85.6823 133.856 85.1904 133.848C84.9264 133.843 84.6499 133.875 84.3607 133.942C84.0594 134.021 83.7816 134.131 83.5273 134.271C83.273 134.411 83.0482 134.581 82.853 134.782C82.6455 134.995 82.5036 135.232 82.4274 135.495L82.2654 135.493L82.2872 134.143C82.3592 134.144 82.4436 134.121 82.5403 134.075C82.6251 134.028 82.7281 133.97 82.8492 133.9C83.0915 133.76 83.418 133.609 83.8286 133.448C84.2391 133.298 84.7803 133.229 85.4522 133.24C85.9921 133.248 86.5068 133.335 86.9962 133.499C87.4736 133.662 87.8957 133.909 88.2624 134.239C88.6292 134.569 88.9224 134.988 89.1423 135.496C89.3501 136.003 89.4484 136.605 89.4372 137.301C89.43 137.745 89.3507 138.193 89.1994 138.647C89.036 139.1 88.8015 139.505 88.4957 139.86C88.1777 140.227 87.7769 140.52 87.2933 140.74C86.8097 140.961 86.2319 141.065 85.56 141.055C84.9601 141.045 84.4398 140.934 83.9992 140.723C83.5465 140.512 83.1791 140.224 82.897 139.859C82.6028 139.495 82.3877 139.065 82.2517 138.571C82.1157 138.077 82.0524 137.535 82.0619 136.947L88.3071 137.048ZM85.6416 140.462C86.0616 140.469 86.4289 140.39 86.7435 140.228C87.0462 140.064 87.3077 139.853 87.5279 139.592C87.7481 139.332 87.921 139.034 88.0464 138.7C88.1718 138.366 88.2552 138.032 88.2966 137.696L83.1673 137.613C83.1737 137.962 83.2341 138.305 83.3487 138.642C83.4513 138.98 83.6024 139.283 83.8021 139.55C84.0018 139.817 84.2564 140.031 84.5658 140.192C84.8751 140.365 85.2337 140.455 85.6416 140.462Z" fill="#FDFDFD"/>
<path d="M73.3857 131.37L73.1481 132.257L73.2584 132.193C73.6258 131.981 74.0225 131.845 74.4485 131.786C74.8629 131.723 75.3367 131.763 75.8699 131.906C76.2755 132.014 76.6109 132.154 76.8758 132.324C77.1407 132.495 77.3442 132.686 77.4861 132.898C77.625 133.121 77.7113 133.356 77.745 133.601C77.7671 133.843 77.7456 134.085 77.6803 134.329C77.5747 134.723 77.3772 135.043 77.0878 135.288C76.7868 135.53 76.4024 135.713 75.9346 135.836C75.4668 135.959 74.9183 136.036 74.2891 136.066C73.6451 136.105 72.9216 136.116 72.1185 136.099C72.0205 136.558 72.0154 136.948 72.1031 137.269C72.1908 137.591 72.3246 137.857 72.5045 138.066C72.6812 138.288 72.8851 138.454 73.1161 138.566C73.344 138.689 73.5448 138.774 73.7187 138.82C74.0201 138.901 74.2991 138.926 74.5558 138.896C74.8008 138.862 75.0305 138.793 75.2447 138.689C75.4443 138.593 75.6253 138.474 75.7878 138.331C75.9472 138.2 76.0819 138.068 76.1918 137.936L76.3483 137.978L76.0082 139.248C75.9123 139.234 75.8176 139.24 75.7241 139.265C75.6305 139.289 75.5196 139.309 75.3912 139.325C75.1987 139.347 74.9347 139.382 74.5992 139.429C74.2605 139.487 73.8188 139.444 73.274 139.298C72.6365 139.127 72.1425 138.907 71.7919 138.64C71.4413 138.372 71.1974 138.076 71.0602 137.754C70.9114 137.428 70.8488 137.082 70.8724 136.716C70.893 136.361 70.9514 136.004 71.0477 135.645L71.9702 132.202C72.0323 131.97 72.0391 131.736 71.9907 131.5C71.9392 131.275 71.8265 131.139 71.6527 131.092L71.6992 130.918L73.3857 131.37ZM72.9431 133.022L72.2769 135.508L72.4601 135.52C72.7569 135.525 73.1237 135.524 73.5604 135.517C73.9856 135.507 74.4027 135.457 74.8117 135.368C75.2207 135.279 75.5869 135.141 75.9102 134.954C76.2335 134.767 76.4402 134.506 76.5303 134.17C76.6297 133.799 76.5613 133.451 76.3252 133.127C76.0891 132.803 75.7276 132.576 75.2408 132.445C74.8583 132.343 74.5004 132.334 74.1671 132.418C73.8307 132.515 73.5051 132.663 73.1903 132.865L72.9431 133.022Z" fill="#FDFDFD"/>
<path d="M62.3237 134.279L64.3314 130.434C64.4758 130.157 64.601 129.905 64.707 129.676C64.813 129.447 64.8836 129.247 64.9188 129.076C64.954 128.904 64.9512 128.754 64.9106 128.625C64.8643 128.506 64.7668 128.407 64.6179 128.33C64.3945 128.213 64.1315 128.211 63.8289 128.324C63.5158 128.431 63.2548 128.62 63.0461 128.89L62.9025 128.815L63.5107 127.65C63.6064 127.7 63.7028 127.71 63.8 127.679C63.924 127.649 64.0879 127.633 64.2919 127.631C64.4853 127.624 64.7362 127.701 65.0447 127.862C65.4276 128.062 65.6866 128.292 65.8216 128.552C65.9566 128.812 66.0081 129.089 65.9761 129.384C65.9441 129.679 65.861 129.98 65.7268 130.289C65.5819 130.593 65.4289 130.899 65.2679 131.207L63.3768 134.829L64.2703 135.296L63.9871 135.838L63.0935 135.372L62.3521 136.792C62.2577 136.973 62.1982 137.151 62.1736 137.328C62.1329 137.51 62.2427 137.676 62.5031 137.825L62.4198 137.985L60.5576 137.662L62.0404 134.822L60.2533 133.889L60.5366 133.346L62.3237 134.279Z" fill="#FDFDFD"/>
<path d="M56.3312 126.575C56.5652 126.223 56.7464 125.85 56.8746 125.456C56.9952 125.071 57.0519 124.687 57.0449 124.305C57.0288 123.914 56.9365 123.53 56.7681 123.153C56.592 122.785 56.3159 122.442 55.9398 122.125C55.7379 121.955 55.5037 121.804 55.2371 121.674C54.9536 121.545 54.6691 121.454 54.3837 121.401C54.0982 121.349 53.8163 121.339 53.538 121.371C53.2428 121.405 52.9826 121.499 52.7574 121.655L52.6335 121.55L53.5038 120.518C53.5588 120.565 53.6385 120.6 53.7428 120.626C53.838 120.643 53.9547 120.663 54.0928 120.685C54.3691 120.73 54.7174 120.819 55.1376 120.954C55.5501 121.098 56.0132 121.386 56.5269 121.819C56.9398 122.168 57.284 122.56 57.5595 122.996C57.8259 123.425 57.9969 123.883 58.0725 124.37C58.148 124.858 58.1105 125.368 57.9599 125.9C57.8001 126.425 57.4959 126.953 57.0473 127.485C56.7611 127.825 56.4159 128.122 56.0119 128.378C55.5987 128.626 55.1614 128.791 54.7 128.873C54.2217 128.956 53.7255 128.93 53.2116 128.795C52.6977 128.66 52.1838 128.376 51.6701 127.943C51.2114 127.556 50.878 127.141 50.6701 126.699C50.453 126.249 50.3504 125.794 50.3623 125.333C50.365 124.864 50.4699 124.396 50.6769 123.927C50.884 123.458 51.177 122.998 51.5561 122.549L56.3312 126.575ZM52.108 127.535C52.4291 127.806 52.7631 127.977 53.1099 128.05C53.4475 128.115 53.784 128.116 54.1193 128.054C54.4546 127.991 54.7765 127.87 55.0848 127.69C55.3931 127.511 55.6693 127.304 55.9135 127.071L51.9915 123.764C51.7764 124.037 51.6064 124.341 51.4815 124.676C51.3475 125.002 51.2734 125.332 51.2592 125.665C51.245 125.999 51.3068 126.326 51.4448 126.646C51.575 126.976 51.7961 127.272 52.108 127.535Z" fill="#FDFDFD"/>
<path d="M50.447 116.825C50.2587 116.974 50.0502 117.039 49.8217 117.021C49.5857 116.993 49.3934 116.885 49.2446 116.697C49.0959 116.509 49.0354 116.296 49.0631 116.06C49.0908 115.824 49.1988 115.632 49.3872 115.483C49.5755 115.335 49.7877 115.274 50.0236 115.302C50.2502 115.337 50.4378 115.449 50.5866 115.637C50.7353 115.825 50.8006 116.034 50.7823 116.262C50.7471 116.489 50.6354 116.677 50.447 116.825Z" fill="#FAD02C"/>
<path d="M42.4271 106.289C42.7045 106.146 42.9963 106.084 43.3024 106.102C43.6086 106.12 43.9155 106.205 44.2232 106.357C44.5147 106.503 44.7962 106.709 45.0677 106.975C45.3285 107.245 45.555 107.567 45.7473 107.941C45.9835 108.399 46.117 108.803 46.148 109.151C46.1683 109.505 46.1666 109.817 46.1429 110.085C46.129 110.268 46.1255 110.432 46.1326 110.577C46.129 110.727 46.1629 110.871 46.2343 111.01L45.018 111.636L44.9356 111.476C45.0685 111.367 45.1872 111.192 45.2917 110.949C45.38 110.701 45.4439 110.432 45.4834 110.141C45.5175 109.841 45.5219 109.535 45.4968 109.224C45.4555 108.907 45.3662 108.616 45.2288 108.349C45.13 108.157 45.007 107.971 44.86 107.79C44.7129 107.609 44.5502 107.464 44.3718 107.353C44.1879 107.232 43.9991 107.153 43.8055 107.118C43.5957 107.078 43.3895 107.11 43.1867 107.214C42.984 107.318 42.8382 107.468 42.7493 107.662C42.6603 107.856 42.6092 108.072 42.5959 108.308C42.5719 108.55 42.5776 108.81 42.6131 109.089C42.6486 109.367 42.6894 109.643 42.7356 109.916C42.793 110.238 42.8426 110.57 42.8842 110.913C42.9203 111.245 42.9267 111.559 42.9034 111.854C42.8693 112.155 42.7867 112.427 42.6554 112.67C42.5134 112.919 42.2984 113.117 42.0103 113.266C41.7649 113.392 41.5082 113.47 41.2402 113.5C40.9667 113.52 40.6978 113.469 40.4334 113.349C40.1528 113.223 39.8794 113.02 39.6131 112.739C39.3361 112.463 39.0768 112.09 38.8351 111.621C38.6209 111.205 38.4935 110.865 38.4528 110.603C38.396 110.335 38.3665 110.107 38.3643 109.92C38.3682 109.796 38.3614 109.678 38.344 109.566C38.3159 109.459 38.2716 109.346 38.2112 109.229L39.3315 108.652L39.3974 108.78C39.1442 109.154 39.0285 109.584 39.0503 110.072C39.0722 110.561 39.1902 111.013 39.4045 111.429C39.5418 111.696 39.6972 111.906 39.8708 112.059C40.0337 112.218 40.2014 112.334 40.374 112.408C40.5304 112.475 40.6892 112.508 40.8501 112.507C41.0056 112.494 41.1474 112.455 41.2754 112.389C41.4568 112.295 41.5868 112.168 41.6654 112.006C41.7385 111.833 41.7791 111.637 41.7872 111.417C41.7899 111.186 41.779 110.942 41.7545 110.685C41.7245 110.417 41.6836 110.141 41.632 109.857C41.5742 109.509 41.5271 109.155 41.4907 108.796C41.4436 108.442 41.4396 108.107 41.4788 107.79C41.518 107.473 41.6112 107.182 41.7583 106.917C41.8948 106.658 42.1177 106.448 42.4271 106.289Z" fill="#FAD02C"/>
<path d="M41.8464 97.2248C41.9831 97.8091 42.0126 98.3567 41.935 98.8678C41.8456 99.3817 41.677 99.8463 41.4291 100.262C41.1668 100.668 40.8296 101.018 40.4177 101.312C40.003 101.593 39.5269 101.797 38.9894 101.923C38.4168 102.057 37.8736 102.079 37.3598 101.99C36.8342 101.903 36.361 101.724 35.9402 101.453C35.5194 101.182 35.1594 100.829 34.8604 100.393C34.5614 99.9578 34.3463 99.4597 34.2151 98.8989C34.084 98.338 34.0572 97.802 34.1348 97.2909C34.2008 96.7825 34.3577 96.3206 34.6056 95.9053C34.8535 95.4899 35.1835 95.1354 35.5954 94.8419C35.9957 94.5511 36.4646 94.3428 37.0021 94.2171C37.5045 94.0996 38.0158 94.0724 38.5359 94.1356C39.0415 94.1899 39.5151 94.3441 39.9565 94.5982C40.3953 94.8407 40.7831 95.1813 41.1199 95.6201C41.4539 96.0473 41.6961 96.5822 41.8464 97.2248ZM34.8427 98.9739C34.9645 99.3891 35.1571 99.7384 35.4206 100.022C35.6696 100.296 35.9662 100.51 36.3102 100.664C36.6399 100.809 36.9994 100.897 37.389 100.929C37.7758 100.95 38.1562 100.916 38.5301 100.829C38.9624 100.728 39.368 100.565 39.7469 100.341C40.1114 100.108 40.4227 99.8316 40.6808 99.5124C40.9362 99.1816 41.1163 98.819 41.2213 98.4247C41.3262 98.0305 41.3282 97.6172 41.227 97.1848C41.1259 96.7525 40.9436 96.3946 40.6801 96.1112C40.4139 95.8161 40.1088 95.5916 39.7648 95.438C39.409 95.287 39.0319 95.2027 38.6334 95.185C38.2322 95.1556 37.8446 95.1846 37.4707 95.2721C37.0851 95.3623 36.7132 95.5109 36.3549 95.7179C35.985 95.9277 35.6709 96.1922 35.4129 96.5113C35.1431 96.8332 34.9526 97.2044 34.8414 97.6247C34.7275 98.0334 34.7279 98.4831 34.8427 98.9739Z" fill="#FAD02C"/>
<path d="M40.5781 88.6932L40.3981 88.6951C40.3971 88.5991 40.3603 88.5155 40.2875 88.4443C40.2148 88.373 40.1302 88.3139 40.0337 88.2669C39.937 88.2079 39.8346 88.167 39.7264 88.1441C39.6061 88.1213 39.498 88.1105 39.402 88.1115L30.1865 88.2075C29.9825 88.2096 29.7908 88.2416 29.6115 88.3035C29.4321 88.3653 29.338 88.5463 29.3291 88.8464L29.1491 88.8483L28.5722 87.0362L39.3896 86.9235C39.4856 86.9225 39.5935 86.9094 39.7132 86.8842C39.821 86.859 39.9226 86.822 40.0181 86.773C40.1135 86.712 40.1968 86.6511 40.2682 86.5904C40.3395 86.5176 40.3746 86.4332 40.3736 86.3372L40.5536 86.3354L40.5781 88.6932Z" fill="#FAD02C"/>
<path d="M34.913 72.0845L35.0894 72.1203C35.0727 72.2026 35.0854 72.2909 35.1275 72.3852C35.1696 72.4794 35.2294 72.5772 35.3067 72.6787C35.3865 72.7683 35.478 72.8603 35.5813 72.9548C35.6752 73.035 35.7645 73.1082 35.849 73.1744L41.831 77.5471L34.5509 79.2108C34.346 79.2549 34.1364 79.3226 33.922 79.4138C33.6958 79.5026 33.5624 79.647 33.5219 79.8469L33.3455 79.8111L33.8358 77.3943L34.0122 77.4301C33.9979 77.5007 34.0141 77.6019 34.0608 77.7338C34.1099 77.854 34.1991 77.9272 34.3284 77.9535C34.3873 77.9654 34.532 77.9458 34.7628 77.8946L39.7433 76.7929L35.4241 73.6392C35.3161 73.5683 35.2326 73.5268 35.1738 73.5149C35.068 73.4934 34.9749 73.5297 34.8946 73.6236C34.805 73.7033 34.753 73.7785 34.7387 73.8491L34.5623 73.8133L34.913 72.0845Z" fill="#FAD02C"/>
<path d="M40.9191 67.2171C41.3187 67.3549 41.7254 67.4362 42.1391 67.4611C42.542 67.4807 42.9278 67.439 43.2963 67.3358C43.67 67.2218 44.0182 67.0358 44.341 66.7778C44.653 66.5146 44.9151 66.161 45.1272 65.7171C45.2411 65.4789 45.3276 65.2144 45.3868 64.9235C45.4404 64.6166 45.4566 64.3184 45.4353 64.0289C45.4141 63.7395 45.3528 63.4641 45.2515 63.2029C45.1446 62.9257 44.9876 62.6977 44.7804 62.5189L44.8503 62.3728L46.0683 62.9549C46.0373 63.0199 46.0227 63.106 46.0246 63.2133C46.0317 63.3098 46.0419 63.4277 46.0551 63.567C46.0815 63.8457 46.0825 64.2053 46.0582 64.6458C46.023 65.0812 45.8605 65.6021 45.5708 66.2084C45.3379 66.6956 45.045 67.1275 44.6921 67.5042C44.3444 67.87 43.9441 68.1508 43.4914 68.3468C43.0387 68.5427 42.5358 68.6348 41.9827 68.6232C41.4348 68.6008 40.8469 68.4395 40.219 68.1394C39.8184 67.9479 39.4434 67.6889 39.0941 67.3624C38.7499 67.025 38.4801 66.6433 38.2846 66.2174C38.0835 65.7755 37.9836 65.2889 37.9849 64.7575C37.9862 64.2261 38.1317 63.6572 38.4215 63.0509C38.6802 62.5095 38.9973 62.0826 39.3728 61.7699C39.7535 61.4465 40.1684 61.2324 40.6174 61.1278C41.0715 61.0124 41.5516 60.9958 42.0576 61.078C42.5636 61.1602 43.0819 61.3281 43.6124 61.5817L40.9191 67.2171ZM38.9264 63.372C38.7452 63.7509 38.6632 64.1174 38.6802 64.4713C38.7025 64.8145 38.7861 65.1404 38.9312 65.4491C39.0762 65.7578 39.2744 66.0388 39.5258 66.2919C39.7773 66.5451 40.0468 66.7603 40.3344 66.9377L42.5465 62.3092C42.2274 62.1699 41.8903 62.082 41.5354 62.0454C41.1857 61.9979 40.8478 62.0093 40.5216 62.0795C40.1954 62.1498 39.8947 62.292 39.6194 62.5062C39.3333 62.7153 39.1023 63.0039 38.9264 63.372Z" fill="#FAD02C"/>
<path d="M48.8723 59.0661C48.6809 58.9213 48.5652 58.736 48.5254 58.5103C48.4927 58.2749 48.5488 58.0615 48.6936 57.8701C48.8384 57.6787 49.0285 57.5667 49.2638 57.5341C49.4991 57.5015 49.7125 57.5576 49.9039 57.7023C50.0953 57.8471 50.2073 58.0372 50.24 58.2725C50.263 58.5006 50.2021 58.7104 50.0573 58.9018C49.9126 59.0932 49.7273 59.2088 49.5015 59.2487C49.2734 59.2718 49.0637 59.2109 48.8723 59.0661Z" fill="#FAD02C"/>
<defs>
<clipPath id="clip0_322_29">
<rect width="25.9731" height="25.9731" fill="white" transform="translate(73.5908 73.5903)"/>
</clipPath>
</defs>
</svg>
