<svg width="1512" height="1129" viewBox="0 0 1512 1129" fill="none" xmlns="http://www.w3.org/2000/svg">
<path d="M138 33.6L138.717 32.9032L138.707 32.8928L138.697 32.8827L138 33.6ZM-46 16V15H-47V16H-46ZM-46 240H-47V241H-46V240ZM-6.32 240V241H-5.32V240H-6.32ZM-6.32 136.96V135.96H-7.32V136.96H-6.32ZM100.88 136.96V137.96H101.88V136.96H100.88ZM100.88 136.64V135.64H99.88V136.64H100.88ZM102.8 136.64V137.64H102.853L102.905 137.635L102.8 136.64ZM120.08 131.52L119.673 130.607L119.663 130.611L119.654 130.615L120.08 131.52ZM103.44 95.36L103.023 94.4509L103.008 94.458L102.993 94.4656L103.44 95.36ZM-6.32 97.28H-7.32V98.28H-6.32V97.28ZM-6.32 56V55H-7.32V56H-6.32ZM109.52 61.76L110.273 61.1015L110.251 61.0764L110.227 61.0529L109.52 61.76ZM138.697 32.8827C127.323 21.8337 112.037 15 95.12 15V17C111.483 17 126.277 23.6063 137.303 34.3173L138.697 32.8827ZM95.12 15H-46V17H95.12V15ZM-47 16V240H-45V16H-47ZM-46 241H-6.32V239H-46V241ZM-5.32 240V136.96H-7.32V240H-5.32ZM-6.32 137.96H100.88V135.96H-6.32V137.96ZM101.88 136.96V136.64H99.88V136.96H101.88ZM100.88 137.64C100.881 137.64 100.883 137.64 100.884 137.64C100.885 137.64 100.886 137.64 100.887 137.64C100.889 137.64 100.89 137.64 100.891 137.64C100.893 137.64 100.894 137.64 100.895 137.64C100.896 137.64 100.898 137.64 100.899 137.64C100.9 137.64 100.901 137.64 100.902 137.64C100.904 137.64 100.905 137.64 100.906 137.64C100.908 137.64 100.909 137.64 100.91 137.64C100.911 137.64 100.913 137.64 100.914 137.64C100.915 137.64 100.916 137.64 100.917 137.64C100.919 137.64 100.92 137.64 100.921 137.64C100.923 137.64 100.924 137.64 100.925 137.64C100.926 137.64 100.928 137.64 100.929 137.64C100.93 137.64 100.931 137.64 100.932 137.64C100.934 137.64 100.935 137.64 100.936 137.64C100.938 137.64 100.939 137.64 100.94 137.64C100.941 137.64 100.943 137.64 100.944 137.64C100.945 137.64 100.946 137.64 100.948 137.64C100.949 137.64 100.95 137.64 100.951 137.64C100.952 137.64 100.954 137.64 100.955 137.64C100.956 137.64 100.958 137.64 100.959 137.64C100.96 137.64 100.961 137.64 100.963 137.64C100.964 137.64 100.965 137.64 100.966 137.64C100.967 137.64 100.969 137.64 100.97 137.64C100.971 137.64 100.973 137.64 100.974 137.64C100.975 137.64 100.976 137.64 100.978 137.64C100.979 137.64 100.98 137.64 100.981 137.64C100.982 137.64 100.984 137.64 100.985 137.64C100.986 137.64 100.988 137.64 100.989 137.64C100.99 137.64 100.991 137.64 100.993 137.64C100.994 137.64 100.995 137.64 100.996 137.64C100.997 137.64 100.999 137.64 101 137.64C101.001 137.64 101.003 137.64 101.004 137.64C101.005 137.64 101.006 137.64 101.008 137.64C101.009 137.64 101.01 137.64 101.011 137.64C101.012 137.64 101.014 137.64 101.015 137.64C101.016 137.64 101.018 137.64 101.019 137.64C101.02 137.64 101.021 137.64 101.023 137.64C101.024 137.64 101.025 137.64 101.026 137.64C101.027 137.64 101.029 137.64 101.03 137.64C101.031 137.64 101.033 137.64 101.034 137.64C101.035 137.64 101.036 137.64 101.038 137.64C101.039 137.64 101.04 137.64 101.041 137.64C101.043 137.64 101.044 137.64 101.045 137.64C101.046 137.64 101.048 137.64 101.049 137.64C101.05 137.64 101.051 137.64 101.053 137.64C101.054 137.64 101.055 137.64 101.056 137.64C101.058 137.64 101.059 137.64 101.06 137.64C101.061 137.64 101.062 137.64 101.064 137.64C101.065 137.64 101.066 137.64 101.068 137.64C101.069 137.64 101.07 137.64 101.071 137.64C101.073 137.64 101.074 137.64 101.075 137.64C101.076 137.64 101.077 137.64 101.079 137.64C101.08 137.64 101.081 137.64 101.083 137.64C101.084 137.64 101.085 137.64 101.086 137.64C101.088 137.64 101.089 137.64 101.09 137.64C101.091 137.64 101.092 137.64 101.094 137.64C101.095 137.64 101.096 137.64 101.098 137.64C101.099 137.64 101.1 137.64 101.101 137.64C101.103 137.64 101.104 137.64 101.105 137.64C101.106 137.64 101.107 137.64 101.109 137.64C101.11 137.64 101.111 137.64 101.113 137.64C101.114 137.64 101.115 137.64 101.116 137.64C101.118 137.64 101.119 137.64 101.12 137.64C101.121 137.64 101.122 137.64 101.124 137.64C101.125 137.64 101.126 137.64 101.128 137.64C101.129 137.64 101.13 137.64 101.131 137.64C101.133 137.64 101.134 137.64 101.135 137.64C101.136 137.64 101.137 137.64 101.139 137.64C101.14 137.64 101.141 137.64 101.143 137.64C101.144 137.64 101.145 137.64 101.146 137.64C101.148 137.64 101.149 137.64 101.15 137.64C101.151 137.64 101.153 137.64 101.154 137.64C101.155 137.64 101.156 137.64 101.158 137.64C101.159 137.64 101.16 137.64 101.161 137.64C101.163 137.64 101.164 137.64 101.165 137.64C101.166 137.64 101.168 137.64 101.169 137.64C101.17 137.64 101.171 137.64 101.173 137.64C101.174 137.64 101.175 137.64 101.176 137.64C101.178 137.64 101.179 137.64 101.18 137.64C101.181 137.64 101.183 137.64 101.184 137.64C101.185 137.64 101.186 137.64 101.188 137.64C101.189 137.64 101.19 137.64 101.191 137.64C101.193 137.64 101.194 137.64 101.195 137.64C101.196 137.64 101.198 137.64 101.199 137.64C101.2 137.64 101.201 137.64 101.202 137.64C101.204 137.64 101.205 137.64 101.206 137.64C101.208 137.64 101.209 137.64 101.21 137.64C101.211 137.64 101.213 137.64 101.214 137.64C101.215 137.64 101.216 137.64 101.217 137.64C101.219 137.64 101.22 137.64 101.221 137.64C101.223 137.64 101.224 137.64 101.225 137.64C101.226 137.64 101.228 137.64 101.229 137.64C101.23 137.64 101.231 137.64 101.232 137.64C101.234 137.64 101.235 137.64 101.236 137.64C101.238 137.64 101.239 137.64 101.24 137.64C101.241 137.64 101.243 137.64 101.244 137.64C101.245 137.64 101.246 137.64 101.248 137.64C101.249 137.64 101.25 137.64 101.251 137.64C101.253 137.64 101.254 137.64 101.255 137.64C101.256 137.64 101.258 137.64 101.259 137.64C101.26 137.64 101.261 137.64 101.263 137.64C101.264 137.64 101.265 137.64 101.266 137.64C101.268 137.64 101.269 137.64 101.27 137.64C101.271 137.64 101.273 137.64 101.274 137.64C101.275 137.64 101.276 137.64 101.278 137.64C101.279 137.64 101.28 137.64 101.281 137.64C101.283 137.64 101.284 137.64 101.285 137.64C101.286 137.64 101.288 137.64 101.289 137.64C101.29 137.64 101.291 137.64 101.293 137.64C101.294 137.64 101.295 137.64 101.296 137.64C101.298 137.64 101.299 137.64 101.3 137.64C101.301 137.64 101.303 137.64 101.304 137.64C101.305 137.64 101.306 137.64 101.308 137.64C101.309 137.64 101.31 137.64 101.311 137.64C101.312 137.64 101.314 137.64 101.315 137.64C101.316 137.64 101.318 137.64 101.319 137.64C101.32 137.64 101.321 137.64 101.323 137.64C101.324 137.64 101.325 137.64 101.326 137.64C101.327 137.64 101.329 137.64 101.33 137.64C101.331 137.64 101.333 137.64 101.334 137.64C101.335 137.64 101.336 137.64 101.338 137.64C101.339 137.64 101.34 137.64 101.341 137.64C101.342 137.64 101.344 137.64 101.345 137.64C101.346 137.64 101.348 137.64 101.349 137.64C101.35 137.64 101.351 137.64 101.353 137.64C101.354 137.64 101.355 137.64 101.356 137.64C101.358 137.64 101.359 137.64 101.36 137.64C101.361 137.64 101.363 137.64 101.364 137.64C101.365 137.64 101.366 137.64 101.368 137.64C101.369 137.64 101.37 137.64 101.371 137.64C101.373 137.64 101.374 137.64 101.375 137.64C101.376 137.64 101.378 137.64 101.379 137.64C101.38 137.64 101.381 137.64 101.383 137.64C101.384 137.64 101.385 137.64 101.386 137.64C101.388 137.64 101.389 137.64 101.39 137.64C101.391 137.64 101.393 137.64 101.394 137.64C101.395 137.64 101.396 137.64 101.398 137.64C101.399 137.64 101.4 137.64 101.401 137.64C101.403 137.64 101.404 137.64 101.405 137.64C101.406 137.64 101.408 137.64 101.409 137.64C101.41 137.64 101.411 137.64 101.413 137.64C101.414 137.64 101.415 137.64 101.416 137.64C101.418 137.64 101.419 137.64 101.42 137.64C101.421 137.64 101.423 137.64 101.424 137.64C101.425 137.64 101.426 137.64 101.428 137.64C101.429 137.64 101.43 137.64 101.431 137.64C101.433 137.64 101.434 137.64 101.435 137.64C101.436 137.64 101.438 137.64 101.439 137.64C101.44 137.64 101.441 137.64 101.443 137.64C101.444 137.64 101.445 137.64 101.446 137.64C101.448 137.64 101.449 137.64 101.45 137.64C101.451 137.64 101.452 137.64 101.454 137.64C101.455 137.64 101.456 137.64 101.458 137.64C101.459 137.64 101.46 137.64 101.461 137.64C101.463 137.64 101.464 137.64 101.465 137.64C101.466 137.64 101.468 137.64 101.469 137.64C101.47 137.64 101.471 137.64 101.473 137.64C101.474 137.64 101.475 137.64 101.476 137.64C101.478 137.64 101.479 137.64 101.48 137.64C101.481 137.64 101.483 137.64 101.484 137.64C101.485 137.64 101.486 137.64 101.488 137.64C101.489 137.64 101.49 137.64 101.491 137.64C101.493 137.64 101.494 137.64 101.495 137.64C101.496 137.64 101.498 137.64 101.499 137.64C101.5 137.64 101.501 137.64 101.503 137.64C101.504 137.64 101.505 137.64 101.506 137.64C101.508 137.64 101.509 137.64 101.51 137.64C101.511 137.64 101.513 137.64 101.514 137.64C101.515 137.64 101.516 137.64 101.518 137.64C101.519 137.64 101.52 137.64 101.521 137.64C101.523 137.64 101.524 137.64 101.525 137.64C101.526 137.64 101.528 137.64 101.529 137.64C101.53 137.64 101.531 137.64 101.533 137.64C101.534 137.64 101.535 137.64 101.536 137.64C101.538 137.64 101.539 137.64 101.54 137.64C101.541 137.64 101.543 137.64 101.544 137.64C101.545 137.64 101.546 137.64 101.548 137.64C101.549 137.64 101.55 137.64 101.551 137.64C101.553 137.64 101.554 137.64 101.555 137.64C101.556 137.64 101.558 137.64 101.559 137.64C101.56 137.64 101.561 137.64 101.562 137.64C101.564 137.64 101.565 137.64 101.566 137.64C101.568 137.64 101.569 137.64 101.57 137.64C101.571 137.64 101.573 137.64 101.574 137.64C101.575 137.64 101.576 137.64 101.578 137.64C101.579 137.64 101.58 137.64 101.581 137.64C101.583 137.64 101.584 137.64 101.585 137.64C101.586 137.64 101.588 137.64 101.589 137.64C101.59 137.64 101.591 137.64 101.593 137.64C101.594 137.64 101.595 137.64 101.596 137.64C101.598 137.64 101.599 137.64 101.6 137.64C101.601 137.64 101.603 137.64 101.604 137.64C101.605 137.64 101.606 137.64 101.608 137.64C101.609 137.64 101.61 137.64 101.611 137.64C101.613 137.64 101.614 137.64 101.615 137.64C101.616 137.64 101.618 137.64 101.619 137.64C101.62 137.64 101.621 137.64 101.623 137.64C101.624 137.64 101.625 137.64 101.626 137.64C101.628 137.64 101.629 137.64 101.63 137.64C101.631 137.64 101.633 137.64 101.634 137.64C101.635 137.64 101.636 137.64 101.638 137.64C101.639 137.64 101.64 137.64 101.641 137.64C101.643 137.64 101.644 137.64 101.645 137.64C101.646 137.64 101.648 137.64 101.649 137.64C101.65 137.64 101.651 137.64 101.653 137.64C101.654 137.64 101.655 137.64 101.656 137.64C101.658 137.64 101.659 137.64 101.66 137.64C101.661 137.64 101.663 137.64 101.664 137.64C101.665 137.64 101.666 137.64 101.668 137.64C101.669 137.64 101.67 137.64 101.671 137.64C101.673 137.64 101.674 137.64 101.675 137.64C101.676 137.64 101.678 137.64 101.679 137.64C101.68 137.64 101.681 137.64 101.683 137.64C101.684 137.64 101.685 137.64 101.686 137.64C101.688 137.64 101.689 137.64 101.69 137.64C101.691 137.64 101.693 137.64 101.694 137.64C101.695 137.64 101.696 137.64 101.698 137.64C101.699 137.64 101.7 137.64 101.701 137.64C101.703 137.64 101.704 137.64 101.705 137.64C101.706 137.64 101.708 137.64 101.709 137.64C101.71 137.64 101.711 137.64 101.713 137.64C101.714 137.64 101.715 137.64 101.716 137.64C101.718 137.64 101.719 137.64 101.72 137.64C101.721 137.64 101.723 137.64 101.724 137.64C101.725 137.64 101.726 137.64 101.728 137.64C101.729 137.64 101.73 137.64 101.731 137.64C101.733 137.64 101.734 137.64 101.735 137.64C101.736 137.64 101.738 137.64 101.739 137.64C101.74 137.64 101.741 137.64 101.743 137.64C101.744 137.64 101.745 137.64 101.746 137.64C101.748 137.64 101.749 137.64 101.75 137.64C101.751 137.64 101.753 137.64 101.754 137.64C101.755 137.64 101.756 137.64 101.758 137.64C101.759 137.64 101.76 137.64 101.761 137.64C101.763 137.64 101.764 137.64 101.765 137.64C101.766 137.64 101.768 137.64 101.769 137.64C101.77 137.64 101.771 137.64 101.773 137.64C101.774 137.64 101.775 137.64 101.776 137.64C101.778 137.64 101.779 137.64 101.78 137.64C101.781 137.64 101.783 137.64 101.784 137.64C101.785 137.64 101.786 137.64 101.788 137.64C101.789 137.64 101.79 137.64 101.791 137.64C101.793 137.64 101.794 137.64 101.795 137.64C101.796 137.64 101.798 137.64 101.799 137.64C101.8 137.64 101.801 137.64 101.803 137.64C101.804 137.64 101.805 137.64 101.806 137.64C101.808 137.64 101.809 137.64 101.81 137.64C101.811 137.64 101.813 137.64 101.814 137.64C101.815 137.64 101.816 137.64 101.818 137.64C101.819 137.64 101.82 137.64 101.821 137.64C101.823 137.64 101.824 137.64 101.825 137.64C101.826 137.64 101.828 137.64 101.829 137.64C101.83 137.64 101.831 137.64 101.833 137.64C101.834 137.64 101.835 137.64 101.836 137.64C101.838 137.64 101.839 137.64 101.84 137.64C101.841 137.64 101.843 137.64 101.844 137.64C101.845 137.64 101.846 137.64 101.848 137.64C101.849 137.64 101.85 137.64 101.851 137.64C101.853 137.64 101.854 137.64 101.855 137.64C101.856 137.64 101.858 137.64 101.859 137.64C101.86 137.64 101.861 137.64 101.863 137.64C101.864 137.64 101.865 137.64 101.866 137.64C101.868 137.64 101.869 137.64 101.87 137.64C101.871 137.64 101.873 137.64 101.874 137.64C101.875 137.64 101.876 137.64 101.878 137.64C101.879 137.64 101.88 137.64 101.881 137.64C101.883 137.64 101.884 137.64 101.885 137.64C101.886 137.64 101.888 137.64 101.889 137.64C101.89 137.64 101.891 137.64 101.893 137.64C101.894 137.64 101.895 137.64 101.896 137.64C101.898 137.64 101.899 137.64 101.9 137.64C101.901 137.64 101.903 137.64 101.904 137.64C101.905 137.64 101.906 137.64 101.908 137.64C101.909 137.64 101.91 137.64 101.911 137.64C101.913 137.64 101.914 137.64 101.915 137.64C101.916 137.64 101.918 137.64 101.919 137.64C101.92 137.64 101.921 137.64 101.923 137.64C101.924 137.64 101.925 137.64 101.926 137.64C101.928 137.64 101.929 137.64 101.93 137.64C101.931 137.64 101.933 137.64 101.934 137.64C101.935 137.64 101.936 137.64 101.938 137.64C101.939 137.64 101.94 137.64 101.941 137.64C101.943 137.64 101.944 137.64 101.945 137.64C101.946 137.64 101.948 137.64 101.949 137.64C101.95 137.64 101.951 137.64 101.953 137.64C101.954 137.64 101.955 137.64 101.956 137.64C101.958 137.64 101.959 137.64 101.96 137.64C101.961 137.64 101.963 137.64 101.964 137.64C101.965 137.64 101.966 137.64 101.968 137.64C101.969 137.64 101.97 137.64 101.971 137.64C101.973 137.64 101.974 137.64 101.975 137.64C101.976 137.64 101.978 137.64 101.979 137.64C101.98 137.64 101.981 137.64 101.983 137.64C101.984 137.64 101.985 137.64 101.986 137.64C101.988 137.64 101.989 137.64 101.99 137.64C101.991 137.64 101.993 137.64 101.994 137.64C101.995 137.64 101.996 137.64 101.998 137.64C101.999 137.64 102 137.64 102.001 137.64C102.003 137.64 102.004 137.64 102.005 137.64C102.006 137.64 102.008 137.64 102.009 137.64C102.01 137.64 102.011 137.64 102.013 137.64C102.014 137.64 102.015 137.64 102.016 137.64C102.018 137.64 102.019 137.64 102.02 137.64C102.021 137.64 102.023 137.64 102.024 137.64C102.025 137.64 102.026 137.64 102.028 137.64C102.029 137.64 102.03 137.64 102.031 137.64C102.033 137.64 102.034 137.64 102.035 137.64C102.036 137.64 102.038 137.64 102.039 137.64C102.04 137.64 102.041 137.64 102.043 137.64C102.044 137.64 102.045 137.64 102.046 137.64C102.048 137.64 102.049 137.64 102.05 137.64C102.051 137.64 102.053 137.64 102.054 137.64C102.055 137.64 102.056 137.64 102.058 137.64C102.059 137.64 102.06 137.64 102.061 137.64C102.063 137.64 102.064 137.64 102.065 137.64C102.066 137.64 102.068 137.64 102.069 137.64C102.07 137.64 102.071 137.64 102.073 137.64C102.074 137.64 102.075 137.64 102.076 137.64C102.078 137.64 102.079 137.64 102.08 137.64C102.081 137.64 102.083 137.64 102.084 137.64C102.085 137.64 102.086 137.64 102.088 137.64C102.089 137.64 102.09 137.64 102.091 137.64C102.093 137.64 102.094 137.64 102.095 137.64C102.096 137.64 102.098 137.64 102.099 137.64C102.1 137.64 102.101 137.64 102.103 137.64C102.104 137.64 102.105 137.64 102.106 137.64C102.108 137.64 102.109 137.64 102.11 137.64C102.111 137.64 102.113 137.64 102.114 137.64C102.115 137.64 102.116 137.64 102.118 137.64C102.119 137.64 102.12 137.64 102.121 137.64C102.123 137.64 102.124 137.64 102.125 137.64C102.126 137.64 102.128 137.64 102.129 137.64C102.13 137.64 102.131 137.64 102.133 137.64C102.134 137.64 102.135 137.64 102.136 137.64C102.138 137.64 102.139 137.64 102.14 137.64C102.141 137.64 102.143 137.64 102.144 137.64C102.145 137.64 102.146 137.64 102.148 137.64C102.149 137.64 102.15 137.64 102.151 137.64C102.153 137.64 102.154 137.64 102.155 137.64C102.156 137.64 102.158 137.64 102.159 137.64C102.16 137.64 102.161 137.64 102.163 137.64C102.164 137.64 102.165 137.64 102.166 137.64C102.168 137.64 102.169 137.64 102.17 137.64C102.171 137.64 102.173 137.64 102.174 137.64C102.175 137.64 102.176 137.64 102.178 137.64C102.179 137.64 102.18 137.64 102.181 137.64C102.183 137.64 102.184 137.64 102.185 137.64C102.186 137.64 102.188 137.64 102.189 137.64C102.19 137.64 102.191 137.64 102.193 137.64C102.194 137.64 102.195 137.64 102.196 137.64C102.198 137.64 102.199 137.64 102.2 137.64C102.201 137.64 102.203 137.64 102.204 137.64C102.205 137.64 102.206 137.64 102.208 137.64C102.209 137.64 102.21 137.64 102.211 137.64C102.213 137.64 102.214 137.64 102.215 137.64C102.216 137.64 102.218 137.64 102.219 137.64C102.22 137.64 102.221 137.64 102.223 137.64C102.224 137.64 102.225 137.64 102.226 137.64C102.228 137.64 102.229 137.64 102.23 137.64C102.231 137.64 102.233 137.64 102.234 137.64C102.235 137.64 102.236 137.64 102.238 137.64C102.239 137.64 102.24 137.64 102.241 137.64C102.243 137.64 102.244 137.64 102.245 137.64C102.246 137.64 102.248 137.64 102.249 137.64C102.25 137.64 102.251 137.64 102.253 137.64C102.254 137.64 102.255 137.64 102.256 137.64C102.258 137.64 102.259 137.64 102.26 137.64C102.261 137.64 102.263 137.64 102.264 137.64C102.265 137.64 102.266 137.64 102.268 137.64C102.269 137.64 102.27 137.64 102.271 137.64C102.273 137.64 102.274 137.64 102.275 137.64C102.276 137.64 102.278 137.64 102.279 137.64C102.28 137.64 102.281 137.64 102.283 137.64C102.284 137.64 102.285 137.64 102.286 137.64C102.288 137.64 102.289 137.64 102.29 137.64C102.291 137.64 102.293 137.64 102.294 137.64C102.295 137.64 102.296 137.64 102.298 137.64C102.299 137.64 102.3 137.64 102.301 137.64C102.303 137.64 102.304 137.64 102.305 137.64C102.306 137.64 102.308 137.64 102.309 137.64C102.31 137.64 102.311 137.64 102.313 137.64C102.314 137.64 102.315 137.64 102.316 137.64C102.318 137.64 102.319 137.64 102.32 137.64C102.321 137.64 102.323 137.64 102.324 137.64C102.325 137.64 102.326 137.64 102.328 137.64C102.329 137.64 102.33 137.64 102.331 137.64C102.333 137.64 102.334 137.64 102.335 137.64C102.336 137.64 102.338 137.64 102.339 137.64C102.34 137.64 102.341 137.64 102.343 137.64C102.344 137.64 102.345 137.64 102.346 137.64C102.348 137.64 102.349 137.64 102.35 137.64C102.351 137.64 102.353 137.64 102.354 137.64C102.355 137.64 102.356 137.64 102.358 137.64C102.359 137.64 102.36 137.64 102.361 137.64C102.363 137.64 102.364 137.64 102.365 137.64C102.366 137.64 102.368 137.64 102.369 137.64C102.37 137.64 102.371 137.64 102.373 137.64C102.374 137.64 102.375 137.64 102.376 137.64C102.378 137.64 102.379 137.64 102.38 137.64C102.381 137.64 102.383 137.64 102.384 137.64C102.385 137.64 102.386 137.64 102.388 137.64C102.389 137.64 102.39 137.64 102.391 137.64C102.393 137.64 102.394 137.64 102.395 137.64C102.396 137.64 102.398 137.64 102.399 137.64C102.4 137.64 102.401 137.64 102.403 137.64C102.404 137.64 102.405 137.64 102.406 137.64C102.408 137.64 102.409 137.64 102.41 137.64C102.411 137.64 102.413 137.64 102.414 137.64C102.415 137.64 102.416 137.64 102.418 137.64C102.419 137.64 102.42 137.64 102.421 137.64C102.423 137.64 102.424 137.64 102.425 137.64C102.426 137.64 102.428 137.64 102.429 137.64C102.43 137.64 102.431 137.64 102.433 137.64C102.434 137.64 102.435 137.64 102.436 137.64C102.438 137.64 102.439 137.64 102.44 137.64C102.441 137.64 102.443 137.64 102.444 137.64C102.445 137.64 102.446 137.64 102.448 137.64C102.449 137.64 102.45 137.64 102.451 137.64C102.453 137.64 102.454 137.64 102.455 137.64C102.456 137.64 102.458 137.64 102.459 137.64C102.46 137.64 102.461 137.64 102.463 137.64C102.464 137.64 102.465 137.64 102.466 137.64C102.468 137.64 102.469 137.64 102.47 137.64C102.471 137.64 102.473 137.64 102.474 137.64C102.475 137.64 102.476 137.64 102.478 137.64C102.479 137.64 102.48 137.64 102.481 137.64C102.483 137.64 102.484 137.64 102.485 137.64C102.486 137.64 102.488 137.64 102.489 137.64C102.49 137.64 102.491 137.64 102.493 137.64C102.494 137.64 102.495 137.64 102.496 137.64C102.498 137.64 102.499 137.64 102.5 137.64C102.501 137.64 102.503 137.64 102.504 137.64C102.505 137.64 102.506 137.64 102.508 137.64C102.509 137.64 102.51 137.64 102.511 137.64C102.513 137.64 102.514 137.64 102.515 137.64C102.516 137.64 102.518 137.64 102.519 137.64C102.52 137.64 102.521 137.64 102.523 137.64C102.524 137.64 102.525 137.64 102.526 137.64C102.528 137.64 102.529 137.64 102.53 137.64C102.531 137.64 102.533 137.64 102.534 137.64C102.535 137.64 102.536 137.64 102.538 137.64C102.539 137.64 102.54 137.64 102.541 137.64C102.543 137.64 102.544 137.64 102.545 137.64C102.546 137.64 102.548 137.64 102.549 137.64C102.55 137.64 102.551 137.64 102.553 137.64C102.554 137.64 102.555 137.64 102.556 137.64C102.558 137.64 102.559 137.64 102.56 137.64C102.561 137.64 102.563 137.64 102.564 137.64C102.565 137.64 102.566 137.64 102.568 137.64C102.569 137.64 102.57 137.64 102.571 137.64C102.573 137.64 102.574 137.64 102.575 137.64C102.576 137.64 102.578 137.64 102.579 137.64C102.58 137.64 102.581 137.64 102.583 137.64C102.584 137.64 102.585 137.64 102.586 137.64C102.588 137.64 102.589 137.64 102.59 137.64C102.591 137.64 102.593 137.64 102.594 137.64C102.595 137.64 102.596 137.64 102.598 137.64C102.599 137.64 102.6 137.64 102.601 137.64C102.603 137.64 102.604 137.64 102.605 137.64C102.606 137.64 102.608 137.64 102.609 137.64C102.61 137.64 102.611 137.64 102.613 137.64C102.614 137.64 102.615 137.64 102.616 137.64C102.618 137.64 102.619 137.64 102.62 137.64C102.621 137.64 102.623 137.64 102.624 137.64C102.625 137.64 102.626 137.64 102.628 137.64C102.629 137.64 102.63 137.64 102.631 137.64C102.633 137.64 102.634 137.64 102.635 137.64C102.636 137.64 102.638 137.64 102.639 137.64C102.64 137.64 102.641 137.64 102.643 137.64C102.644 137.64 102.645 137.64 102.646 137.64C102.648 137.64 102.649 137.64 102.65 137.64C102.651 137.64 102.653 137.64 102.654 137.64C102.655 137.64 102.656 137.64 102.658 137.64C102.659 137.64 102.66 137.64 102.661 137.64C102.663 137.64 102.664 137.64 102.665 137.64C102.666 137.64 102.668 137.64 102.669 137.64C102.67 137.64 102.671 137.64 102.673 137.64C102.674 137.64 102.675 137.64 102.676 137.64C102.678 137.64 102.679 137.64 102.68 137.64C102.681 137.64 102.683 137.64 102.684 137.64C102.685 137.64 102.686 137.64 102.688 137.64C102.689 137.64 102.69 137.64 102.691 137.64C102.693 137.64 102.694 137.64 102.695 137.64C102.696 137.64 102.698 137.64 102.699 137.64C102.7 137.64 102.701 137.64 102.703 137.64C102.704 137.64 102.705 137.64 102.706 137.64C102.708 137.64 102.709 137.64 102.71 137.64C102.711 137.64 102.713 137.64 102.714 137.64C102.715 137.64 102.716 137.64 102.718 137.64C102.719 137.64 102.72 137.64 102.721 137.64C102.723 137.64 102.724 137.64 102.725 137.64C102.726 137.64 102.728 137.64 102.729 137.64C102.73 137.64 102.731 137.64 102.733 137.64C102.734 137.64 102.735 137.64 102.736 137.64C102.738 137.64 102.739 137.64 102.74 137.64C102.741 137.64 102.743 137.64 102.744 137.64C102.745 137.64 102.746 137.64 102.748 137.64C102.749 137.64 102.75 137.64 102.751 137.64C102.753 137.64 102.754 137.64 102.755 137.64C102.756 137.64 102.758 137.64 102.759 137.64C102.76 137.64 102.761 137.64 102.763 137.64C102.764 137.64 102.765 137.64 102.766 137.64C102.768 137.64 102.769 137.64 102.77 137.64C102.771 137.64 102.773 137.64 102.774 137.64C102.775 137.64 102.776 137.64 102.778 137.64C102.779 137.64 102.78 137.64 102.781 137.64C102.783 137.64 102.784 137.64 102.785 137.64C102.786 137.64 102.788 137.64 102.789 137.64C102.79 137.64 102.791 137.64 102.793 137.64C102.794 137.64 102.795 137.64 102.796 137.64C102.798 137.64 102.799 137.64 102.8 137.64V135.64C102.799 135.64 102.798 135.64 102.796 135.64C102.795 135.64 102.794 135.64 102.793 135.64C102.791 135.64 102.79 135.64 102.789 135.64C102.788 135.64 102.786 135.64 102.785 135.64C102.784 135.64 102.783 135.64 102.781 135.64C102.78 135.64 102.779 135.64 102.778 135.64C102.776 135.64 102.775 135.64 102.774 135.64C102.773 135.64 102.771 135.64 102.77 135.64C102.769 135.64 102.768 135.64 102.766 135.64C102.765 135.64 102.764 135.64 102.763 135.64C102.761 135.64 102.76 135.64 102.759 135.64C102.758 135.64 102.756 135.64 102.755 135.64C102.754 135.64 102.753 135.64 102.751 135.64C102.75 135.64 102.749 135.64 102.748 135.64C102.746 135.64 102.745 135.64 102.744 135.64C102.743 135.64 102.741 135.64 102.74 135.64C102.739 135.64 102.738 135.64 102.736 135.64C102.735 135.64 102.734 135.64 102.733 135.64C102.731 135.64 102.73 135.64 102.729 135.64C102.728 135.64 102.726 135.64 102.725 135.64C102.724 135.64 102.723 135.64 102.721 135.64C102.72 135.64 102.719 135.64 102.718 135.64C102.716 135.64 102.715 135.64 102.714 135.64C102.713 135.64 102.711 135.64 102.71 135.64C102.709 135.64 102.708 135.64 102.706 135.64C102.705 135.64 102.704 135.64 102.703 135.64C102.701 135.64 102.7 135.64 102.699 135.64C102.698 135.64 102.696 135.64 102.695 135.64C102.694 135.64 102.693 135.64 102.691 135.64C102.69 135.64 102.689 135.64 102.688 135.64C102.686 135.64 102.685 135.64 102.684 135.64C102.683 135.64 102.681 135.64 102.68 135.64C102.679 135.64 102.678 135.64 102.676 135.64C102.675 135.64 102.674 135.64 102.673 135.64C102.671 135.64 102.67 135.64 102.669 135.64C102.668 135.64 102.666 135.64 102.665 135.64C102.664 135.64 102.663 135.64 102.661 135.64C102.66 135.64 102.659 135.64 102.658 135.64C102.656 135.64 102.655 135.64 102.654 135.64C102.653 135.64 102.651 135.64 102.65 135.64C102.649 135.64 102.648 135.64 102.646 135.64C102.645 135.64 102.644 135.64 102.643 135.64C102.641 135.64 102.64 135.64 102.639 135.64C102.638 135.64 102.636 135.64 102.635 135.64C102.634 135.64 102.633 135.64 102.631 135.64C102.63 135.64 102.629 135.64 102.628 135.64C102.626 135.64 102.625 135.64 102.624 135.64C102.623 135.64 102.621 135.64 102.62 135.64C102.619 135.64 102.618 135.64 102.616 135.64C102.615 135.64 102.614 135.64 102.613 135.64C102.611 135.64 102.61 135.64 102.609 135.64C102.608 135.64 102.606 135.64 102.605 135.64C102.604 135.64 102.603 135.64 102.601 135.64C102.6 135.64 102.599 135.64 102.598 135.64C102.596 135.64 102.595 135.64 102.594 135.64C102.593 135.64 102.591 135.64 102.59 135.64C102.589 135.64 102.588 135.64 102.586 135.64C102.585 135.64 102.584 135.64 102.583 135.64C102.581 135.64 102.58 135.64 102.579 135.64C102.578 135.64 102.576 135.64 102.575 135.64C102.574 135.64 102.573 135.64 102.571 135.64C102.57 135.64 102.569 135.64 102.568 135.64C102.566 135.64 102.565 135.64 102.564 135.64C102.563 135.64 102.561 135.64 102.56 135.64C102.559 135.64 102.558 135.64 102.556 135.64C102.555 135.64 102.554 135.64 102.553 135.64C102.551 135.64 102.55 135.64 102.549 135.64C102.548 135.64 102.546 135.64 102.545 135.64C102.544 135.64 102.543 135.64 102.541 135.64C102.54 135.64 102.539 135.64 102.538 135.64C102.536 135.64 102.535 135.64 102.534 135.64C102.533 135.64 102.531 135.64 102.53 135.64C102.529 135.64 102.528 135.64 102.526 135.64C102.525 135.64 102.524 135.64 102.523 135.64C102.521 135.64 102.52 135.64 102.519 135.64C102.518 135.64 102.516 135.64 102.515 135.64C102.514 135.64 102.513 135.64 102.511 135.64C102.51 135.64 102.509 135.64 102.508 135.64C102.506 135.64 102.505 135.64 102.504 135.64C102.503 135.64 102.501 135.64 102.5 135.64C102.499 135.64 102.498 135.64 102.496 135.64C102.495 135.64 102.494 135.64 102.493 135.64C102.491 135.64 102.49 135.64 102.489 135.64C102.488 135.64 102.486 135.64 102.485 135.64C102.484 135.64 102.483 135.64 102.481 135.64C102.48 135.64 102.479 135.64 102.478 135.64C102.476 135.64 102.475 135.64 102.474 135.64C102.473 135.64 102.471 135.64 102.47 135.64C102.469 135.64 102.468 135.64 102.466 135.64C102.465 135.64 102.464 135.64 102.463 135.64C102.461 135.64 102.46 135.64 102.459 135.64C102.458 135.64 102.456 135.64 102.455 135.64C102.454 135.64 102.453 135.64 102.451 135.64C102.45 135.64 102.449 135.64 102.448 135.64C102.446 135.64 102.445 135.64 102.444 135.64C102.443 135.64 102.441 135.64 102.44 135.64C102.439 135.64 102.438 135.64 102.436 135.64C102.435 135.64 102.434 135.64 102.433 135.64C102.431 135.64 102.43 135.64 102.429 135.64C102.428 135.64 102.426 135.64 102.425 135.64C102.424 135.64 102.423 135.64 102.421 135.64C102.42 135.64 102.419 135.64 102.418 135.64C102.416 135.64 102.415 135.64 102.414 135.64C102.413 135.64 102.411 135.64 102.41 135.64C102.409 135.64 102.408 135.64 102.406 135.64C102.405 135.64 102.404 135.64 102.403 135.64C102.401 135.64 102.4 135.64 102.399 135.64C102.398 135.64 102.396 135.64 102.395 135.64C102.394 135.64 102.393 135.64 102.391 135.64C102.39 135.64 102.389 135.64 102.388 135.64C102.386 135.64 102.385 135.64 102.384 135.64C102.383 135.64 102.381 135.64 102.38 135.64C102.379 135.64 102.378 135.64 102.376 135.64C102.375 135.64 102.374 135.64 102.373 135.64C102.371 135.64 102.37 135.64 102.369 135.64C102.368 135.64 102.366 135.64 102.365 135.64C102.364 135.64 102.363 135.64 102.361 135.64C102.36 135.64 102.359 135.64 102.358 135.64C102.356 135.64 102.355 135.64 102.354 135.64C102.353 135.64 102.351 135.64 102.35 135.64C102.349 135.64 102.348 135.64 102.346 135.64C102.345 135.64 102.344 135.64 102.343 135.64C102.341 135.64 102.34 135.64 102.339 135.64C102.338 135.64 102.336 135.64 102.335 135.64C102.334 135.64 102.333 135.64 102.331 135.64C102.33 135.64 102.329 135.64 102.328 135.64C102.326 135.64 102.325 135.64 102.324 135.64C102.323 135.64 102.321 135.64 102.32 135.64C102.319 135.64 102.318 135.64 102.316 135.64C102.315 135.64 102.314 135.64 102.313 135.64C102.311 135.64 102.31 135.64 102.309 135.64C102.308 135.64 102.306 135.64 102.305 135.64C102.304 135.64 102.303 135.64 102.301 135.64C102.3 135.64 102.299 135.64 102.298 135.64C102.296 135.64 102.295 135.64 102.294 135.64C102.293 135.64 102.291 135.64 102.29 135.64C102.289 135.64 102.288 135.64 102.286 135.64C102.285 135.64 102.284 135.64 102.283 135.64C102.281 135.64 102.28 135.64 102.279 135.64C102.278 135.64 102.276 135.64 102.275 135.64C102.274 135.64 102.273 135.64 102.271 135.64C102.27 135.64 102.269 135.64 102.268 135.64C102.266 135.64 102.265 135.64 102.264 135.64C102.263 135.64 102.261 135.64 102.26 135.64C102.259 135.64 102.258 135.64 102.256 135.64C102.255 135.64 102.254 135.64 102.253 135.64C102.251 135.64 102.25 135.64 102.249 135.64C102.248 135.64 102.246 135.64 102.245 135.64C102.244 135.64 102.243 135.64 102.241 135.64C102.24 135.64 102.239 135.64 102.238 135.64C102.236 135.64 102.235 135.64 102.234 135.64C102.233 135.64 102.231 135.64 102.23 135.64C102.229 135.64 102.228 135.64 102.226 135.64C102.225 135.64 102.224 135.64 102.223 135.64C102.221 135.64 102.22 135.64 102.219 135.64C102.218 135.64 102.216 135.64 102.215 135.64C102.214 135.64 102.213 135.64 102.211 135.64C102.21 135.64 102.209 135.64 102.208 135.64C102.206 135.64 102.205 135.64 102.204 135.64C102.203 135.64 102.201 135.64 102.2 135.64C102.199 135.64 102.198 135.64 102.196 135.64C102.195 135.64 102.194 135.64 102.193 135.64C102.191 135.64 102.19 135.64 102.189 135.64C102.188 135.64 102.186 135.64 102.185 135.64C102.184 135.64 102.183 135.64 102.181 135.64C102.18 135.64 102.179 135.64 102.178 135.64C102.176 135.64 102.175 135.64 102.174 135.64C102.173 135.64 102.171 135.64 102.17 135.64C102.169 135.64 102.168 135.64 102.166 135.64C102.165 135.64 102.164 135.64 102.163 135.64C102.161 135.64 102.16 135.64 102.159 135.64C102.158 135.64 102.156 135.64 102.155 135.64C102.154 135.64 102.153 135.64 102.151 135.64C102.15 135.64 102.149 135.64 102.148 135.64C102.146 135.64 102.145 135.64 102.144 135.64C102.143 135.64 102.141 135.64 102.14 135.64C102.139 135.64 102.138 135.64 102.136 135.64C102.135 135.64 102.134 135.64 102.133 135.64C102.131 135.64 102.13 135.64 102.129 135.64C102.128 135.64 102.126 135.64 102.125 135.64C102.124 135.64 102.123 135.64 102.121 135.64C102.12 135.64 102.119 135.64 102.118 135.64C102.116 135.64 102.115 135.64 102.114 135.64C102.113 135.64 102.111 135.64 102.11 135.64C102.109 135.64 102.108 135.64 102.106 135.64C102.105 135.64 102.104 135.64 102.103 135.64C102.101 135.64 102.1 135.64 102.099 135.64C102.098 135.64 102.096 135.64 102.095 135.64C102.094 135.64 102.093 135.64 102.091 135.64C102.09 135.64 102.089 135.64 102.088 135.64C102.086 135.64 102.085 135.64 102.084 135.64C102.083 135.64 102.081 135.64 102.08 135.64C102.079 135.64 102.078 135.64 102.076 135.64C102.075 135.64 102.074 135.64 102.073 135.64C102.071 135.64 102.07 135.64 102.069 135.64C102.068 135.64 102.066 135.64 102.065 135.64C102.064 135.64 102.063 135.64 102.061 135.64C102.06 135.64 102.059 135.64 102.058 135.64C102.056 135.64 102.055 135.64 102.054 135.64C102.053 135.64 102.051 135.64 102.05 135.64C102.049 135.64 102.048 135.64 102.046 135.64C102.045 135.64 102.044 135.64 102.043 135.64C102.041 135.64 102.04 135.64 102.039 135.64C102.038 135.64 102.036 135.64 102.035 135.64C102.034 135.64 102.033 135.64 102.031 135.64C102.03 135.64 102.029 135.64 102.028 135.64C102.026 135.64 102.025 135.64 102.024 135.64C102.023 135.64 102.021 135.64 102.02 135.64C102.019 135.64 102.018 135.64 102.016 135.64C102.015 135.64 102.014 135.64 102.013 135.64C102.011 135.64 102.01 135.64 102.009 135.64C102.008 135.64 102.006 135.64 102.005 135.64C102.004 135.64 102.003 135.64 102.001 135.64C102 135.64 101.999 135.64 101.998 135.64C101.996 135.64 101.995 135.64 101.994 135.64C101.993 135.64 101.991 135.64 101.99 135.64C101.989 135.64 101.988 135.64 101.986 135.64C101.985 135.64 101.984 135.64 101.983 135.64C101.981 135.64 101.98 135.64 101.979 135.64C101.978 135.64 101.976 135.64 101.975 135.64C101.974 135.64 101.973 135.64 101.971 135.64C101.97 135.64 101.969 135.64 101.968 135.64C101.966 135.64 101.965 135.64 101.964 135.64C101.963 135.64 101.961 135.64 101.96 135.64C101.959 135.64 101.958 135.64 101.956 135.64C101.955 135.64 101.954 135.64 101.953 135.64C101.951 135.64 101.95 135.64 101.949 135.64C101.948 135.64 101.946 135.64 101.945 135.64C101.944 135.64 101.943 135.64 101.941 135.64C101.94 135.64 101.939 135.64 101.938 135.64C101.936 135.64 101.935 135.64 101.934 135.64C101.933 135.64 101.931 135.64 101.93 135.64C101.929 135.64 101.928 135.64 101.926 135.64C101.925 135.64 101.924 135.64 101.923 135.64C101.921 135.64 101.92 135.64 101.919 135.64C101.918 135.64 101.916 135.64 101.915 135.64C101.914 135.64 101.913 135.64 101.911 135.64C101.91 135.64 101.909 135.64 101.908 135.64C101.906 135.64 101.905 135.64 101.904 135.64C101.903 135.64 101.901 135.64 101.9 135.64C101.899 135.64 101.898 135.64 101.896 135.64C101.895 135.64 101.894 135.64 101.893 135.64C101.891 135.64 101.89 135.64 101.889 135.64C101.888 135.64 101.886 135.64 101.885 135.64C101.884 135.64 101.883 135.64 101.881 135.64C101.88 135.64 101.879 135.64 101.878 135.64C101.876 135.64 101.875 135.64 101.874 135.64C101.873 135.64 101.871 135.64 101.87 135.64C101.869 135.64 101.868 135.64 101.866 135.64C101.865 135.64 101.864 135.64 101.863 135.64C101.861 135.64 101.86 135.64 101.859 135.64C101.858 135.64 101.856 135.64 101.855 135.64C101.854 135.64 101.853 135.64 101.851 135.64C101.85 135.64 101.849 135.64 101.848 135.64C101.846 135.64 101.845 135.64 101.844 135.64C101.843 135.64 101.841 135.64 101.84 135.64C101.839 135.64 101.838 135.64 101.836 135.64C101.835 135.64 101.834 135.64 101.833 135.64C101.831 135.64 101.83 135.64 101.829 135.64C101.828 135.64 101.826 135.64 101.825 135.64C101.824 135.64 101.823 135.64 101.821 135.64C101.82 135.64 101.819 135.64 101.818 135.64C101.816 135.64 101.815 135.64 101.814 135.64C101.813 135.64 101.811 135.64 101.81 135.64C101.809 135.64 101.808 135.64 101.806 135.64C101.805 135.64 101.804 135.64 101.803 135.64C101.801 135.64 101.8 135.64 101.799 135.64C101.798 135.64 101.796 135.64 101.795 135.64C101.794 135.64 101.793 135.64 101.791 135.64C101.79 135.64 101.789 135.64 101.788 135.64C101.786 135.64 101.785 135.64 101.784 135.64C101.783 135.64 101.781 135.64 101.78 135.64C101.779 135.64 101.778 135.64 101.776 135.64C101.775 135.64 101.774 135.64 101.773 135.64C101.771 135.64 101.77 135.64 101.769 135.64C101.768 135.64 101.766 135.64 101.765 135.64C101.764 135.64 101.763 135.64 101.761 135.64C101.76 135.64 101.759 135.64 101.758 135.64C101.756 135.64 101.755 135.64 101.754 135.64C101.753 135.64 101.751 135.64 101.75 135.64C101.749 135.64 101.748 135.64 101.746 135.64C101.745 135.64 101.744 135.64 101.743 135.64C101.741 135.64 101.74 135.64 101.739 135.64C101.738 135.64 101.736 135.64 101.735 135.64C101.734 135.64 101.733 135.64 101.731 135.64C101.73 135.64 101.729 135.64 101.728 135.64C101.726 135.64 101.725 135.64 101.724 135.64C101.723 135.64 101.721 135.64 101.72 135.64C101.719 135.64 101.718 135.64 101.716 135.64C101.715 135.64 101.714 135.64 101.713 135.64C101.711 135.64 101.71 135.64 101.709 135.64C101.708 135.64 101.706 135.64 101.705 135.64C101.704 135.64 101.703 135.64 101.701 135.64C101.7 135.64 101.699 135.64 101.698 135.64C101.696 135.64 101.695 135.64 101.694 135.64C101.693 135.64 101.691 135.64 101.69 135.64C101.689 135.64 101.688 135.64 101.686 135.64C101.685 135.64 101.684 135.64 101.683 135.64C101.681 135.64 101.68 135.64 101.679 135.64C101.678 135.64 101.676 135.64 101.675 135.64C101.674 135.64 101.673 135.64 101.671 135.64C101.67 135.64 101.669 135.64 101.668 135.64C101.666 135.64 101.665 135.64 101.664 135.64C101.663 135.64 101.661 135.64 101.66 135.64C101.659 135.64 101.658 135.64 101.656 135.64C101.655 135.64 101.654 135.64 101.653 135.64C101.651 135.64 101.65 135.64 101.649 135.64C101.648 135.64 101.646 135.64 101.645 135.64C101.644 135.64 101.643 135.64 101.641 135.64C101.64 135.64 101.639 135.64 101.638 135.64C101.636 135.64 101.635 135.64 101.634 135.64C101.633 135.64 101.631 135.64 101.63 135.64C101.629 135.64 101.628 135.64 101.626 135.64C101.625 135.64 101.624 135.64 101.623 135.64C101.621 135.64 101.62 135.64 101.619 135.64C101.618 135.64 101.616 135.64 101.615 135.64C101.614 135.64 101.613 135.64 101.611 135.64C101.61 135.64 101.609 135.64 101.608 135.64C101.606 135.64 101.605 135.64 101.604 135.64C101.603 135.64 101.601 135.64 101.6 135.64C101.599 135.64 101.598 135.64 101.596 135.64C101.595 135.64 101.594 135.64 101.593 135.64C101.591 135.64 101.59 135.64 101.589 135.64C101.588 135.64 101.586 135.64 101.585 135.64C101.584 135.64 101.583 135.64 101.581 135.64C101.58 135.64 101.579 135.64 101.578 135.64C101.576 135.64 101.575 135.64 101.574 135.64C101.573 135.64 101.571 135.64 101.57 135.64C101.569 135.64 101.568 135.64 101.566 135.64C101.565 135.64 101.564 135.64 101.562 135.64C101.561 135.64 101.56 135.64 101.559 135.64C101.558 135.64 101.556 135.64 101.555 135.64C101.554 135.64 101.553 135.64 101.551 135.64C101.55 135.64 101.549 135.64 101.548 135.64C101.546 135.64 101.545 135.64 101.544 135.64C101.543 135.64 101.541 135.64 101.54 135.64C101.539 135.64 101.538 135.64 101.536 135.64C101.535 135.64 101.534 135.64 101.533 135.64C101.531 135.64 101.53 135.64 101.529 135.64C101.528 135.64 101.526 135.64 101.525 135.64C101.524 135.64 101.523 135.64 101.521 135.64C101.52 135.64 101.519 135.64 101.518 135.64C101.516 135.64 101.515 135.64 101.514 135.64C101.513 135.64 101.511 135.64 101.51 135.64C101.509 135.64 101.508 135.64 101.506 135.64C101.505 135.64 101.504 135.64 101.503 135.64C101.501 135.64 101.5 135.64 101.499 135.64C101.498 135.64 101.496 135.64 101.495 135.64C101.494 135.64 101.493 135.64 101.491 135.64C101.49 135.64 101.489 135.64 101.488 135.64C101.486 135.64 101.485 135.64 101.484 135.64C101.483 135.64 101.481 135.64 101.48 135.64C101.479 135.64 101.478 135.64 101.476 135.64C101.475 135.64 101.474 135.64 101.473 135.64C101.471 135.64 101.47 135.64 101.469 135.64C101.468 135.64 101.466 135.64 101.465 135.64C101.464 135.64 101.463 135.64 101.461 135.64C101.46 135.64 101.459 135.64 101.458 135.64C101.456 135.64 101.455 135.64 101.454 135.64C101.452 135.64 101.451 135.64 101.45 135.64C101.449 135.64 101.448 135.64 101.446 135.64C101.445 135.64 101.444 135.64 101.443 135.64C101.441 135.64 101.44 135.64 101.439 135.64C101.438 135.64 101.436 135.64 101.435 135.64C101.434 135.64 101.433 135.64 101.431 135.64C101.43 135.64 101.429 135.64 101.428 135.64C101.426 135.64 101.425 135.64 101.424 135.64C101.423 135.64 101.421 135.64 101.42 135.64C101.419 135.64 101.418 135.64 101.416 135.64C101.415 135.64 101.414 135.64 101.413 135.64C101.411 135.64 101.41 135.64 101.409 135.64C101.408 135.64 101.406 135.64 101.405 135.64C101.404 135.64 101.403 135.64 101.401 135.64C101.4 135.64 101.399 135.64 101.398 135.64C101.396 135.64 101.395 135.64 101.394 135.64C101.393 135.64 101.391 135.64 101.39 135.64C101.389 135.64 101.388 135.64 101.386 135.64C101.385 135.64 101.384 135.64 101.383 135.64C101.381 135.64 101.38 135.64 101.379 135.64C101.378 135.64 101.376 135.64 101.375 135.64C101.374 135.64 101.373 135.64 101.371 135.64C101.37 135.64 101.369 135.64 101.368 135.64C101.366 135.64 101.365 135.64 101.364 135.64C101.363 135.64 101.361 135.64 101.36 135.64C101.359 135.64 101.358 135.64 101.356 135.64C101.355 135.64 101.354 135.64 101.353 135.64C101.351 135.64 101.35 135.64 101.349 135.64C101.348 135.64 101.346 135.64 101.345 135.64C101.344 135.64 101.342 135.64 101.341 135.64C101.34 135.64 101.339 135.64 101.338 135.64C101.336 135.64 101.335 135.64 101.334 135.64C101.333 135.64 101.331 135.64 101.33 135.64C101.329 135.64 101.327 135.64 101.326 135.64C101.325 135.64 101.324 135.64 101.323 135.64C101.321 135.64 101.32 135.64 101.319 135.64C101.318 135.64 101.316 135.64 101.315 135.64C101.314 135.64 101.312 135.64 101.311 135.64C101.31 135.64 101.309 135.64 101.308 135.64C101.306 135.64 101.305 135.64 101.304 135.64C101.303 135.64 101.301 135.64 101.3 135.64C101.299 135.64 101.298 135.64 101.296 135.64C101.295 135.64 101.294 135.64 101.293 135.64C101.291 135.64 101.29 135.64 101.289 135.64C101.288 135.64 101.286 135.64 101.285 135.64C101.284 135.64 101.283 135.64 101.281 135.64C101.28 135.64 101.279 135.64 101.278 135.64C101.276 135.64 101.275 135.64 101.274 135.64C101.273 135.64 101.271 135.64 101.27 135.64C101.269 135.64 101.268 135.64 101.266 135.64C101.265 135.64 101.264 135.64 101.263 135.64C101.261 135.64 101.26 135.64 101.259 135.64C101.258 135.64 101.256 135.64 101.255 135.64C101.254 135.64 101.253 135.64 101.251 135.64C101.25 135.64 101.249 135.64 101.248 135.64C101.246 135.64 101.245 135.64 101.244 135.64C101.243 135.64 101.241 135.64 101.24 135.64C101.239 135.64 101.238 135.64 101.236 135.64C101.235 135.64 101.234 135.64 101.232 135.64C101.231 135.64 101.23 135.64 101.229 135.64C101.228 135.64 101.226 135.64 101.225 135.64C101.224 135.64 101.223 135.64 101.221 135.64C101.22 135.64 101.219 135.64 101.217 135.64C101.216 135.64 101.215 135.64 101.214 135.64C101.213 135.64 101.211 135.64 101.21 135.64C101.209 135.64 101.208 135.64 101.206 135.64C101.205 135.64 101.204 135.64 101.202 135.64C101.201 135.64 101.2 135.64 101.199 135.64C101.198 135.64 101.196 135.64 101.195 135.64C101.194 135.64 101.193 135.64 101.191 135.64C101.19 135.64 101.189 135.64 101.188 135.64C101.186 135.64 101.185 135.64 101.184 135.64C101.183 135.64 101.181 135.64 101.18 135.64C101.179 135.64 101.178 135.64 101.176 135.64C101.175 135.64 101.174 135.64 101.173 135.64C101.171 135.64 101.17 135.64 101.169 135.64C101.168 135.64 101.166 135.64 101.165 135.64C101.164 135.64 101.163 135.64 101.161 135.64C101.16 135.64 101.159 135.64 101.158 135.64C101.156 135.64 101.155 135.64 101.154 135.64C101.153 135.64 101.151 135.64 101.15 135.64C101.149 135.64 101.148 135.64 101.146 135.64C101.145 135.64 101.144 135.64 101.143 135.64C101.141 135.64 101.14 135.64 101.139 135.64C101.137 135.64 101.136 135.64 101.135 135.64C101.134 135.64 101.133 135.64 101.131 135.64C101.13 135.64 101.129 135.64 101.128 135.64C101.126 135.64 101.125 135.64 101.124 135.64C101.122 135.64 101.121 135.64 101.12 135.64C101.119 135.64 101.118 135.64 101.116 135.64C101.115 135.64 101.114 135.64 101.113 135.64C101.111 135.64 101.11 135.64 101.109 135.64C101.107 135.64 101.106 135.64 101.105 135.64C101.104 135.64 101.103 135.64 101.101 135.64C101.1 135.64 101.099 135.64 101.098 135.64C101.096 135.64 101.095 135.64 101.094 135.64C101.092 135.64 101.091 135.64 101.09 135.64C101.089 135.64 101.088 135.64 101.086 135.64C101.085 135.64 101.084 135.64 101.083 135.64C101.081 135.64 101.08 135.64 101.079 135.64C101.077 135.64 101.076 135.64 101.075 135.64C101.074 135.64 101.073 135.64 101.071 135.64C101.07 135.64 101.069 135.64 101.068 135.64C101.066 135.64 101.065 135.64 101.064 135.64C101.062 135.64 101.061 135.64 101.06 135.64C101.059 135.64 101.058 135.64 101.056 135.64C101.055 135.64 101.054 135.64 101.053 135.64C101.051 135.64 101.05 135.64 101.049 135.64C101.048 135.64 101.046 135.64 101.045 135.64C101.044 135.64 101.043 135.64 101.041 135.64C101.04 135.64 101.039 135.64 101.038 135.64C101.036 135.64 101.035 135.64 101.034 135.64C101.033 135.64 101.031 135.64 101.03 135.64C101.029 135.64 101.027 135.64 101.026 135.64C101.025 135.64 101.024 135.64 101.023 135.64C101.021 135.64 101.02 135.64 101.019 135.64C101.018 135.64 101.016 135.64 101.015 135.64C101.014 135.64 101.012 135.64 101.011 135.64C101.01 135.64 101.009 135.64 101.008 135.64C101.006 135.64 101.005 135.64 101.004 135.64C101.003 135.64 101.001 135.64 101 135.64C100.999 135.64 100.997 135.64 100.996 135.64C100.995 135.64 100.994 135.64 100.993 135.64C100.991 135.64 100.99 135.64 100.989 135.64C100.988 135.64 100.986 135.64 100.985 135.64C100.984 135.64 100.982 135.64 100.981 135.64C100.98 135.64 100.979 135.64 100.978 135.64C100.976 135.64 100.975 135.64 100.974 135.64C100.973 135.64 100.971 135.64 100.97 135.64C100.969 135.64 100.967 135.64 100.966 135.64C100.965 135.64 100.964 135.64 100.963 135.64C100.961 135.64 100.96 135.64 100.959 135.64C100.958 135.64 100.956 135.64 100.955 135.64C100.954 135.64 100.952 135.64 100.951 135.64C100.95 135.64 100.949 135.64 100.948 135.64C100.946 135.64 100.945 135.64 100.944 135.64C100.943 135.64 100.941 135.64 100.94 135.64C100.939 135.64 100.938 135.64 100.936 135.64C100.935 135.64 100.934 135.64 100.932 135.64C100.931 135.64 100.93 135.64 100.929 135.64C100.928 135.64 100.926 135.64 100.925 135.64C100.924 135.64 100.923 135.64 100.921 135.64C100.92 135.64 100.919 135.64 100.917 135.64C100.916 135.64 100.915 135.64 100.914 135.64C100.913 135.64 100.911 135.64 100.91 135.64C100.909 135.64 100.908 135.64 100.906 135.64C100.905 135.64 100.904 135.64 100.902 135.64C100.901 135.64 100.9 135.64 100.899 135.64C100.898 135.64 100.896 135.64 100.895 135.64C100.894 135.64 100.893 135.64 100.891 135.64C100.89 135.64 100.889 135.64 100.887 135.64C100.886 135.64 100.885 135.64 100.884 135.64C100.883 135.64 100.881 135.64 100.88 135.64V137.64ZM102.905 137.635C109.126 136.98 114.996 135.018 120.506 132.425L119.654 130.615C114.284 133.142 108.634 135.02 102.695 135.645L102.905 137.635ZM120.487 132.433C141.637 122.997 156.6 101.527 156.6 76.48H154.6C154.6 100.713 140.123 121.483 119.673 130.607L120.487 132.433ZM156.6 76.48C156.6 59.5627 149.766 44.2772 138.717 32.9032L137.283 34.2968C147.994 45.3228 154.6 60.1173 154.6 76.48H156.6ZM102.993 94.4656C100.58 95.6719 97.8546 96.28 95.12 96.28V98.28C98.1454 98.28 101.18 97.6081 103.887 96.2544L102.993 94.4656ZM95.12 96.28H-6.32V98.28H95.12V96.28ZM-5.32 97.28V56H-7.32V97.28H-5.32ZM-6.32 57H95.12V55H-6.32V57ZM95.12 57C101.835 57 106.393 60.0475 108.813 62.4671L110.227 61.0529C107.527 58.3526 102.485 55 95.12 55V57ZM108.767 62.4185C110.967 64.9322 114.6 69.4964 114.6 76.48H116.6C116.6 68.7435 112.553 63.7078 110.273 61.1015L108.767 62.4185ZM114.6 76.48C114.6 84.4087 110.348 91.0937 103.023 94.4509L103.857 96.2691C111.892 92.5863 116.6 85.1913 116.6 76.48H114.6ZM336.55 136.64L336.445 135.645L334.998 135.798L335.659 137.094L336.55 136.64ZM353.83 131.84L353.416 130.93L353.404 130.935L353.83 131.84ZM187.75 16V15H186.75V16H187.75ZM187.75 240.32H186.75V241.32H187.75V240.32ZM227.43 240.32V241.32H228.43V240.32H227.43ZM227.43 137.28V136.28H226.43V137.28H227.43ZM301.35 156.48L300.486 156.984L300.493 156.994L301.35 156.48ZM302.31 158.08L303.2 157.625L303.185 157.595L303.168 157.566L302.31 158.08ZM323.75 200L324.642 199.547L324.64 199.545L323.75 200ZM344.23 240.32L343.338 240.773L343.616 241.32H344.23V240.32ZM389.03 240.32V241.32H390.648L389.924 239.873L389.03 240.32ZM368.87 200L369.764 199.553L369.761 199.546L368.87 200ZM227.43 97.28H226.43V98.28H227.43V97.28ZM227.43 56V55H226.43V56H227.43ZM343.27 62.08L343.977 61.3729L343.27 62.08ZM337.19 95.36L336.805 94.4369L336.774 94.4502L336.743 94.4656L337.19 95.36ZM336.655 137.635C342.844 136.983 348.713 135.353 354.256 132.745L353.404 130.935C348.067 133.447 342.416 135.017 336.445 135.645L336.655 137.635ZM354.244 132.75C375.709 122.993 390.35 101.525 390.35 76.8H388.35C388.35 100.715 374.191 121.487 353.416 130.93L354.244 132.75ZM390.35 76.8C390.35 59.8906 383.522 44.2775 372.457 33.2129L371.043 34.6271C381.738 45.3225 388.35 60.4293 388.35 76.8H390.35ZM372.457 33.2129C361.404 22.1601 346.115 15 328.87 15V17C345.545 17 360.336 23.9199 371.043 34.6271L372.457 33.2129ZM328.87 15H187.75V17H328.87V15ZM186.75 16V240.32H188.75V16H186.75ZM187.75 241.32H227.43V239.32H187.75V241.32ZM228.43 240.32V137.28H226.43V240.32H228.43ZM227.43 138.28H267.43V136.28H227.43V138.28ZM267.43 138.28C281.473 138.28 293.945 145.77 300.486 156.984L302.214 155.976C295.315 144.15 282.187 136.28 267.43 136.28V138.28ZM300.493 156.994L301.453 158.594L303.168 157.566L302.207 155.965L300.493 156.994ZM301.42 158.535L322.86 200.455L324.64 199.545L303.2 157.625L301.42 158.535ZM322.858 200.453L343.338 240.773L345.122 239.867L324.642 199.547L322.858 200.453ZM344.23 241.32H389.03V239.32H344.23V241.32ZM389.924 239.873L369.764 199.553L367.976 200.447L388.136 240.767L389.924 239.873ZM369.761 199.546L337.441 136.186L335.659 137.094L367.979 200.454L369.761 199.546ZM228.43 97.28V56H226.43V97.28H228.43ZM227.43 57H328.87V55H227.43V57ZM328.87 57C335.551 57 340.112 60.3361 342.563 62.7871L343.977 61.3729C341.308 58.7039 336.269 55 328.87 55V57ZM342.563 62.7871C344.694 64.9181 348.35 69.7987 348.35 76.8H350.35C350.35 69.0812 346.326 63.7219 343.977 61.3729L342.563 62.7871ZM348.35 76.8C348.35 84.4244 344.087 91.4027 336.805 94.4369L337.575 96.2831C345.652 92.9173 350.35 85.1756 350.35 76.8H348.35ZM336.743 94.4656C334.33 95.6719 331.605 96.28 328.87 96.28V98.28C331.895 98.28 334.93 97.6081 337.637 96.2544L336.743 94.4656ZM328.87 96.28H227.43V98.28H328.87V96.28ZM525.5 15.32C463.186 15.32 412.82 65.6896 412.82 128.32H414.82C414.82 66.7904 464.294 17.32 525.5 17.32V15.32ZM412.82 128.32C412.82 190.632 463.188 241 525.5 241V239C464.292 239 414.82 189.528 414.82 128.32H412.82ZM525.5 241C588.13 241 638.5 190.634 638.5 128.32H636.5C636.5 189.526 587.03 239 525.5 239V241ZM638.5 128.32C638.5 65.6877 588.132 15.32 525.5 15.32V17.32C587.028 17.32 636.5 66.7923 636.5 128.32H638.5ZM525.5 199.32C486.375 199.32 454.5 167.451 454.5 128H452.5C452.5 168.549 485.265 201.32 525.5 201.32V199.32ZM454.5 128C454.5 88.8723 486.372 57 525.5 57V55C485.268 55 452.5 87.7677 452.5 128H454.5ZM525.5 57C564.628 57 596.5 88.8723 596.5 128H598.5C598.5 87.7677 565.732 55 525.5 55V57ZM596.5 128C596.5 167.451 564.625 199.32 525.5 199.32V201.32C565.735 201.32 598.5 168.549 598.5 128H596.5ZM662.125 16.32V15.32H661.125V16.32H662.125ZM662.125 240H661.125V241H662.125V240ZM852.845 207.36L852.187 206.607L852.161 206.629L852.138 206.653L852.845 207.36ZM859.245 200.32L860.004 200.971L860.006 200.969L859.245 200.32ZM701.805 200.32H700.805V201.32H701.805V200.32ZM701.805 56V55H700.805V56H701.805ZM774.125 15.32H662.125V17.32H774.125V15.32ZM661.125 16.32V240H663.125V16.32H661.125ZM662.125 241H774.125V239H662.125V241ZM774.125 241C805.121 241 833.213 228.407 853.552 208.067L852.138 206.653C832.157 226.633 804.569 239 774.125 239V241ZM853.504 208.113C856.135 205.81 858.137 203.149 860.004 200.971L858.486 199.669C856.513 201.971 854.675 204.43 852.187 206.607L853.504 208.113ZM860.006 200.969C876.796 181.273 886.805 155.764 886.805 128H884.805C884.805 155.276 874.974 180.327 858.484 199.671L860.006 200.969ZM886.805 128C886.805 65.6858 836.115 15.32 774.125 15.32V17.32C835.015 17.32 884.805 66.7941 884.805 128H886.805ZM774.125 199.32H701.805V201.32H774.125V199.32ZM702.805 200.32V56H700.805V200.32H702.805ZM701.805 57H774.125V55H701.805V57ZM774.125 57C812.93 57 844.805 88.8694 844.805 128H846.805C846.805 87.7706 814.04 55 774.125 55V57ZM844.805 128C844.805 167.454 812.927 199.32 774.125 199.32V201.32C814.043 201.32 846.805 168.546 846.805 128H844.805ZM1102.06 16V15H1101.06V16H1102.06ZM957.742 16H958.742V15H957.742V16ZM918.062 16V15H917.062V16H918.062ZM1142.06 16H1143.06V15H1142.06V16ZM1101.06 16V128.32H1103.06V16H1101.06ZM1101.06 128.32C1101.06 167.448 1069.19 199.32 1030.06 199.32V201.32C1070.29 201.32 1103.06 168.552 1103.06 128.32H1101.06ZM1030.06 199.32C990.612 199.32 958.742 167.445 958.742 128.32H956.742C956.742 168.555 989.513 201.32 1030.06 201.32V199.32ZM958.742 128.32V16H956.742V128.32H958.742ZM957.742 15H918.062V17H957.742V15ZM917.062 16V128.32H919.062V16H917.062ZM917.062 128.32C917.062 190.63 967.428 241.32 1030.06 241.32V239.32C968.537 239.32 919.062 189.53 919.062 128.32H917.062ZM1030.06 241.32C1092.37 241.32 1143.06 190.632 1143.06 128.32H1141.06C1141.06 189.528 1091.27 239.32 1030.06 239.32V241.32ZM1143.06 128.32V16H1141.06V128.32H1143.06ZM1142.06 15H1102.06V17H1142.06V15ZM1394.8 56V57H1395.8V56H1394.8ZM1394.8 16H1395.8V15H1394.8V16ZM1394.8 240.32V241.32H1395.8V240.32H1394.8ZM1394.8 200.32H1395.8V199.32H1394.8V200.32ZM1282.8 57H1394.8V55H1282.8V57ZM1395.8 56V16H1393.8V56H1395.8ZM1394.8 15H1282.8V17H1394.8V15ZM1282.8 15C1220.16 15 1169.8 65.6914 1169.8 128.32H1171.8C1171.8 66.7886 1221.28 17 1282.8 17V15ZM1169.8 128.32C1169.8 190.63 1220.17 241.32 1282.8 241.32V239.32C1221.27 239.32 1171.8 189.53 1171.8 128.32H1169.8ZM1282.8 241.32H1394.8V239.32H1282.8V241.32ZM1395.8 240.32V200.32H1393.8V240.32H1395.8ZM1394.8 199.32H1282.8V201.32H1394.8V199.32ZM1282.8 199.32C1243.35 199.32 1211.48 167.445 1211.48 128.32H1209.48C1209.48 168.555 1242.25 201.32 1282.8 201.32V199.32ZM1211.48 128.32C1211.48 88.8723 1243.35 57 1282.8 57V55C1242.25 55 1209.48 87.7677 1209.48 128.32H1211.48ZM1426.81 16.32V15.32H1425.81V16.32H1426.81ZM1426.81 56.32H1425.81V57.32H1426.81V56.32ZM1518.65 56.32H1519.65V55.32H1518.65V56.32ZM1518.65 240.32H1517.65V241.32H1518.65V240.32ZM1558.65 240.32V241.32H1559.65V240.32H1558.65ZM1558.65 56.32V55.32H1557.65V56.32H1558.65ZM1650.49 56.32V57.32H1651.49V56.32H1650.49ZM1650.49 16.32H1651.49V15.32H1650.49V16.32ZM1425.81 16.32V56.32H1427.81V16.32H1425.81ZM1426.81 57.32H1518.65V55.32H1426.81V57.32ZM1517.65 56.32V240.32H1519.65V56.32H1517.65ZM1518.65 241.32H1558.65V239.32H1518.65V241.32ZM1559.65 240.32V56.32H1557.65V240.32H1559.65ZM1558.65 57.32H1650.49V55.32H1558.65V57.32ZM1651.49 56.32V16.32H1649.49V56.32H1651.49ZM1650.49 15.32H1426.81V17.32H1650.49V15.32Z" fill="#6E7170"/>
<path d="M-103 887.32V886.32H-104V887.32H-103ZM-103 1111H-104V1112H-103V1111ZM87.72 1078.36L87.0615 1077.61L87.0365 1077.63L87.0129 1077.65L87.72 1078.36ZM94.12 1071.32L94.8793 1071.97L94.881 1071.97L94.12 1071.32ZM-63.32 927.32V926.32H-64.32V927.32H-63.32ZM-63.32 1071.32H-64.32V1072.32H-63.32V1071.32ZM-104 887.32V1111H-102V887.32H-104ZM-103 1112H9V1110H-103V1112ZM9 1112C39.9964 1112 68.0876 1099.41 88.4271 1079.07L87.0129 1077.65C67.0324 1097.63 39.4436 1110 9 1110V1112ZM88.3785 1079.11C91.0103 1076.81 93.0123 1074.15 94.8793 1071.97L93.3607 1070.67C91.3878 1072.97 89.5497 1075.43 87.0615 1077.61L88.3785 1079.11ZM94.881 1071.97C111.671 1052.27 121.68 1026.76 121.68 999H119.68C119.68 1026.28 109.849 1051.33 93.359 1070.67L94.881 1071.97ZM121.68 999C121.68 936.686 70.9904 886.32 9 886.32V888.32C69.8896 888.32 119.68 937.794 119.68 999H121.68ZM9 886.32H-103V888.32H9V886.32ZM-63.32 928.32H9V926.32H-63.32V928.32ZM9 928.32C47.8077 928.32 79.68 960.192 79.68 999H81.68C81.68 959.088 48.9123 926.32 9 926.32V928.32ZM79.68 999C79.68 1038.45 47.8019 1070.32 9 1070.32V1072.32C48.9181 1072.32 81.68 1039.55 81.68 999H79.68ZM9 1070.32H-63.32V1072.32H9V1070.32ZM-62.32 1071.32V927.32H-64.32V1071.32H-62.32ZM376.617 927V928H377.617V927H376.617ZM376.617 887H377.617V886H376.617V887ZM376.617 1111.32V1112.32H377.617V1111.32H376.617ZM376.617 1071.32H377.617V1070.32H376.617V1071.32ZM192.617 1008.28V1007.28H191.617V1008.28H192.617ZM336.617 1008.28V1009.28H337.617V1008.28H336.617ZM336.617 968.28H337.617V967.28H336.617V968.28ZM192.617 968.28H191.617V969.28H192.617V968.28ZM213.098 928H376.617V926H213.098V928ZM377.617 927V887H375.617V927H377.617ZM376.617 886H213.098V888H376.617V886ZM213.098 886C179.255 886 151.938 913.658 151.938 947.8H153.938C153.938 914.742 180.38 888 213.098 888V886ZM151.938 947.8V1050.52H153.938V947.8H151.938ZM151.938 1050.52C151.938 1084.66 179.255 1112.32 213.098 1112.32V1110.32C180.38 1110.32 153.938 1083.58 153.938 1050.52H151.938ZM213.098 1112.32H376.617V1110.32H213.098V1112.32ZM377.617 1111.32V1071.32H375.617V1111.32H377.617ZM376.617 1070.32H213.098V1072.32H376.617V1070.32ZM213.098 1070.32C202.46 1070.32 193.617 1061.5 193.617 1050.52H191.617C191.617 1062.58 201.335 1072.32 213.098 1072.32V1070.32ZM193.617 1050.52V1008.28H191.617V1050.52H193.617ZM192.617 1009.28H336.617V1007.28H192.617V1009.28ZM337.617 1008.28V968.28H335.617V1008.28H337.617ZM336.617 967.28H192.617V969.28H336.617V967.28ZM193.617 968.28V947.8H191.617V968.28H193.617ZM193.617 947.8C193.617 936.822 202.46 928 213.098 928V926C201.335 926 191.617 935.738 191.617 947.8H193.617ZM620.395 948.76V949.76H621.395V948.76H620.395ZM419.435 983.32L418.607 983.881L418.611 983.887L418.616 983.893L419.435 983.32ZM427.435 992.6L426.728 993.307L427.435 992.6ZM448.555 1040.28H449.555V1039.28H448.555V1040.28ZM408.875 1040.28V1039.28H407.875V1040.28H408.875ZM604.395 995.48L603.563 996.035L603.59 996.076L603.622 996.114L604.395 995.48ZM601.835 992.6L601.088 993.264L601.107 993.286L601.128 993.307L601.835 992.6ZM580.715 948.76H579.715V949.76H580.715V948.76ZM621.395 948.76V947.8H619.395V948.76H621.395ZM621.395 947.8C621.395 913.655 594.074 886 559.915 886V888C592.956 888 619.395 914.745 619.395 947.8H621.395ZM559.915 886H469.035V888H559.915V886ZM469.035 886C435.192 886 407.875 913.658 407.875 947.8H409.875C409.875 914.742 436.318 888 469.035 888V886ZM407.875 947.8V948.76H409.875V947.8H407.875ZM407.875 948.76C407.875 961.764 411.777 973.799 418.607 983.881L420.263 982.759C413.653 973.001 409.875 961.356 409.875 948.76H407.875ZM418.616 983.893C420.902 987.16 423.827 990.406 426.728 993.307L428.142 991.893C425.283 989.034 422.448 985.88 420.254 982.747L418.616 983.893ZM426.728 993.307C437.475 1004.05 452.449 1010.56 469.035 1010.56V1008.56C452.981 1008.56 438.515 1002.27 428.142 991.893L426.728 993.307ZM469.035 1010.56H549.675V1008.56H469.035V1010.56ZM549.675 1010.56C566.096 1010.56 579.715 1023.89 579.715 1040.28H581.715C581.715 1022.75 567.174 1008.56 549.675 1008.56V1010.56ZM579.715 1040.28C579.715 1056.67 566.096 1070 549.675 1070V1072C567.174 1072 581.715 1057.81 581.715 1040.28H579.715ZM549.675 1070H479.595V1072H549.675V1070ZM479.595 1070C462.861 1070 449.555 1056.68 449.555 1040.28H447.555C447.555 1057.8 461.769 1072 479.595 1072V1070ZM448.555 1039.28H408.875V1041.28H448.555V1039.28ZM407.875 1040.28C407.875 1079.87 439.68 1112 479.595 1112V1110C440.79 1110 409.875 1078.77 409.875 1040.28H407.875ZM479.595 1112H549.675V1110H479.595V1112ZM549.675 1112C589.267 1112 621.395 1079.87 621.395 1040.28H619.395C619.395 1078.77 588.163 1110 549.675 1110V1112ZM621.395 1040.28C621.395 1023.08 615.552 1007.5 605.168 994.846L603.622 996.114C613.718 1008.42 619.395 1023.56 619.395 1040.28H621.395ZM605.227 994.925C604.521 993.866 603.482 992.833 602.542 991.893L601.128 993.307C602.108 994.287 602.989 995.174 603.563 996.035L605.227 994.925ZM602.582 991.936C589.599 977.329 570.77 968.24 549.675 968.24V970.24C570.18 970.24 588.471 979.071 601.088 993.264L602.582 991.936ZM549.675 968.24H469.035V970.24H549.675V968.24ZM469.035 968.24C458.377 968.24 449.555 959.718 449.555 948.76H447.555C447.555 960.842 457.293 970.24 469.035 970.24V968.24ZM449.555 948.76V947.8H447.555V948.76H449.555ZM449.555 947.8C449.555 936.842 458.377 928.32 469.035 928.32V926.32C457.293 926.32 447.555 935.718 447.555 947.8H449.555ZM469.035 928.32H559.915V926.32H469.035V928.32ZM559.915 928.32C570.903 928.32 579.715 936.852 579.715 947.8H581.715C581.715 935.708 571.967 926.32 559.915 926.32V928.32ZM579.715 947.8V948.76H581.715V947.8H579.715ZM580.715 949.76H620.395V947.76H580.715V949.76ZM692.305 1111V1112H693.305V1111H692.305ZM692.305 887.32H693.305V886.32H692.305V887.32ZM652.625 887.32V886.32H651.625V887.32H652.625ZM652.625 1111H651.625V1112H652.625V1111ZM693.305 1111V887.32H691.305V1111H693.305ZM692.305 886.32H652.625V888.32H692.305V886.32ZM651.625 887.32V1111H653.625V887.32H651.625ZM652.625 1112H692.305V1110H652.625V1112ZM948.5 927V928H949.5V927H948.5ZM948.5 887H949.5V886H948.5V887ZM948.5 1111.32V1112.32H949.5V1111.32H948.5ZM948.5 988.44H949.5V987.44H948.5V988.44ZM836.5 988.44V987.44H835.5V988.44H836.5ZM836.5 1028.44H835.5V1029.44H836.5V1028.44ZM908.5 1028.44H909.5V1027.44H908.5V1028.44ZM908.5 1071.32V1072.32H909.5V1071.32H908.5ZM836.5 928H948.5V926H836.5V928ZM949.5 927V887H947.5V927H949.5ZM948.5 886H836.5V888H948.5V886ZM836.5 886C773.866 886 723.5 936.69 723.5 999H725.5C725.5 937.79 774.974 888 836.5 888V886ZM723.5 999C723.5 1061.63 773.864 1112.32 836.5 1112.32V1110.32C774.976 1110.32 725.5 1060.53 725.5 999H723.5ZM836.5 1112.32H948.5V1110.32H836.5V1112.32ZM949.5 1111.32V988.44H947.5V1111.32H949.5ZM948.5 987.44H836.5V989.44H948.5V987.44ZM835.5 988.44V1028.44H837.5V988.44H835.5ZM836.5 1029.44H908.5V1027.44H836.5V1029.44ZM907.5 1028.44V1071.32H909.5V1028.44H907.5ZM908.5 1070.32H836.5V1072.32H908.5V1070.32ZM836.5 1070.32C797.052 1070.32 765.18 1038.45 765.18 999H763.18C763.18 1039.55 795.948 1072.32 836.5 1072.32V1070.32ZM765.18 999C765.18 959.875 797.049 928 836.5 928V926C795.951 926 763.18 958.765 763.18 999H765.18ZM1164.12 887V886H1163.12V887H1164.12ZM1164.12 1029.72L1163.51 1030.51L1165.12 1031.76V1029.72H1164.12ZM1020.44 918.68L1021.05 917.889L1021.05 917.887L1020.44 918.68ZM980.438 887.96L981.047 887.167L979.438 885.931V887.96H980.438ZM980.438 1111.32H979.438V1112.32H980.438V1111.32ZM1020.44 1111.32V1112.32H1021.44V1111.32H1020.44ZM1020.44 969.24L1021.05 968.449L1019.44 967.203V969.24H1020.44ZM1164.12 1080.28L1163.51 1081.07L1163.51 1081.07L1164.12 1080.28ZM1204.44 1111.32L1203.83 1112.11L1205.44 1113.35V1111.32H1204.44ZM1204.44 887H1205.44V886H1204.44V887ZM1163.12 887V1029.72H1165.12V887H1163.12ZM1164.73 1028.93L1021.05 917.889L1019.83 919.471L1163.51 1030.51L1164.73 1028.93ZM1021.05 917.887L981.047 887.167L979.828 888.753L1019.83 919.473L1021.05 917.887ZM979.438 887.96V1111.32H981.438V887.96H979.438ZM980.438 1112.32H1020.44V1110.32H980.438V1112.32ZM1021.44 1111.32V969.24H1019.44V1111.32H1021.44ZM1019.83 970.031L1163.51 1081.07L1164.73 1079.49L1021.05 968.449L1019.83 970.031ZM1163.51 1081.07L1203.83 1112.11L1205.05 1110.53L1164.73 1079.49L1163.51 1081.07ZM1205.44 1111.32V887H1203.44V1111.32H1205.44ZM1204.44 886H1164.12V888H1204.44V886Z" fill="#6E7170"/>
</svg>
