<svg width="199" height="198" viewBox="0 0 199 198" fill="none" xmlns="http://www.w3.org/2000/svg">
<g clip-path="url(#clip0_322_18)">
<path d="M0.5 172.47C0.5 186.571 11.9306 198 26.0304 198H172.969C187.071 198 198.5 186.569 198.5 172.47V25.5312C198.5 11.4291 187.069 0 172.97 0H26.0312C11.9291 0 0.5 11.4306 0.5 25.5304V172.469V172.47Z" fill="#563D7C"/>
<path d="M82.6066 87.5825V59.5431H107.288C109.639 59.5431 111.905 59.7388 114.088 60.1309C116.27 60.5223 118.202 61.2214 119.881 62.2292C121.559 63.237 122.903 64.6362 123.91 66.4267C124.917 68.218 125.422 70.5128 125.422 73.3103C125.422 78.3477 123.91 81.9859 120.888 84.2243C117.866 86.4634 114.004 87.5825 109.303 87.5825H82.6066ZM56.2455 39.0586V158.941H114.34C119.713 158.941 124.946 158.27 130.039 156.927C135.132 155.583 139.665 153.513 143.639 150.714C147.612 147.916 150.775 144.306 153.126 139.885C155.477 135.463 156.652 130.23 156.652 124.185C156.652 116.685 154.832 110.277 151.195 104.961C147.557 99.6435 142.044 95.9217 134.656 93.7948C140.029 91.2208 144.087 87.9182 146.83 83.8886C149.572 79.859 150.943 74.8223 150.943 68.7772C150.943 63.1806 150.019 58.4796 148.172 54.6735C146.325 50.8682 143.723 47.8178 140.365 45.523C137.007 43.2282 132.977 41.5769 128.276 40.5699C123.575 39.5621 118.37 39.0586 112.661 39.0586H56.2455ZM82.6066 138.457V105.548H111.317C117.026 105.548 121.616 106.863 125.086 109.494C128.556 112.124 130.291 116.518 130.291 122.674C130.291 125.809 129.759 128.383 128.696 130.398C127.632 132.412 126.205 134.008 124.414 135.183C122.623 136.359 120.552 137.198 118.202 137.702C115.85 138.205 113.389 138.457 110.814 138.457H82.6066Z" fill="white"/>
</g>
<defs>
<clipPath id="clip0_322_18">
<rect width="198" height="198" fill="white" transform="translate(0.5)"/>
</clipPath>
</defs>
</svg>
