<svg width="36" height="35" viewBox="0 0 36 35" fill="none" xmlns="http://www.w3.org/2000/svg">
<path d="M23.8856 15.9689V11.5939H19.5106V8.67725H23.8856V4.30225H26.8022V8.67725H31.1772V11.5939H26.8022V15.9689H23.8856ZM29.646 30.6252C26.5106 30.6252 23.4544 29.9325 20.4775 28.547C17.4995 27.1616 14.8624 25.3144 12.566 23.0054C10.2686 20.6963 8.42141 18.0529 7.02433 15.075C5.62627 12.098 4.92725 9.04183 4.92725 5.90641V5.14079C4.92725 4.87343 4.95155 4.61822 5.00016 4.37516H13.5314L14.8804 11.7033L10.7241 15.896C11.745 17.646 13.0273 19.2866 14.5712 20.8179C16.1141 22.3491 17.8092 23.6738 19.6564 24.7918L23.8856 20.5627L31.1772 22.021V30.5522C30.9342 30.5765 30.679 30.595 30.4116 30.6077C30.1443 30.6193 29.8891 30.6252 29.646 30.6252ZM9.3387 13.1252L11.745 10.7189L11.1252 7.29183H7.88037C8.0019 8.28836 8.17204 9.27273 8.39079 10.245C8.60954 11.2172 8.92551 12.1772 9.3387 13.1252ZM22.3908 26.1772C23.3387 26.5904 24.3051 26.9186 25.29 27.1616C26.2738 27.4047 27.2641 27.5627 28.2606 27.6356V24.4272L24.8335 23.7345L22.3908 26.1772Z" fill="#FDFDFD"/>
</svg>
