<svg width="1512" height="982" viewBox="0 0 1512 982" fill="none" xmlns="http://www.w3.org/2000/svg">
<path d="M131.8 57V58H132.8V57H131.8ZM131.8 17H132.8V16H131.8V17ZM131.8 241.32V242.32H132.8V241.32H131.8ZM131.8 201.32H132.8V200.32H131.8V201.32ZM19.8 58H131.8V56H19.8V58ZM132.8 57V17H130.8V57H132.8ZM131.8 16H19.8V18H131.8V16ZM19.8 16C-42.8341 16 -93.2 66.6896 -93.2 129H-91.2C-91.2 67.7904 -41.7259 18 19.8 18V16ZM-93.2 129C-93.2 191.629 -42.836 242.32 19.8 242.32V240.32C-41.724 240.32 -91.2 190.531 -91.2 129H-93.2ZM19.8 242.32H131.8V240.32H19.8V242.32ZM132.8 241.32V201.32H130.8V241.32H132.8ZM131.8 200.32H19.8V202.32H131.8V200.32ZM19.8 200.32C-19.6477 200.32 -51.52 168.448 -51.52 129H-53.52C-53.52 169.552 -20.7523 202.32 19.8 202.32V200.32ZM-51.52 129C-51.52 89.8752 -19.6506 58 19.8 58V56C-20.7494 56 -53.52 88.7648 -53.52 129H-51.52ZM253.75 16.32C191.436 16.32 141.07 66.6896 141.07 129.32H143.07C143.07 67.7904 192.544 18.32 253.75 18.32V16.32ZM141.07 129.32C141.07 191.632 191.438 242 253.75 242V240C192.542 240 143.07 190.528 143.07 129.32H141.07ZM253.75 242C316.38 242 366.75 191.634 366.75 129.32H364.75C364.75 190.526 315.28 240 253.75 240V242ZM366.75 129.32C366.75 66.6877 316.382 16.32 253.75 16.32V18.32C315.278 18.32 364.75 67.7923 364.75 129.32H366.75ZM253.75 200.32C214.625 200.32 182.75 168.451 182.75 129H180.75C180.75 169.549 213.515 202.32 253.75 202.32V200.32ZM182.75 129C182.75 89.8723 214.622 58 253.75 58V56C213.518 56 180.75 88.7677 180.75 129H182.75ZM253.75 58C292.878 58 324.75 89.8723 324.75 129H326.75C326.75 88.7677 293.982 56 253.75 56V58ZM324.75 129C324.75 168.451 292.875 200.32 253.75 200.32V202.32C293.985 202.32 326.75 169.549 326.75 129H324.75ZM574.055 17V16H573.055V17H574.055ZM574.055 159.72L573.443 160.511L575.055 161.757V159.72H574.055ZM430.375 48.68L430.987 47.8887L430.984 47.8869L430.375 48.68ZM390.375 17.96L390.984 17.1669L389.375 15.9311V17.96H390.375ZM390.375 241.32H389.375V242.32H390.375V241.32ZM430.375 241.32V242.32H431.375V241.32H430.375ZM430.375 99.24L430.987 98.4487L429.375 97.2033V99.24H430.375ZM574.055 210.28L573.443 211.071L573.445 211.072L574.055 210.28ZM614.375 241.32L613.765 242.112L615.375 243.352V241.32H614.375ZM614.375 17H615.375V16H614.375V17ZM573.055 17V159.72H575.055V17H573.055ZM574.667 158.929L430.987 47.8888L429.763 49.4712L573.443 160.511L574.667 158.929ZM430.984 47.8869L390.984 17.1669L389.766 18.7531L429.766 49.4731L430.984 47.8869ZM389.375 17.96V241.32H391.375V17.96H389.375ZM390.375 242.32H430.375V240.32H390.375V242.32ZM431.375 241.32V99.24H429.375V241.32H431.375ZM429.763 100.031L573.443 211.071L574.667 209.489L430.987 98.4487L429.763 100.031ZM573.445 211.072L613.765 242.112L614.985 240.528L574.665 209.488L573.445 211.072ZM615.375 241.32V17H613.375V241.32H615.375ZM614.375 16H574.055V18H614.375V16ZM646.312 17.32V16.32H645.312V17.32H646.312ZM646.312 57.32H645.312V58.32H646.312V57.32ZM738.153 57.32H739.153V56.32H738.153V57.32ZM738.153 241.32H737.153V242.32H738.153V241.32ZM778.153 241.32V242.32H779.153V241.32H778.153ZM778.153 57.32V56.32H777.153V57.32H778.153ZM869.992 57.32V58.32H870.992V57.32H869.992ZM869.992 17.32H870.992V16.32H869.992V17.32ZM645.312 17.32V57.32H647.312V17.32H645.312ZM646.312 58.32H738.153V56.32H646.312V58.32ZM737.153 57.32V241.32H739.153V57.32H737.153ZM738.153 242.32H778.153V240.32H738.153V242.32ZM779.153 241.32V57.32H777.153V241.32H779.153ZM778.153 58.32H869.992V56.32H778.153V58.32ZM870.992 57.32V17.32H868.992V57.32H870.992ZM869.992 16.32H646.312V18.32H869.992V16.32ZM1033.69 201L1034.58 200.547L1034.58 200.546L1033.69 201ZM939.932 17L940.823 16.546L939.932 14.7974L939.042 16.546L939.932 17ZM846.172 201L845.281 200.546L845.278 200.553L846.172 201ZM826.013 241.32L825.118 240.873L824.394 242.32H826.013V241.32ZM870.812 241.32V242.32H871.426L871.704 241.773L870.812 241.32ZM891.292 201L890.401 200.547L890.401 200.547L891.292 201ZM939.932 105.32L940.823 104.864L939.93 103.119L939.041 104.867L939.932 105.32ZM988.893 201L989.784 200.547L989.783 200.544L988.893 201ZM1009.37 241.32L1008.48 241.773L1008.76 242.32H1009.37V241.32ZM1054.17 241.32V242.32H1055.8L1055.06 240.867L1054.17 241.32ZM1034.58 200.546L940.823 16.546L939.042 17.454L1032.8 201.454L1034.58 200.546ZM939.042 16.546L845.281 200.546L847.063 201.454L940.823 17.454L939.042 16.546ZM845.278 200.553L825.118 240.873L826.907 241.767L847.067 201.447L845.278 200.553ZM826.013 242.32H870.812V240.32H826.013V242.32ZM871.704 241.773L892.184 201.453L890.401 200.547L869.921 240.867L871.704 241.773ZM892.184 201.453L940.824 105.773L939.041 104.867L890.401 200.547L892.184 201.453ZM939.042 105.776L988.002 201.456L989.783 200.544L940.823 104.864L939.042 105.776ZM988.001 201.453L1008.48 241.773L1010.26 240.867L989.784 200.547L988.001 201.453ZM1009.37 242.32H1054.17V240.32H1009.37V242.32ZM1055.06 240.867L1034.58 200.547L1032.8 201.453L1053.28 241.773L1055.06 240.867ZM1266.49 57V58H1267.49V57H1266.49ZM1266.49 17H1267.49V16H1266.49V17ZM1266.49 241.32V242.32H1267.49V241.32H1266.49ZM1266.49 201.32H1267.49V200.32H1266.49V201.32ZM1154.49 58H1266.49V56H1154.49V58ZM1267.49 57V17H1265.49V57H1267.49ZM1266.49 16H1154.49V18H1266.49V16ZM1154.49 16C1091.85 16 1041.49 66.6914 1041.49 129.32H1043.49C1043.49 67.7886 1092.96 18 1154.49 18V16ZM1041.49 129.32C1041.49 191.63 1091.85 242.32 1154.49 242.32V240.32C1092.96 240.32 1043.49 190.53 1043.49 129.32H1041.49ZM1154.49 242.32H1266.49V240.32H1154.49V242.32ZM1267.49 241.32V201.32H1265.49V241.32H1267.49ZM1266.49 200.32H1154.49V202.32H1266.49V200.32ZM1154.49 200.32C1115.04 200.32 1083.17 168.445 1083.17 129.32H1081.17C1081.17 169.555 1113.94 202.32 1154.49 202.32V200.32ZM1083.17 129.32C1083.17 89.8723 1115.04 58 1154.49 58V56C1113.94 56 1081.17 88.7677 1081.17 129.32H1083.17ZM1298.5 17.32V16.32H1297.5V17.32H1298.5ZM1298.5 57.32H1297.5V58.32H1298.5V57.32ZM1390.34 57.32H1391.34V56.32H1390.34V57.32ZM1390.34 241.32H1389.34V242.32H1390.34V241.32ZM1430.34 241.32V242.32H1431.34V241.32H1430.34ZM1430.34 57.32V56.32H1429.34V57.32H1430.34ZM1522.18 57.32V58.32H1523.18V57.32H1522.18ZM1522.18 17.32H1523.18V16.32H1522.18V17.32ZM1297.5 17.32V57.32H1299.5V17.32H1297.5ZM1298.5 58.32H1390.34V56.32H1298.5V58.32ZM1389.34 57.32V241.32H1391.34V57.32H1389.34ZM1390.34 242.32H1430.34V240.32H1390.34V242.32ZM1431.34 241.32V57.32H1429.34V241.32H1431.34ZM1430.34 58.32H1522.18V56.32H1430.34V58.32ZM1523.18 57.32V17.32H1521.18V57.32H1523.18ZM1522.18 16.32H1298.5V18.32H1522.18V16.32Z" fill="#6E7170"/>
<path d="M212.68 789.04L212.07 788.248L212.069 788.249L212.68 789.04ZM141 844.4L140.39 845.193L141.001 845.662L141.611 845.191L141 844.4ZM69 789.04L68.3869 789.83L68.3905 789.833L69 789.04ZM29 758L29.6131 757.21L28 755.958V758H29ZM29 982.32H28V983.32H29V982.32ZM69 982.32V983.32H70V982.32H69ZM69 839.6L69.6103 838.808L68 837.567V839.6H69ZM108.04 869.68L107.43 870.472L107.431 870.473L108.04 869.68ZM141 894.96L140.391 895.753L141.003 896.223L141.612 895.751L141 894.96ZM173.64 869.68L173.03 868.888L173.028 868.889L173.64 869.68ZM212.68 839.6H213.68V837.567L212.07 838.808L212.68 839.6ZM212.68 982.32H211.68V983.32H212.68V982.32ZM253 982.32V983.32H254V982.32H253ZM253 758H254V755.968L252.39 757.208L253 758ZM212.069 788.249L140.389 843.609L141.611 845.191L213.291 789.831L212.069 788.249ZM141.61 843.607L69.6095 788.247L68.3905 789.833L140.39 845.193L141.61 843.607ZM69.6131 788.25L29.6131 757.21L28.3869 758.79L68.3869 789.83L69.6131 788.25ZM28 758V982.32H30V758H28ZM29 983.32H69V981.32H29V983.32ZM70 982.32V839.6H68V982.32H70ZM68.3897 840.392L107.43 870.472L108.65 868.888L69.6103 838.808L68.3897 840.392ZM107.431 870.473L140.391 895.753L141.609 894.167L108.649 868.887L107.431 870.473ZM141.612 895.751L174.252 870.471L173.028 868.889L140.388 894.169L141.612 895.751ZM174.25 870.472L213.29 840.392L212.07 838.808L173.03 868.888L174.25 870.472ZM211.68 839.6V982.32H213.68V839.6H211.68ZM212.68 983.32H253V981.32H212.68V983.32ZM254 982.32V758H252V982.32H254ZM252.39 757.208L212.07 788.248L213.29 789.832L253.61 758.792L252.39 757.208ZM508.617 798V799H509.617V798H508.617ZM508.617 758H509.617V757H508.617V758ZM508.617 982.32V983.32H509.617V982.32H508.617ZM508.617 942.32H509.617V941.32H508.617V942.32ZM324.617 879.28V878.28H323.617V879.28H324.617ZM468.617 879.28V880.28H469.617V879.28H468.617ZM468.617 839.28H469.617V838.28H468.617V839.28ZM324.617 839.28H323.617V840.28H324.617V839.28ZM345.098 799H508.617V797H345.098V799ZM509.617 798V758H507.617V798H509.617ZM508.617 757H345.098V759H508.617V757ZM345.098 757C311.255 757 283.938 784.658 283.938 818.8H285.938C285.938 785.742 312.38 759 345.098 759V757ZM283.938 818.8V921.52H285.938V818.8H283.938ZM283.938 921.52C283.938 955.662 311.255 983.32 345.098 983.32V981.32C312.38 981.32 285.938 954.578 285.938 921.52H283.938ZM345.098 983.32H508.617V981.32H345.098V983.32ZM509.617 982.32V942.32H507.617V982.32H509.617ZM508.617 941.32H345.098V943.32H508.617V941.32ZM345.098 941.32C334.46 941.32 325.617 932.498 325.617 921.52H323.617C323.617 933.582 333.335 943.32 345.098 943.32V941.32ZM325.617 921.52V879.28H323.617V921.52H325.617ZM324.617 880.28H468.617V878.28H324.617V880.28ZM469.617 879.28V839.28H467.617V879.28H469.617ZM468.617 838.28H324.617V840.28H468.617V838.28ZM325.617 839.28V818.8H323.617V839.28H325.617ZM325.617 818.8C325.617 807.822 334.46 799 345.098 799V797C333.335 797 323.617 806.738 323.617 818.8H325.617Z" fill="#6E7170"/>
</svg>
