<svg width="36" height="35" viewBox="0 0 36 35" fill="none" xmlns="http://www.w3.org/2000/svg">
<g clip-path="url(#clip0_322_79)">
<path d="M32.6356 20.4167H29.7189V10.5554L18.1573 20.9096L6.3856 10.5233V27.7083H20.9689V30.625H4.92727C4.54049 30.625 4.16956 30.4714 3.89607 30.1979C3.62258 29.9244 3.46893 29.5534 3.46893 29.1667V5.83333C3.46893 5.44656 3.62258 5.07563 3.89607 4.80214C4.16956 4.52865 4.54049 4.375 4.92727 4.375H31.1773C31.564 4.375 31.935 4.52865 32.2085 4.80214C32.482 5.07563 32.6356 5.44656 32.6356 5.83333V20.4167ZM7.13081 7.29167L18.1412 17.0071L28.9927 7.29167H7.13081ZM28.2606 32.0833L23.1039 26.9267L25.1675 24.8646L28.2606 27.9592L33.4173 22.8025L35.4794 24.8646L28.2606 32.0833Z" fill="#FDFDFD"/>
</g>
<defs>
<clipPath id="clip0_322_79">
<rect width="35" height="35" fill="white" transform="translate(0.552246)"/>
</clipPath>
</defs>
</svg>
