<svg width="40" height="41" viewBox="0 0 40 41" fill="none" xmlns="http://www.w3.org/2000/svg">
<rect y="0.645508" width="40" height="40" rx="10" fill="#FDFDFD"/>
<path d="M20 8.5C18.3585 8.5 16.733 8.82332 15.2165 9.45151C13.6999 10.0797 12.3219 11.0004 11.1612 12.1612C8.81696 14.5054 7.5 17.6848 7.5 21C7.5 26.525 11.0875 31.2125 16.05 32.875C16.675 32.975 16.875 32.5875 16.875 32.25V30.1375C13.4125 30.8875 12.675 28.4625 12.675 28.4625C12.1 27.0125 11.2875 26.625 11.2875 26.625C10.15 25.85 11.375 25.875 11.375 25.875C12.625 25.9625 13.2875 27.1625 13.2875 27.1625C14.375 29.0625 16.2125 28.5 16.925 28.2C17.0375 27.3875 17.3625 26.8375 17.7125 26.525C14.9375 26.2125 12.025 25.1375 12.025 20.375C12.025 18.9875 12.5 17.875 13.3125 16.9875C13.1875 16.675 12.75 15.375 13.4375 13.6875C13.4375 13.6875 14.4875 13.35 16.875 14.9625C17.8625 14.6875 18.9375 14.55 20 14.55C21.0625 14.55 22.1375 14.6875 23.125 14.9625C25.5125 13.35 26.5625 13.6875 26.5625 13.6875C27.25 15.375 26.8125 16.675 26.6875 16.9875C27.5 17.875 27.975 18.9875 27.975 20.375C27.975 25.15 25.05 26.2 22.2625 26.5125C22.7125 26.9 23.125 27.6625 23.125 28.825V32.25C23.125 32.5875 23.325 32.9875 23.9625 32.875C28.925 31.2 32.5 26.525 32.5 21C32.5 19.3585 32.1767 17.733 31.5485 16.2165C30.9203 14.6999 29.9996 13.3219 28.8388 12.1612C27.6781 11.0004 26.3001 10.0797 24.7835 9.45151C23.267 8.82332 21.6415 8.5 20 8.5Z" fill="black"/>
</svg>
