<svg width="207" height="607" viewBox="0 0 207 607" fill="none" xmlns="http://www.w3.org/2000/svg">
<g filter="url(#filter0_d_324_610)">
<rect x="-72.9771" width="457" height="394" rx="10" transform="rotate(52.3668 -72.9771 0)" fill="white"/>
</g>
<path d="M-106.887 209.867L-98.6505 203.517L-98.8412 204.816L-100.844 202.218L-99.4629 201.153L-96.7469 204.676L-105.617 211.514L-106.887 209.867ZM-102.12 216.311C-102.602 215.686 -102.986 215.005 -103.271 214.269C-103.541 213.534 -103.672 212.84 -103.663 212.187L-101.846 211.898C-101.86 212.421 -101.772 212.972 -101.581 213.552C-101.383 214.14 -101.092 214.684 -100.708 215.182C-100.258 215.765 -99.7843 216.127 -99.2853 216.267C-98.7798 216.416 -98.3201 216.331 -97.9062 216.012C-97.6274 215.797 -97.4378 215.536 -97.3373 215.23C-97.2304 214.932 -97.2587 214.563 -97.4225 214.124C-97.5797 213.693 -97.8928 213.173 -98.3617 212.565L-100.013 210.423L-94.8334 207.157L-90.8181 212.365L-92.1992 213.43L-95.7456 208.83L-94.2957 209.086L-98.1707 211.529L-98.0621 210.071L-96.6846 211.858C-96.0072 212.736 -95.5816 213.533 -95.4078 214.247C-95.2191 214.964 -95.2372 215.604 -95.4623 216.168C-95.6723 216.734 -96.0392 217.219 -96.563 217.623C-97.0783 218.02 -97.649 218.258 -98.2752 218.337C-98.9014 218.416 -99.5474 218.294 -100.213 217.972C-100.872 217.659 -101.508 217.105 -102.12 216.311ZM-95.8286 224.471C-96.3692 223.77 -96.6803 223 -96.7619 222.16C-96.837 221.329 -96.6604 220.493 -96.2321 219.651C-95.7954 218.802 -95.0913 218.003 -94.1198 217.254C-93.1484 216.505 -92.201 216.031 -91.2777 215.831C-90.346 215.624 -89.4878 215.663 -88.7032 215.947C-87.912 216.239 -87.2461 216.736 -86.7055 217.437C-86.1584 218.147 -85.8473 218.917 -85.7723 219.748C-85.6972 220.579 -85.878 221.419 -86.3147 222.267C-86.7365 223.118 -87.4331 223.918 -88.4046 224.667C-89.376 225.416 -90.3309 225.889 -91.2691 226.087C-92.1924 226.287 -93.0464 226.245 -93.831 225.961C-94.6157 225.678 -95.2815 225.181 -95.8286 224.471ZM-94.3968 223.367C-94.0777 223.781 -93.691 224.055 -93.2369 224.19C-92.7744 224.318 -92.2457 224.288 -91.6508 224.099C-91.0494 223.918 -90.394 223.554 -89.6844 223.007C-88.9664 222.453 -88.4477 221.912 -88.1283 221.383C-87.794 220.856 -87.6342 220.355 -87.649 219.882C-87.6554 219.402 -87.8182 218.955 -88.1373 218.541C-88.4435 218.144 -88.8311 217.877 -89.3001 217.74C-89.7542 217.606 -90.282 217.629 -90.8833 217.81C-91.4698 217.992 -92.122 218.36 -92.84 218.914C-93.5496 219.461 -94.0715 219.998 -94.4059 220.525C-94.7337 221.061 -94.8944 221.569 -94.888 222.049C-94.8667 222.531 -94.7029 222.97 -94.3968 223.367ZM-86.605 236.355C-87.1521 235.646 -87.4928 234.898 -87.627 234.113C-87.7462 233.329 -87.6645 232.579 -87.3817 231.863C-87.099 231.147 -86.6239 230.531 -85.9566 230.017C-85.2808 229.496 -84.5648 229.193 -83.8085 229.108C-83.0438 229.017 -82.3019 229.132 -81.5829 229.453C-80.8574 229.782 -80.2211 230.302 -79.674 231.011C-79.166 231.67 -78.855 232.353 -78.741 233.06C-78.6121 233.769 -78.7043 234.453 -79.0177 235.112L-80.6652 234.442C-80.5005 233.992 -80.4561 233.561 -80.532 233.148C-80.6014 232.743 -80.7663 232.372 -81.0269 232.034C-81.3265 231.646 -81.6812 231.36 -82.0912 231.178C-82.5011 230.996 -82.935 230.94 -83.3927 231.01C-83.8421 231.073 -84.2863 231.274 -84.7256 231.613C-85.1649 231.952 -85.4766 232.334 -85.6608 232.758C-85.8366 233.177 -85.8885 233.607 -85.8164 234.05C-85.7444 234.493 -85.5586 234.909 -85.259 235.297C-84.9985 235.635 -84.6814 235.889 -84.3079 236.059C-83.9279 236.238 -83.4993 236.304 -83.022 236.26L-82.7936 238.023C-83.5024 238.152 -84.1915 238.071 -84.8611 237.779C-85.5157 237.489 -86.097 237.014 -86.605 236.355ZM-81.1139 243.477C-81.5568 242.903 -81.842 242.314 -81.9695 241.712C-82.0886 241.104 -82.0229 240.508 -81.7725 239.924C-81.5137 239.334 -81.0464 238.778 -80.3706 238.257L-76.5059 235.277L-75.2847 236.861L-78.934 239.675C-79.5422 240.144 -79.8941 240.631 -79.9898 241.136C-80.0705 241.642 -79.9155 242.149 -79.5247 242.656C-79.2381 243.028 -78.9146 243.29 -78.5541 243.443C-78.1872 243.605 -77.793 243.644 -77.3717 243.562C-76.9438 243.488 -76.506 243.278 -76.0583 242.933L-72.6372 240.295L-71.4159 241.879L-78.1823 247.096L-79.3448 245.588L-77.5202 244.181L-77.8726 244.877C-78.4877 244.988 -79.0829 244.915 -79.6581 244.658C-80.2248 244.394 -80.7101 244.001 -81.1139 243.477ZM-75.06 251.329C-75.4964 250.763 -75.8447 250.163 -76.1049 249.528C-76.3501 248.896 -76.4844 248.346 -76.5077 247.879L-74.835 247.559C-74.7948 248.013 -74.6753 248.5 -74.4763 249.02C-74.2774 249.54 -74.0151 250.011 -73.6894 250.434C-73.3051 250.932 -72.9608 251.239 -72.6563 251.354C-72.3452 251.478 -72.0757 251.452 -71.8476 251.276C-71.6618 251.133 -71.581 250.95 -71.6053 250.726C-71.6212 250.496 -71.6982 250.239 -71.8364 249.955C-71.9746 249.671 -72.1398 249.36 -72.3321 249.024C-72.5178 248.695 -72.6941 248.353 -72.861 247.997C-73.0129 247.643 -73.1158 247.291 -73.1695 246.942C-73.2148 246.586 -73.1778 246.241 -73.0585 245.907C-72.9392 245.572 -72.6852 245.255 -72.2967 244.956C-71.8659 244.623 -71.3997 244.459 -70.8983 244.463C-70.3884 244.461 -69.8797 244.614 -69.372 244.923C-68.8495 245.234 -68.3537 245.693 -67.8847 246.302C-67.533 246.758 -67.2288 247.257 -66.9719 247.8C-66.7151 248.343 -66.5623 248.838 -66.5137 249.285L-68.1864 249.605C-68.2396 249.134 -68.3594 248.708 -68.5458 248.327C-68.7173 247.947 -68.9268 247.597 -69.1743 247.276C-69.5455 246.794 -69.8941 246.491 -70.2201 246.365C-70.5396 246.247 -70.8091 246.273 -71.0287 246.443C-71.2315 246.599 -71.3249 246.792 -71.309 247.023C-71.2932 247.253 -71.2204 247.513 -71.0906 247.804C-70.9609 248.094 -70.8031 248.404 -70.6174 248.732C-70.4167 249.062 -70.2404 249.404 -70.0885 249.759C-69.9366 250.113 -69.8337 250.465 -69.78 250.814C-69.7113 251.165 -69.7366 251.508 -69.8559 251.842C-69.9752 252.176 -70.2249 252.49 -70.605 252.783C-71.0274 253.109 -71.4926 253.266 -72.0005 253.253C-72.5019 253.249 -73.0172 253.087 -73.5463 252.768C-74.067 252.442 -74.5715 251.962 -75.06 251.329ZM-69.6804 258.306C-70.2535 257.563 -70.5063 256.842 -70.4388 256.143C-70.3629 255.438 -69.949 254.796 -69.1972 254.216L-63.1278 249.536L-61.9066 251.12L-67.938 255.771C-68.259 256.018 -68.4463 256.291 -68.5 256.588C-68.5471 256.894 -68.4567 257.194 -68.2287 257.49C-67.9552 257.845 -67.6343 258.069 -67.2661 258.162L-68.0519 259.475C-68.3472 259.406 -68.6371 259.266 -68.9215 259.055C-69.206 258.843 -69.4589 258.593 -69.6804 258.306ZM-66.8005 250.59L-65.5334 249.613L-62.0554 254.124L-63.3225 255.101L-66.8005 250.59ZM-65.3304 263.948C-65.8645 263.255 -66.1921 262.525 -66.3133 261.756C-66.426 260.981 -66.341 260.235 -66.0583 259.519C-65.7755 258.802 -65.3005 258.187 -64.6332 257.672C-63.9574 257.151 -63.2413 256.849 -62.4851 256.764C-61.7204 256.672 -60.9817 256.783 -60.2693 257.096C-59.5568 257.409 -58.9335 257.911 -58.3994 258.604C-57.8588 259.305 -57.5279 260.04 -57.4067 260.808C-57.279 261.586 -57.3556 262.325 -57.6364 263.026C-57.9107 263.736 -58.39 264.355 -59.0742 264.882C-59.7416 265.397 -60.4576 265.7 -61.2223 265.791C-61.9805 265.891 -62.7233 265.783 -63.4508 265.469C-64.1633 265.156 -64.7898 264.649 -65.3304 263.948ZM-63.9746 262.903C-63.675 263.291 -63.3235 263.572 -62.9201 263.746C-62.5167 263.92 -62.0893 263.968 -61.6381 263.889C-61.1803 263.819 -60.736 263.618 -60.3052 263.286C-59.8659 262.947 -59.5584 262.568 -59.3826 262.15C-59.1919 261.734 -59.1293 261.308 -59.1948 260.874C-59.2604 260.44 -59.4397 260.032 -59.7328 259.652C-60.0324 259.264 -60.3839 258.982 -60.7873 258.809C-61.1842 258.643 -61.6115 258.595 -62.0693 258.666C-62.5186 258.729 -62.9629 258.93 -63.4022 259.269C-63.833 259.601 -64.1405 259.98 -64.3247 260.405C-64.509 260.829 -64.5716 261.255 -64.5126 261.681C-64.447 262.115 -64.2677 262.522 -63.9746 262.903ZM-47.8625 272.27C-47.4457 272.811 -47.1833 273.369 -47.0753 273.946C-46.9608 274.531 -47.0321 275.111 -47.2889 275.687C-47.5374 276.255 -48.0037 276.803 -48.688 277.331L-52.5653 280.321L-53.7865 278.737L-50.1119 275.903C-49.5122 275.441 -49.1654 274.965 -49.0716 274.475C-48.9779 273.985 -49.1199 273.495 -49.4977 273.005C-49.7647 272.659 -50.0785 272.409 -50.4389 272.256C-50.7929 272.112 -51.1763 272.077 -51.5892 272.153C-51.9956 272.238 -52.4268 272.456 -52.883 272.807L-56.3168 275.455L-57.538 273.871L-53.8635 271.038C-53.2637 270.575 -52.9169 270.099 -52.8232 269.609C-52.7294 269.12 -52.8715 268.63 -53.2492 268.14C-53.5162 267.793 -53.83 267.544 -54.1905 267.391C-54.5444 267.246 -54.9279 267.212 -55.3408 267.288C-55.7471 267.372 -56.1784 267.59 -56.6346 267.942L-60.0684 270.589L-61.2896 269.005L-54.5233 263.788L-53.3607 265.296L-55.16 266.683L-54.833 266.007C-54.2178 265.896 -53.6302 265.969 -53.0699 266.224C-52.5032 266.487 -52.0049 266.897 -51.575 267.455C-51.0865 268.089 -50.8194 268.758 -50.7738 269.464C-50.7216 270.178 -50.9536 270.855 -51.47 271.496L-51.7333 270.709C-51.0571 270.537 -50.3715 270.588 -49.6767 270.86C-48.9818 271.133 -48.3771 271.603 -47.8625 272.27ZM-48.6317 285.606C-49.2114 284.854 -49.5716 284.081 -49.7123 283.287C-49.8381 282.495 -49.7596 281.741 -49.4768 281.025C-49.1875 280.317 -48.7092 279.705 -48.0419 279.191C-47.3661 278.67 -46.6566 278.358 -45.9134 278.257C-45.1552 278.157 -44.4263 278.255 -43.7269 278.551C-43.0209 278.855 -42.4074 279.345 -41.8863 280.021C-41.3783 280.68 -41.0692 281.378 -40.9591 282.114C-40.849 282.851 -40.9419 283.569 -41.2377 284.269C-41.5334 284.968 -42.0361 285.591 -42.7457 286.139C-42.8133 286.191 -42.8926 286.245 -42.9835 286.302C-43.068 286.367 -43.1515 286.424 -43.2341 286.475L-47.5816 280.836L-46.5299 280.025L-42.8272 284.827L-43.6353 284.461C-43.2402 284.169 -42.96 283.825 -42.7946 283.429C-42.6292 283.032 -42.576 282.62 -42.635 282.194C-42.6875 281.777 -42.8603 281.378 -43.1534 280.998C-43.453 280.609 -43.8013 280.332 -44.1982 280.167C-44.5886 280.01 -45.0009 279.964 -45.4353 280.03C-45.8547 280.097 -46.2671 280.287 -46.6726 280.6L-46.926 280.795C-47.3315 281.108 -47.6189 281.478 -47.7881 281.905C-47.9574 282.331 -47.9962 282.779 -47.9047 283.247C-47.8131 283.715 -47.598 284.169 -47.2593 284.608C-46.9662 284.988 -46.6433 285.285 -46.2905 285.498C-45.9378 285.711 -45.5435 285.838 -45.1078 285.879L-45.4289 287.48C-46.0181 287.449 -46.589 287.277 -47.1415 286.962C-47.6791 286.649 -48.1758 286.197 -48.6317 285.606ZM-44.9178 290.239L-38.1515 285.022L-36.9889 286.53L-38.8515 287.966L-38.4434 287.369C-37.831 287.22 -37.2404 287.269 -36.6717 287.518C-36.0965 287.775 -35.5581 288.228 -35.0566 288.879L-36.5645 290.041C-36.5997 289.961 -36.6401 289.891 -36.6857 289.832C-36.7228 289.766 -36.7642 289.704 -36.8098 289.645C-37.2722 289.045 -37.8176 288.704 -38.4459 288.623C-39.0658 288.535 -39.7221 288.759 -40.4148 289.293L-43.6966 291.823L-44.9178 290.239ZM-38.1153 299.062L-31.349 293.845L-30.1864 295.353L-32.049 296.789L-31.6409 296.191C-31.0285 296.042 -30.4379 296.092 -29.8692 296.34C-29.294 296.597 -28.7556 297.051 -28.2541 297.701L-29.762 298.864C-29.7972 298.783 -29.8376 298.714 -29.8832 298.654C-29.9203 298.589 -29.9617 298.526 -30.0073 298.467C-30.4697 297.868 -31.0151 297.527 -31.6434 297.446C-32.2633 297.358 -32.9196 297.581 -33.6123 298.115L-36.8941 300.646L-38.1153 299.062ZM-31.2184 308.007L-29.8499 306.952L-29.6268 306.638L-27.232 304.792C-26.7674 304.434 -26.5159 304.017 -26.4774 303.543C-26.4305 303.063 -26.6252 302.539 -27.0616 301.973C-27.3546 301.593 -27.7036 301.263 -28.1085 300.982C-28.5068 300.71 -28.9092 300.529 -29.3158 300.438L-28.6415 298.929C-28.0826 299.077 -27.5435 299.348 -27.0241 299.742C-26.4897 300.138 -26.0141 300.607 -25.5972 301.147C-24.8417 302.127 -24.4953 303.066 -24.558 303.963C-24.6058 304.861 -25.1196 305.689 -26.0995 306.444L-30.0655 309.502L-31.2184 308.007ZM-32.9484 305.947C-33.3391 305.44 -33.5966 304.931 -33.7207 304.421C-33.8364 303.904 -33.8237 303.423 -33.6824 302.977C-33.5261 302.533 -33.2537 302.161 -32.8652 301.862C-32.485 301.569 -32.0745 301.394 -31.6336 301.337C-31.1863 301.288 -30.7143 301.402 -30.2178 301.679C-29.7212 301.957 -29.2092 302.437 -28.6816 303.121L-27.1673 305.085L-28.219 305.896L-29.6454 304.046C-30.0622 303.506 -30.431 303.211 -30.7517 303.162C-31.0639 303.106 -31.3467 303.176 -31.6001 303.372C-31.8873 303.593 -32.0275 303.883 -32.0206 304.241C-32.0137 304.6 -31.8539 304.981 -31.5413 305.387C-31.2417 305.776 -30.8859 306.053 -30.4741 306.221C-30.0557 306.397 -29.6212 306.419 -29.1707 306.287L-29.9158 307.285C-30.4301 307.44 -30.9501 307.403 -31.4759 307.175C-31.9951 306.956 -32.4859 306.546 -32.9484 305.947ZM-26.6233 314.15C-27.1964 313.407 -27.4492 312.686 -27.3817 311.987C-27.3058 311.282 -26.8919 310.64 -26.1401 310.06L-20.0707 305.38L-18.8495 306.964L-24.8809 311.615C-25.2019 311.862 -25.3892 312.134 -25.4428 312.432C-25.49 312.737 -25.3996 313.038 -25.1716 313.334C-24.8981 313.689 -24.5772 313.913 -24.209 314.006L-24.9947 315.319C-25.2901 315.25 -25.58 315.11 -25.8644 314.898C-26.1489 314.687 -26.4018 314.437 -26.6233 314.15ZM-23.7434 306.434L-22.4763 305.457L-18.9983 309.968L-20.2654 310.945L-23.7434 306.434ZM-24.3576 316.905L-17.5913 311.688L-16.3701 313.272L-23.1364 318.489L-24.3576 316.905ZM-15.8608 311.627C-16.0887 311.331 -16.1847 311.014 -16.1486 310.677C-16.1061 310.348 -15.9539 310.082 -15.692 309.88C-15.4217 309.672 -15.1262 309.592 -14.8055 309.641C-14.4699 309.692 -14.1881 309.866 -13.9601 310.161C-13.7322 310.457 -13.6352 310.766 -13.6693 311.089C-13.6885 311.413 -13.829 311.676 -14.0909 311.878C-14.3696 312.093 -14.6778 312.183 -15.0154 312.147C-15.3445 312.104 -15.6263 311.931 -15.8608 311.627ZM-11.731 319.131C-11.3142 319.672 -11.0485 320.235 -10.9341 320.82C-10.8131 321.414 -10.8778 322.003 -11.1282 322.586C-11.3701 323.163 -11.8332 323.716 -12.5174 324.243L-16.3947 327.233L-17.6159 325.649L-13.9413 322.816C-13.3416 322.353 -13.0046 321.864 -12.9304 321.349C-12.8497 320.843 -13.0047 320.336 -13.3955 319.829C-13.6821 319.457 -14.0121 319.186 -14.3856 319.016C-14.7591 318.846 -15.1598 318.798 -15.5876 318.872C-16.0005 318.948 -16.435 319.162 -16.8912 319.514L-20.3124 322.152L-21.5336 320.568L-14.7673 315.351L-13.6047 316.859L-15.4293 318.265L-15.0769 317.57C-14.4638 317.474 -13.8705 317.562 -13.2973 317.834C-12.709 318.108 -12.1869 318.54 -11.731 319.131ZM-15.0186 334.284C-15.5006 333.659 -15.8883 332.982 -16.1818 332.252C-16.4772 331.537 -16.6152 330.869 -16.5957 330.247L-14.8576 330.039C-14.8746 330.523 -14.7823 331.045 -14.5807 331.603C-14.381 332.177 -14.1021 332.696 -13.7439 333.16C-13.1707 333.904 -12.5775 334.315 -11.9641 334.394C-11.3592 334.48 -10.7146 334.259 -10.0303 333.732L-8.8266 332.803L-7.19571 331.748L-5.7016 330.515L-4.05437 329.245L-2.89178 330.753L-8.63174 335.179C-9.8566 336.123 -10.9972 336.504 -12.0536 336.322C-13.1184 336.146 -14.1068 335.467 -15.0186 334.284ZM-12.324 331.884C-12.819 331.242 -13.1332 330.554 -13.2667 329.822C-13.3852 329.092 -13.3168 328.386 -13.0613 327.704C-12.7993 327.031 -12.3389 326.44 -11.68 325.932C-11.0295 325.431 -10.3454 325.139 -9.62746 325.057C-8.90305 324.983 -8.20703 325.1 -7.53942 325.406C-6.86529 325.722 -6.28073 326.2 -5.78573 326.842C-5.34284 327.417 -5.05958 328.02 -4.93595 328.652C-4.81232 329.284 -4.88705 329.921 -5.16012 330.562C-5.42669 331.212 -5.93588 331.827 -6.68769 332.407C-7.4395 332.987 -8.16784 333.326 -8.87272 333.425C-9.56264 333.526 -10.2017 333.439 -10.7899 333.166C-11.3697 332.885 -11.8811 332.458 -12.324 331.884ZM-10.7952 331.089C-10.4891 331.486 -10.1353 331.779 -9.73381 331.967C-9.32388 332.15 -8.91018 332.215 -8.49271 332.162C-8.06028 332.112 -7.654 331.94 -7.27387 331.647C-6.89374 331.354 -6.62846 331.008 -6.47802 330.609C-6.31263 330.212 -6.2744 329.798 -6.36333 329.369C-6.44382 328.932 -6.63712 328.516 -6.94323 328.119C-7.24935 327.722 -7.60641 327.425 -8.0144 327.227C-8.40744 327.032 -8.82018 326.96 -9.25261 327.01C-9.67008 327.063 -10.0689 327.235 -10.449 327.529C-10.8291 327.822 -11.1019 328.167 -11.2673 328.564C-11.4177 328.962 -11.4569 329.383 -11.3849 329.826C-11.2979 330.271 -11.1013 330.692 -10.7952 331.089ZM-6.52928 340.211C-6.96566 339.645 -7.31396 339.045 -7.57416 338.411C-7.81941 337.778 -7.95368 337.228 -7.97697 336.762L-6.30428 336.442C-6.2641 336.896 -6.14453 337.383 -5.94559 337.903C-5.74664 338.423 -5.48434 338.894 -5.15869 339.316C-4.77441 339.815 -4.43003 340.122 -4.12553 340.237C-3.81452 340.361 -3.54497 340.335 -3.3169 340.159C-3.13106 340.016 -3.05029 339.832 -3.07461 339.608C-3.09048 339.378 -3.16751 339.121 -3.3057 338.837C-3.4439 338.553 -3.60912 338.243 -3.80135 337.906C-3.98707 337.578 -4.16338 337.236 -4.33027 336.879C-4.48221 336.525 -4.58504 336.173 -4.63876 335.824C-4.68403 335.468 -4.64703 335.123 -4.52774 334.789C-4.40845 334.455 -4.15452 334.138 -3.76594 333.838C-3.33513 333.506 -2.869 333.342 -2.36757 333.346C-1.8577 333.343 -1.34894 333.496 -0.841314 333.805C-0.318726 334.116 0.17704 334.576 0.645984 335.184C0.997692 335.64 1.30197 336.14 1.55882 336.683C1.81568 337.225 1.96842 337.72 2.01705 338.168L0.344364 338.488C0.291154 338.017 0.171333 337.591 -0.0150996 337.209C-0.186572 336.83 -0.396057 336.479 -0.643555 336.158C-1.0148 335.677 -1.36341 335.373 -1.68938 335.247C-2.00884 335.13 -2.27839 335.156 -2.49802 335.325C-2.70075 335.482 -2.79418 335.675 -2.77832 335.905C-2.76245 336.135 -2.68964 336.396 -2.55989 336.686C-2.43014 336.977 -2.27241 337.286 -2.08669 337.614C-1.886 337.945 -1.70969 338.287 -1.55776 338.641C-1.40583 338.995 -1.303 339.347 -1.24928 339.696C-1.18059 340.047 -1.2059 340.39 -1.32519 340.724C-1.44448 341.059 -1.69418 341.373 -2.07431 341.666C-2.49668 341.991 -2.96184 342.148 -3.46978 342.136C-3.97121 342.132 -4.48648 341.97 -5.01558 341.651C-5.53623 341.325 -6.0408 340.845 -6.52928 340.211Z" fill="#033351"/>
<path d="M-35.6652 129.113C-36.4565 128.086 -37.0294 127.003 -37.3838 125.862C-37.7158 124.724 -37.8205 123.592 -37.6979 122.467C-37.5753 121.342 -37.2375 120.274 -36.6845 119.262C-36.1218 118.262 -35.3399 117.376 -34.3389 116.604C-33.3379 115.833 -32.2825 115.302 -31.1726 115.012C-30.053 114.734 -28.9337 114.679 -27.8145 114.847C-26.6856 115.027 -25.6194 115.427 -24.6158 116.048C-23.5996 116.658 -22.691 117.483 -21.8898 118.522C-21.0008 119.675 -20.4024 120.87 -20.0947 122.108C-19.7646 123.348 -19.7417 124.583 -20.0261 125.813L-23.3748 125.243C-23.207 124.386 -23.2114 123.582 -23.3878 122.829C-23.5516 122.066 -23.8875 121.355 -24.3955 120.696C-24.8742 120.075 -25.4152 119.583 -26.0185 119.22C-26.6218 118.857 -27.2601 118.632 -27.9333 118.545C-28.6065 118.458 -29.2859 118.507 -29.9715 118.692C-30.6473 118.89 -31.302 119.233 -31.9356 119.721C-32.5691 120.21 -33.0675 120.756 -33.4307 121.359C-33.7841 121.975 -34.0043 122.62 -34.0914 123.293C-34.1784 123.966 -34.123 124.641 -33.9252 125.316C-33.7274 125.992 -33.3891 126.641 -32.9104 127.262C-32.4024 127.92 -31.8067 128.431 -31.1234 128.793C-30.4275 129.145 -29.6376 129.345 -28.7537 129.39L-29.0542 132.774C-30.3156 132.736 -31.5106 132.405 -32.639 131.78C-33.7576 131.168 -34.7664 130.279 -35.6652 129.113ZM-26.7715 140.49C-27.4261 139.641 -27.8475 138.754 -28.0359 137.829C-28.2144 136.916 -28.1096 136.017 -27.7214 135.131C-27.3205 134.236 -26.5942 133.383 -25.5425 132.573L-19.7645 128.118L-17.4784 131.083L-22.8192 135.201C-23.6682 135.855 -24.1586 136.516 -24.2905 137.184C-24.4 137.854 -24.2007 138.518 -23.6927 139.177C-23.341 139.633 -22.9334 139.966 -22.4697 140.174C-21.9934 140.372 -21.4744 140.417 -20.9126 140.307C-20.3382 140.187 -19.7405 139.888 -19.1196 139.409L-14.0639 135.511L-11.7778 138.476L-22.0033 146.36L-24.1721 143.547L-21.3592 141.378L-21.7808 142.522C-22.7542 142.727 -23.6835 142.635 -24.5687 142.247C-25.4315 141.862 -26.1658 141.276 -26.7715 140.49ZM-17.385 152.665C-18.0591 151.79 -18.6074 150.869 -19.0299 149.902C-19.43 148.938 -19.6524 148.099 -19.6971 147.386L-16.8063 146.733C-16.7363 147.427 -16.552 148.163 -16.2536 148.944C-15.9328 149.727 -15.533 150.428 -15.0543 151.049C-14.5267 151.734 -14.0731 152.152 -13.6934 152.303C-13.304 152.468 -12.9636 152.438 -12.6722 152.213C-12.4314 152.027 -12.3419 151.776 -12.4038 151.46C-12.4431 151.147 -12.5728 150.783 -12.7928 150.366C-13.0127 149.95 -13.262 149.496 -13.5406 149.003C-13.8094 148.524 -14.0641 148.023 -14.3047 147.501C-14.5326 146.97 -14.6805 146.438 -14.7484 145.904C-14.8163 145.37 -14.7544 144.848 -14.5628 144.337C-14.3615 143.838 -13.9694 143.364 -13.3865 142.914C-12.7403 142.416 -12.0284 142.16 -11.2509 142.147C-10.4637 142.146 -9.6571 142.393 -8.83124 142.887C-7.99271 143.372 -7.19243 144.109 -6.43039 145.097C-5.89306 145.794 -5.42199 146.562 -5.01717 147.402C-4.61235 148.241 -4.37003 149.014 -4.29022 149.72L-7.16197 150.359C-7.25155 149.64 -7.44105 148.988 -7.73047 148.403C-7.99745 147.821 -8.31168 147.295 -8.67316 146.826C-9.18118 146.167 -9.64112 145.754 -10.053 145.587C-10.4649 145.42 -10.8102 145.444 -11.0889 145.658C-11.3423 145.854 -11.4494 146.108 -11.41 146.421C-11.3609 146.747 -11.2326 147.123 -11.0253 147.549C-10.818 147.975 -10.58 148.428 -10.3112 148.908C-10.0199 149.39 -9.76035 149.897 -9.53245 150.429C-9.30455 150.96 -9.16153 151.486 -9.10338 152.007C-9.0228 152.531 -9.07831 153.048 -9.26991 153.56C-9.44885 154.061 -9.82974 154.537 -10.4126 154.986C-11.0462 155.475 -11.7566 155.719 -12.5438 155.72C-13.3184 155.711 -14.1235 155.453 -14.9591 154.946C-15.785 154.451 -16.5936 153.691 -17.385 152.665ZM-9.02823 163.503C-9.95635 162.299 -10.3752 161.127 -10.2848 159.987C-10.1817 158.836 -9.52195 157.792 -8.30554 156.854L0.665516 149.937L2.95162 152.902L-5.98142 159.79C-6.41224 160.122 -6.66009 160.495 -6.72499 160.909C-6.77721 161.313 -6.65189 161.711 -6.34903 162.104C-5.98756 162.573 -5.5531 162.874 -5.04567 163.008L-6.52089 165.419C-6.97077 165.281 -7.41882 165.04 -7.86502 164.697C-8.28879 164.357 -8.67653 163.959 -9.02823 163.503ZM-5.32143 152.038L-3.04065 150.28L2.42547 157.369L0.144695 159.128L-5.32143 152.038ZM-2.37555 172.131C-3.21574 171.042 -3.73505 169.896 -3.93346 168.696C-4.1221 167.508 -4.01413 166.364 -3.60955 165.264C-3.18252 164.167 -2.46217 163.228 -1.44849 162.446C-0.42214 161.655 0.669458 161.197 1.82631 161.073C3.00559 160.951 4.13938 161.138 5.22766 161.632C6.33838 162.13 7.31384 162.923 8.15403 164.013C8.98445 165.09 9.49887 166.229 9.69728 167.429C9.90836 168.62 9.80673 169.759 9.39238 170.846C8.97802 171.934 8.25133 172.878 7.21231 173.679C6.19864 174.461 5.10704 174.918 3.93752 175.052C2.78067 175.177 1.64688 174.99 0.536162 174.493C-0.574561 173.995 -1.54513 173.208 -2.37555 172.131ZM0.0572747 170.256C0.438292 170.75 0.894269 171.105 1.42521 171.322C1.95614 171.539 2.51861 171.6 3.11261 171.506C3.71927 171.402 4.31404 171.125 4.8969 170.676C5.49244 170.217 5.91135 169.712 6.15364 169.161C6.39593 168.611 6.47968 168.051 6.4049 167.483C6.33012 166.914 6.10222 166.383 5.7212 165.889C5.34019 165.394 4.88421 165.039 4.35327 164.822C3.82234 164.605 3.25498 164.537 2.65122 164.619C2.05722 164.713 1.46246 164.99 0.86692 165.449C0.284054 165.899 -0.134858 166.403 -0.389818 166.964C-0.622336 167.527 -0.701205 168.093 -0.626423 168.661C-0.551641 169.23 -0.323742 169.761 0.0572747 170.256ZM24.1021 184.697C24.7274 185.508 25.1146 186.351 25.2639 187.226C25.4356 188.104 25.3225 188.979 24.9245 189.851C24.5489 190.727 23.8416 191.565 22.8026 192.366L16.9486 196.88L14.6625 193.915L20.0603 189.753C20.8839 189.118 21.3602 188.478 21.4893 187.833C21.6183 187.188 21.4434 186.555 20.9647 185.934C20.6326 185.503 20.2332 185.195 19.7667 185.009C19.3129 184.814 18.8163 184.772 18.2769 184.885C17.7376 184.998 17.1638 185.289 16.5556 185.758L11.4238 189.714L9.13774 186.749L14.5356 182.587C15.3592 181.952 15.8355 181.312 15.9645 180.667C16.1033 180.035 15.9334 179.409 15.4546 178.788C15.1225 178.357 14.7231 178.049 14.2566 177.863C13.8028 177.667 13.3062 177.626 12.7668 177.739C12.2275 177.851 11.6537 178.142 11.0455 178.611L5.91375 182.568L3.62765 179.603L13.8531 171.719L16.0366 174.551L13.2427 176.705L13.6496 175.543C14.6201 175.36 15.5319 175.455 16.3849 175.828C17.2604 176.203 18.0205 176.809 18.6653 177.646C19.3883 178.583 19.7777 179.586 19.8335 180.654C19.9118 181.725 19.551 182.751 18.7512 183.731L18.2303 182.466C19.2923 182.193 20.346 182.249 21.3912 182.635C22.4462 183.034 23.3499 183.721 24.1021 184.697ZM22.8156 204.804C21.9168 203.638 21.3536 202.436 21.1258 201.197C20.9079 199.971 21.0061 198.814 21.4204 197.727C21.8475 196.63 22.5678 195.691 23.5815 194.909C24.6078 194.118 25.6946 193.654 26.8416 193.517C28.0112 193.383 29.1352 193.557 30.2137 194.038C31.3049 194.51 32.251 195.266 33.0521 196.305C33.8239 197.306 34.3022 198.372 34.4868 199.502C34.694 200.635 34.5791 201.744 34.1423 202.829C33.7182 203.903 32.955 204.865 31.8526 205.715C31.7385 205.803 31.6006 205.899 31.4388 206.004C31.2896 206.099 31.1468 206.189 31.0103 206.274L24.6063 197.968L26.3359 196.634L31.5383 203.382L30.1458 202.637C30.678 202.227 31.0574 201.762 31.2842 201.244C31.5109 200.726 31.5854 200.194 31.5077 199.647C31.4427 199.091 31.2148 198.56 30.824 198.053C30.4332 197.546 29.9724 197.184 29.4414 196.967C28.9329 196.753 28.3929 196.695 27.8214 196.792C27.2625 196.88 26.7106 197.133 26.1657 197.554L25.7096 197.905C25.1521 198.335 24.7507 198.836 24.5055 199.409C24.2828 199.985 24.2283 200.583 24.3422 201.202C24.4785 201.824 24.7811 202.44 25.2501 203.048C25.6702 203.593 26.1189 204.004 26.5962 204.283C27.0833 204.574 27.6235 204.764 28.2167 204.852L27.7225 207.748C26.8288 207.69 25.9627 207.418 25.1242 206.933C24.2983 206.438 23.5288 205.729 22.8156 204.804ZM28.2999 211.602L38.5253 203.718L40.7089 206.55L37.8199 208.777L38.3484 207.733C39.3051 207.481 40.2261 207.548 41.1114 207.937C42.0093 208.315 42.8295 208.986 43.572 209.949L40.8351 212.059C40.75 211.923 40.6684 211.804 40.5903 211.702C40.5248 211.591 40.4481 211.479 40.3602 211.365C39.7349 210.554 38.9925 210.075 38.1329 209.93C37.2957 209.788 36.3893 210.093 35.4136 210.845L30.586 214.567L28.2999 211.602ZM38.7612 225.17L48.9867 217.286L51.1702 220.118L48.2812 222.345L48.8098 221.302C49.7665 221.049 50.6875 221.116 51.5727 221.505C52.4706 221.883 53.2909 222.554 54.0333 223.517L51.2964 225.627C51.2114 225.491 51.1298 225.372 51.0516 225.27C50.9862 225.159 50.9094 225.047 50.8215 224.933C50.1963 224.122 49.4538 223.644 48.5942 223.498C47.757 223.356 46.8506 223.661 45.875 224.413L41.0473 228.135L38.7612 225.17ZM48.7186 238.399C47.8198 237.233 47.2565 236.031 47.0288 234.792C46.8108 233.566 46.909 232.41 47.3234 231.323C47.7504 230.226 48.4708 229.286 49.4844 228.505C50.5108 227.713 51.5975 227.249 52.7446 227.112C53.9141 226.978 55.0381 227.152 56.1166 227.634C57.2078 228.106 58.154 228.861 58.9551 229.9C59.7269 230.901 60.2051 231.967 60.3898 233.097C60.5969 234.231 60.4821 235.34 60.0453 236.424C59.6212 237.498 58.8579 238.461 57.7555 239.311C57.6415 239.399 57.5036 239.495 57.3417 239.599C57.1926 239.694 57.0498 239.784 56.9133 239.869L50.5093 231.563L52.2389 230.23L57.4412 236.977L56.0488 236.232C56.581 235.822 56.9604 235.358 57.1871 234.839C57.4138 234.321 57.4884 233.789 57.4107 233.243C57.3457 232.687 57.1178 232.155 56.727 231.649C56.3362 231.142 55.8753 230.78 55.3444 230.563C54.8359 230.349 54.2959 230.29 53.7243 230.388C53.1654 230.475 52.6136 230.729 52.0687 231.149L51.6125 231.501C51.055 231.931 50.6537 232.432 50.4085 233.005C50.1857 233.581 50.1313 234.178 50.2451 234.798C50.3814 235.42 50.6841 236.035 51.153 236.643C51.5731 237.188 52.0218 237.6 52.4992 237.878C52.9863 238.169 53.5265 238.359 54.1197 238.447L53.6254 241.344C52.7318 241.285 51.8657 241.013 51.0272 240.528C50.2013 240.034 49.4318 239.324 48.7186 238.399ZM56.1993 247.787L63.1128 235.607L65.4722 238.667L59.4272 249.026L58.2549 247.505L69.9125 244.426L72.1107 247.277L58.5586 250.847L56.1993 247.787ZM62.818 256.371L73.0435 248.487L75.3296 251.452L65.1041 259.336L62.818 256.371ZM75.6121 248.87C75.192 248.326 75.0084 247.76 75.0614 247.174C75.1144 246.587 75.3753 246.113 75.8441 245.752C76.313 245.39 76.8377 245.259 77.4182 245.357C77.9988 245.454 78.4991 245.776 78.9192 246.321C79.3393 246.865 79.5292 247.426 79.4888 248.003C79.4612 248.57 79.213 249.034 78.7441 249.395C78.25 249.776 77.7063 249.923 77.113 249.835C76.5423 249.749 76.0419 249.428 75.6121 248.87ZM70.9865 267.28C70.0877 266.114 69.5245 264.912 69.2967 263.673C69.0788 262.447 69.177 261.291 69.5913 260.203C70.0184 259.107 70.7387 258.167 71.7524 257.386C72.7788 256.594 73.8655 256.13 75.0125 255.993C76.1821 255.859 77.3061 256.033 78.3846 256.515C79.4758 256.987 80.4219 257.742 81.223 258.781C81.9948 259.782 82.4731 260.848 82.6578 261.978C82.8649 263.112 82.75 264.221 82.3132 265.305C81.8891 266.379 81.1259 267.342 80.0235 268.192C79.9094 268.28 79.7715 268.376 79.6097 268.48C79.4605 268.575 79.3177 268.665 79.1813 268.75L72.7772 260.444L74.5068 259.111L79.7092 265.858L78.3167 265.113C78.8489 264.703 79.2284 264.239 79.4551 263.72C79.6818 263.202 79.7563 262.67 79.6786 262.124C79.6136 261.568 79.3857 261.036 78.9949 260.529C78.6041 260.023 78.1433 259.661 77.6123 259.444C77.1038 259.23 76.5638 259.171 75.9923 259.269C75.4334 259.356 74.8815 259.61 74.3367 260.03L73.8805 260.382C73.323 260.811 72.9216 261.313 72.6764 261.886C72.4537 262.462 72.3992 263.059 72.5131 263.678C72.6494 264.301 72.952 264.916 73.421 265.524C73.8411 266.069 74.2898 266.481 74.7671 266.759C75.2543 267.05 75.7944 267.24 76.3877 267.328L75.8934 270.224C74.9997 270.166 74.1336 269.894 73.2951 269.409C72.4692 268.915 71.6997 268.205 70.9865 267.28ZM78.1302 276.231L85.5127 264.659L87.6669 267.453L81.2263 277.298L80.2004 275.968L91.4624 272.376L93.3968 274.885L86.9855 284.768L85.9597 283.437L97.1923 279.807L99.2146 282.43L86.1315 286.608L83.9187 283.738L89.3687 275.202L90.0428 276.077L80.3283 279.082L78.1302 276.231ZM92.4379 295.102C91.7637 294.227 91.2154 293.307 90.7929 292.339C90.3928 291.375 90.1704 290.536 90.1257 289.823L93.0165 289.17C93.0865 289.864 93.2708 290.601 93.5692 291.381C93.89 292.164 94.2898 292.866 94.7685 293.487C95.2961 294.171 95.7497 294.589 96.1294 294.74C96.5188 294.905 96.8592 294.875 97.1507 294.65C97.3914 294.464 97.4809 294.214 97.4191 293.898C97.3797 293.585 97.25 293.22 97.03 292.804C96.8101 292.387 96.5608 291.933 96.2822 291.441C96.0134 290.961 95.7587 290.46 95.5181 289.939C95.2902 289.407 95.1423 288.875 95.0744 288.341C95.0065 287.808 95.0684 287.285 95.26 286.774C95.4613 286.275 95.8535 285.801 96.4363 285.352C97.0825 284.853 97.7944 284.597 98.5719 284.584C99.3591 284.583 100.166 284.83 100.992 285.324C101.83 285.809 102.63 286.546 103.392 287.534C103.93 288.231 104.401 288.999 104.806 289.839C105.21 290.678 105.453 291.451 105.533 292.157L102.661 292.796C102.571 292.077 102.382 291.425 102.092 290.84C101.825 290.258 101.511 289.732 101.15 289.264C100.642 288.605 100.182 288.192 99.7698 288.024C99.358 287.857 99.0126 287.881 98.7339 288.096C98.4805 288.291 98.3734 288.545 98.4128 288.858C98.462 289.184 98.5902 289.56 98.7975 289.986C99.0048 290.412 99.2428 290.865 99.5116 291.345C99.8029 291.827 100.062 292.334 100.29 292.866C100.518 293.397 100.661 293.923 100.719 294.444C100.8 294.968 100.745 295.485 100.553 295.997C100.374 296.499 99.9931 296.974 99.4102 297.423C98.7767 297.912 98.0662 298.157 97.279 298.157C96.5044 298.149 95.6993 297.89 94.8637 297.383C94.0378 296.889 93.2292 296.128 92.4379 295.102Z" fill="#033351"/>
<rect x="-101.594" y="88.9891" width="351" height="40" rx="20" transform="rotate(52.3668 -101.594 88.9891)" fill="#3F3D56" fill-opacity="0.07"/>
<g clip-path="url(#clip0_324_610)">
<path d="M17.2923 268.312L13.6065 261.761L16.9147 255.011C17.0054 254.827 17.0325 254.617 16.9917 254.416C16.8901 253.91 16.3958 253.58 15.8879 253.68L8.5189 255.163L3.12081 249.932C2.97239 249.787 2.78133 249.698 2.57767 249.674C2.33044 249.645 2.08199 249.716 1.88693 249.87C1.69187 250.025 1.56615 250.251 1.53739 250.498L0.668214 257.964L-5.97576 261.481C-6.13046 261.563 -6.25919 261.686 -6.34736 261.837C-6.43553 261.988 -6.47961 262.161 -6.47459 262.336C-6.46958 262.511 -6.41568 262.68 -6.31899 262.826C-6.22231 262.972 -6.08672 263.088 -5.9276 263.16L0.905171 266.293L2.19748 273.698C2.23183 273.901 2.33511 274.088 2.48638 274.227C2.86725 274.577 3.45937 274.553 3.80941 274.172L8.90063 268.641L16.3421 269.699C16.5453 269.728 16.7528 269.69 16.9331 269.588C17.3874 269.337 17.545 268.764 17.2923 268.312Z" fill="white"/>
</g>
<path d="M27.3523 293.267L28.4214 292.442L36.9388 292.41L38.2119 294.061L29.7403 294.153L29.3826 293.198L34.4659 299.79L33.1592 300.798L27.3523 293.267ZM28.9806 299.284L30.8694 297.828L32.2127 296.868L33.8877 295.577L35.0051 297.026L30.1347 300.781L28.9806 299.284ZM32.5816 304.127C32.374 303.858 32.288 303.558 32.3236 303.227C32.3672 302.891 32.5315 302.612 32.8166 302.392C33.1175 302.16 33.4283 302.072 33.7491 302.128C34.0778 302.178 34.346 302.337 34.5536 302.606C34.7612 302.876 34.8472 303.176 34.8116 303.506C34.7839 303.83 34.6196 304.109 34.3186 304.341C34.0335 304.56 33.7227 304.649 33.3861 304.605C33.0574 304.555 32.7892 304.396 32.5816 304.127ZM36.6348 309.457C36.128 308.8 35.8364 308.078 35.7599 307.291C35.6895 306.512 35.8551 305.727 36.2566 304.938C36.666 304.142 37.3261 303.394 38.2368 302.691C39.1475 301.989 40.0357 301.544 40.9013 301.357C41.7748 301.163 42.5793 301.199 43.3149 301.466C44.0567 301.74 44.6809 302.205 45.1877 302.863C45.7006 303.528 45.9923 304.25 46.0627 305.029C46.133 305.808 45.9635 306.596 45.5541 307.391C45.1587 308.189 44.5056 308.938 43.5949 309.641C42.6841 310.343 41.789 310.787 40.9094 310.973C40.0438 311.16 39.2432 311.121 38.5076 310.854C37.772 310.588 37.1477 310.123 36.6348 309.457ZM37.9771 308.422C38.2763 308.81 38.6388 309.068 39.0645 309.194C39.4982 309.314 39.9938 309.286 40.5515 309.108C41.1153 308.939 41.7298 308.597 42.395 308.084C43.0682 307.565 43.5545 307.058 43.8539 306.562C44.1673 306.068 44.3171 305.599 44.3032 305.155C44.2972 304.705 44.1446 304.286 43.8454 303.898C43.5584 303.526 43.195 303.275 42.7553 303.147C42.3296 303.021 41.8348 303.042 41.271 303.212C40.7213 303.383 40.1098 303.729 39.4367 304.248C38.7714 304.76 38.2821 305.264 37.9686 305.758C37.6613 306.26 37.5106 306.736 37.5166 307.186C37.5367 307.638 37.6902 308.05 37.9771 308.422ZM45.2362 320.539C44.7355 319.89 44.4283 319.205 44.3147 318.484C44.209 317.758 44.2887 317.059 44.5538 316.387C44.8189 315.715 45.2642 315.138 45.8899 314.656C46.5234 314.168 47.1947 313.884 47.9037 313.804C48.6206 313.719 49.313 313.822 49.981 314.116C50.649 314.409 51.2333 314.88 51.734 315.529C52.2408 316.187 52.551 316.876 52.6646 317.596C52.7843 318.325 52.7126 319.018 52.4493 319.675C52.1921 320.341 51.7428 320.921 51.1014 321.415C50.4757 321.898 49.8044 322.182 49.0875 322.267C48.3767 322.361 47.6803 322.26 46.9983 321.965C46.3303 321.672 45.743 321.197 45.2362 320.539ZM46.5072 319.559C46.7881 319.924 47.1176 320.187 47.4958 320.35C47.8741 320.513 48.2747 320.558 48.6977 320.484C49.1269 320.418 49.5434 320.23 49.9473 319.919C50.3591 319.601 50.6474 319.246 50.8122 318.854C50.991 318.463 51.0497 318.065 50.9883 317.657C50.9269 317.25 50.7588 316.868 50.484 316.512C50.2031 316.148 49.8736 315.884 49.4954 315.721C49.1233 315.566 48.7226 315.521 48.2935 315.587C47.8722 315.647 47.4557 315.835 47.0439 316.153C46.64 316.464 46.3517 316.819 46.179 317.217C46.0063 317.616 45.9476 318.015 46.0029 318.414C46.0644 318.821 46.2325 319.203 46.5072 319.559ZM51.0112 328.029C50.596 327.491 50.3287 326.939 50.2091 326.375C50.0975 325.804 50.1591 325.246 50.3938 324.698C50.6365 324.145 51.0746 323.624 51.7081 323.136L55.3312 320.342L56.4761 321.827L53.0549 324.465C52.4847 324.905 52.1548 325.361 52.0651 325.834C51.9894 326.309 52.1348 326.784 52.5011 327.26C52.7698 327.608 53.0731 327.854 53.411 327.997C53.7551 328.149 54.1246 328.186 54.5196 328.109C54.9207 328.039 55.3311 327.843 55.7509 327.519L58.9582 325.046L60.1031 326.531L53.7597 331.422L52.6697 330.009L54.3803 328.69L54.05 329.342C53.4733 329.446 52.9154 329.377 52.3761 329.136C51.8448 328.889 51.3898 328.52 51.0112 328.029ZM57.0165 335.818C56.4792 335.121 56.2421 334.445 56.3054 333.79C56.3766 333.129 56.7646 332.527 57.4695 331.984L63.1595 327.597L64.3044 329.081L58.65 333.441C58.349 333.673 58.1734 333.929 58.1231 334.207C58.079 334.494 58.1637 334.776 58.3774 335.053C58.6339 335.386 58.9347 335.596 59.2799 335.683L58.5432 336.914C58.2664 336.85 57.9946 336.718 57.7279 336.52C57.4612 336.321 57.2241 336.087 57.0165 335.818ZM59.7164 328.585L60.9043 327.669L64.1649 331.898L62.977 332.813L59.7164 328.585ZM63.7868 344.599C63.2861 343.95 62.979 343.265 62.8654 342.544C62.7597 341.817 62.8394 341.118 63.1045 340.447C63.3695 339.775 63.8149 339.198 64.4405 338.716C65.0741 338.227 65.7453 337.943 66.4543 337.864C67.1713 337.778 67.8637 337.882 68.5317 338.175C69.1996 338.468 69.784 338.94 70.2847 339.589C70.7915 340.246 71.1017 340.935 71.2153 341.656C71.335 342.384 71.2632 343.077 71 343.735C70.7428 344.4 70.2935 344.98 69.652 345.475C69.0264 345.957 68.3551 346.241 67.6382 346.327C66.9274 346.42 66.231 346.32 65.549 346.025C64.881 345.732 64.2936 345.256 63.7868 344.599ZM65.0579 343.619C65.3388 343.983 65.6683 344.247 66.0465 344.41C66.4247 344.573 66.8253 344.618 67.2484 344.544C67.6776 344.478 68.0941 344.29 68.498 343.978C68.9098 343.661 69.1981 343.306 69.3629 342.914C69.5417 342.523 69.6004 342.124 69.539 341.717C69.4775 341.31 69.3094 340.928 69.0346 340.572C68.7538 340.207 68.4242 339.944 68.046 339.781C67.6739 339.626 67.2733 339.581 66.8441 339.647C66.4229 339.706 66.0064 339.895 65.5946 340.213C65.1907 340.524 64.9024 340.879 64.7297 341.277C64.557 341.676 64.4983 342.074 64.5536 342.474C64.615 342.881 64.7831 343.263 65.0579 343.619ZM67.7308 349.542L74.4306 344.377C75.0958 343.864 75.776 343.649 76.4712 343.731C77.1804 343.816 77.8158 344.222 78.3776 344.951C78.5791 345.212 78.7407 345.479 78.8623 345.752C78.9901 346.032 79.0556 346.297 79.0589 346.547L77.6309 347.004C77.6325 346.826 77.5982 346.651 77.5279 346.478C77.4655 346.298 77.3763 346.134 77.2602 345.983C77.0221 345.674 76.7549 345.508 76.4585 345.484C76.1701 345.454 75.8556 345.57 75.5151 345.832L74.8023 346.382L74.1737 346.942L68.8757 351.027L67.7308 349.542ZM72.0328 344.559L73.2207 343.643L76.4813 347.872L75.2934 348.788L72.0328 344.559ZM75.1454 359.405C74.6936 358.818 74.334 358.18 74.0668 357.49C73.8136 356.801 73.6909 356.151 73.6988 355.538L75.4023 355.267C75.3889 355.757 75.4717 356.274 75.651 356.818C75.8364 357.369 76.1092 357.879 76.4694 358.346C76.8907 358.892 77.3353 359.231 77.8031 359.363C78.277 359.503 78.708 359.423 79.096 359.124C79.3574 358.922 79.5351 358.678 79.6293 358.391C79.7296 358.111 79.703 357.766 79.5495 357.354C79.4021 356.95 79.1086 356.462 78.6689 355.892L77.1211 353.885L81.9767 350.823L85.7411 355.705L84.4463 356.703L81.1215 352.391L82.4808 352.631L78.848 354.921L78.9498 353.554L80.2413 355.229C80.8763 356.053 81.2753 356.8 81.4382 357.47C81.6152 358.141 81.5982 358.741 81.3872 359.27C81.1902 359.801 80.8463 360.256 80.3553 360.634C79.8722 361.007 79.3371 361.23 78.75 361.304C78.163 361.377 77.5574 361.264 76.9333 360.962C76.3154 360.668 75.7194 360.149 75.1454 359.405Z" fill="#018BE7"/>
<rect x="-165.637" y="176.25" width="311" height="20" rx="10" transform="rotate(52.3668 -165.637 176.25)" fill="#3F3D56" fill-opacity="0.07"/>
<path d="M19.9622 441.533L30.3068 439.031L29.9292 439.966L26.2931 435.25L27.6093 435.41L25.4473 437.077L24.3391 435.639L27.0594 433.542L32.0419 440.004L31.0084 440.801L21.2353 443.184L19.9622 441.533ZM26.8397 450.699C26.3329 450.042 26.0413 449.319 25.9648 448.532C25.8944 447.753 26.06 446.969 26.4615 446.179C26.8709 445.384 27.531 444.635 28.4417 443.933C29.3525 443.231 30.2406 442.786 31.1062 442.598C31.9797 442.405 32.7842 442.441 33.5199 442.707C34.2616 442.981 34.8858 443.447 35.3926 444.104C35.9055 444.77 36.1972 445.492 36.2676 446.271C36.338 447.05 36.1684 447.837 35.759 448.633C35.3636 449.43 34.7105 450.18 33.7998 450.882C32.8891 451.584 31.9939 452.028 31.1143 452.214C30.2487 452.402 29.4481 452.362 28.7125 452.096C27.9769 451.83 27.3526 451.364 26.8397 450.699ZM28.1821 449.664C28.4812 450.052 28.8437 450.309 29.2694 450.435C29.7031 450.556 30.1987 450.527 30.7564 450.35C31.3202 450.18 31.9347 449.839 32.5999 449.326C33.2731 448.807 33.7594 448.299 34.0588 447.803C34.3722 447.309 34.522 446.84 34.5081 446.396C34.5021 445.946 34.3495 445.527 34.0503 445.139C33.7633 444.767 33.4 444.517 32.9602 444.389C32.5345 444.262 32.0397 444.284 31.4759 444.454C30.9262 444.625 30.3147 444.97 29.6416 445.489C28.9763 446.002 28.487 446.506 28.1736 447C27.8662 447.502 27.7156 447.978 27.7215 448.428C27.7416 448.88 27.8951 449.292 28.1821 449.664ZM31.3443 456.296L44.0377 455.562L44.9353 456.727L32.2419 457.46L31.3443 456.296ZM35.7125 454.026C35.4133 453.638 35.2427 453.22 35.2008 452.773C35.1588 452.325 35.244 451.887 35.4563 451.458C35.6686 451.029 36.0044 450.638 36.4637 450.284C36.923 449.93 37.3871 449.704 37.8558 449.608C38.3246 449.512 38.77 449.541 39.1921 449.695C39.6142 449.85 39.9749 450.121 40.274 450.509C40.5855 450.913 40.7591 451.335 40.7949 451.774C40.8369 452.222 40.7517 452.66 40.5394 453.089C40.3271 453.518 39.9913 453.909 39.532 454.263C39.0727 454.617 38.6086 454.843 38.1399 454.939C37.6711 455.035 37.2257 455.006 36.8036 454.852C36.3876 454.705 36.0239 454.43 35.7125 454.026ZM36.5532 453.397C36.7974 453.714 37.1095 453.865 37.4893 453.849C37.8832 453.836 38.3137 453.649 38.781 453.289C39.2482 452.929 39.5343 452.563 39.6394 452.192C39.7585 451.822 39.6959 451.479 39.4517 451.162C39.2074 450.845 38.8853 450.69 38.4854 450.695C38.0915 450.708 37.6649 450.892 37.2056 451.246C36.7463 451.6 36.4601 451.966 36.3471 452.344C36.2403 452.729 36.3089 453.08 36.5532 453.397ZM35.9964 462.501C35.6972 462.113 35.5266 461.695 35.4847 461.248C35.4427 460.8 35.5279 460.362 35.7402 459.933C35.9525 459.504 36.2883 459.113 36.7476 458.759C37.207 458.405 37.671 458.179 38.1398 458.083C38.6085 457.987 39.0539 458.016 39.476 458.17C39.8981 458.325 40.2588 458.596 40.558 458.984C40.8694 459.388 41.043 459.81 41.0789 460.249C41.1208 460.697 41.0357 461.135 40.8234 461.564C40.6111 461.993 40.2752 462.384 39.8159 462.738C39.3566 463.092 38.8926 463.318 38.4238 463.414C37.955 463.51 37.5096 463.481 37.0875 463.327C36.6715 463.18 36.3078 462.905 35.9964 462.501ZM36.828 461.86C37.0722 462.177 37.3912 462.329 37.7851 462.315C38.179 462.302 38.6055 462.118 39.0649 461.764C39.5242 461.41 39.8103 461.044 39.9233 460.667C40.0363 460.289 39.9707 459.942 39.7264 459.625C39.4883 459.316 39.1693 459.165 38.7693 459.17C38.3833 459.177 37.9568 459.361 37.4895 459.721C37.0223 460.081 36.7322 460.45 36.6192 460.828C36.5202 461.207 36.5898 461.551 36.828 461.86Z" fill="#018BE7"/>
<path d="M-1.58064 461.66C-0.994458 462.42 -0.659163 463.191 -0.574752 463.972C-0.476316 464.755 -0.622085 465.524 -1.01206 466.279C-1.40203 467.034 -2.04446 467.757 -2.93935 468.447C-3.88967 469.179 -4.82782 469.625 -5.7538 469.783C-6.67366 469.95 -7.53894 469.859 -8.34964 469.512C-9.16034 469.165 -9.8771 468.587 -10.4999 467.779C-10.8235 467.36 -11.0883 466.926 -11.2943 466.479C-11.5003 466.032 -11.6191 465.599 -11.6506 465.181L-10.0468 464.854C-10.0202 465.2 -9.9348 465.532 -9.79055 465.85C-9.63838 466.162 -9.45239 466.46 -9.23257 466.745C-8.62808 467.529 -7.90721 467.965 -7.06998 468.052C-6.23275 468.139 -5.34293 467.819 -4.40053 467.092C-4.25006 466.976 -4.07889 466.838 -3.88701 466.677C-3.68721 466.51 -3.50268 466.324 -3.33341 466.118L-3.48973 466.996C-3.91822 467.112 -4.34104 467.128 -4.75817 467.046C-5.16739 466.957 -5.55871 466.785 -5.93214 466.53C-6.30558 466.275 -6.65105 465.942 -6.96856 465.53C-7.38377 464.992 -7.65634 464.425 -7.78627 463.831C-7.90217 463.238 -7.86776 462.669 -7.68302 462.122C-7.49037 461.57 -7.13666 461.095 -6.6219 460.698C-6.06754 460.271 -5.48858 460.039 -4.88501 460.003C-4.27351 459.961 -3.67982 460.084 -3.10393 460.372C-2.52193 460.668 -2.01417 461.098 -1.58064 461.66ZM-2.72819 462.677C-2.97243 462.361 -3.24859 462.125 -3.55667 461.971C-3.85682 461.811 -4.16877 461.742 -4.4925 461.765C-4.80221 461.789 -5.10357 461.914 -5.39658 462.14C-5.83215 462.476 -6.06063 462.892 -6.08202 463.388C-6.10341 463.884 -5.91871 464.386 -5.52792 464.893C-5.27147 465.225 -4.98615 465.473 -4.67197 465.635C-4.34986 465.79 -4.02695 465.857 -3.70321 465.835C-3.37156 465.806 -3.07111 465.688 -2.80185 465.481C-2.54051 465.279 -2.35879 465.032 -2.25669 464.738C-2.14667 464.439 -2.126 464.113 -2.19469 463.762C-2.26337 463.411 -2.4412 463.05 -2.72819 462.677ZM-3.87834 476.367C-4.38514 475.71 -4.67679 474.988 -4.75328 474.201C-4.82367 473.422 -4.6581 472.637 -4.25658 471.848C-3.84714 471.052 -3.18706 470.304 -2.27633 469.601C-1.36561 468.899 -0.477453 468.454 0.388125 468.267C1.26162 468.073 2.06618 468.109 2.80179 468.376C3.54351 468.65 4.16777 469.116 4.67457 469.773C5.18748 470.438 5.47912 471.16 5.54951 471.939C5.61989 472.718 5.45037 473.506 5.04093 474.301C4.64551 475.099 3.99244 475.848 3.08172 476.551C2.17099 477.253 1.27582 477.697 0.39622 477.883C-0.469358 478.07 -1.26995 478.031 -2.00557 477.765C-2.74118 477.498 -3.36544 477.033 -3.87834 476.367ZM-2.53601 475.332C-2.23682 475.72 -1.87436 475.978 -1.44864 476.104C-1.015 476.224 -0.519334 476.196 0.0383521 476.018C0.602144 475.849 1.21665 475.507 1.88188 474.994C2.55503 474.475 3.04131 473.968 3.34073 473.472C3.65417 472.978 3.80394 472.509 3.79002 472.065C3.78403 471.615 3.63143 471.196 3.33224 470.808C3.04525 470.436 2.68189 470.185 2.24214 470.057C1.81642 469.931 1.32166 469.952 0.757872 470.122C0.208106 470.293 -0.40335 470.639 -1.0765 471.158C-1.74172 471.67 -2.23106 472.174 -2.5445 472.668C-2.85184 473.17 -3.00251 473.646 -2.99652 474.096C-2.9765 474.548 -2.823 474.96 -2.53601 475.332ZM0.626275 481.964L13.3196 481.231L14.2172 482.395L1.52386 483.128L0.626275 481.964ZM4.99443 479.695C4.69524 479.307 4.52466 478.889 4.48269 478.441C4.44073 477.994 4.5259 477.556 4.7382 477.127C4.95051 476.698 5.28632 476.306 5.74565 475.952C6.20497 475.598 6.66901 475.373 7.13777 475.277C7.60653 475.18 8.05196 475.21 8.47405 475.364C8.89614 475.518 9.25679 475.79 9.55598 476.178C9.86739 476.581 10.041 477.003 10.0769 477.443C10.1188 477.89 10.0337 478.328 9.82137 478.757C9.60907 479.186 9.27325 479.578 8.81393 479.932C8.35461 480.286 7.89057 480.511 7.42181 480.607C6.95305 480.704 6.50762 480.675 6.08553 480.52C5.66954 480.374 5.30584 480.099 4.99443 479.695ZM5.83512 479.065C6.07937 479.382 6.3914 479.533 6.77124 479.518C7.16509 479.505 7.59564 479.318 8.06289 478.958C8.53013 478.597 8.81628 478.232 8.92134 477.86C9.04043 477.491 8.97785 477.147 8.73361 476.831C8.48937 476.514 8.16727 476.358 7.7673 476.363C7.37344 476.377 6.94685 476.56 6.48753 476.915C6.02821 477.269 5.74205 477.635 5.62907 478.012C5.5222 478.398 5.59088 478.749 5.83512 479.065ZM5.27835 488.17C4.97916 487.782 4.80858 487.364 4.76661 486.916C4.72465 486.469 4.80982 486.031 5.02212 485.602C5.23443 485.173 5.57024 484.781 6.02957 484.427C6.48889 484.073 6.95293 483.848 7.42169 483.752C7.89045 483.655 8.33588 483.684 8.75797 483.839C9.18007 483.993 9.54071 484.264 9.83991 484.653C10.1513 485.056 10.3249 485.478 10.3608 485.918C10.4028 486.365 10.3176 486.803 10.1053 487.232C9.89299 487.661 9.55717 488.053 9.09785 488.407C8.63853 488.761 8.17449 488.986 7.70573 489.082C7.23697 489.179 6.79154 489.15 6.36945 488.995C5.95346 488.849 5.58976 488.574 5.27835 488.17ZM6.10989 487.528C6.35413 487.845 6.67318 487.997 7.06704 487.984C7.4609 487.971 7.88749 487.787 8.34681 487.433C8.80613 487.079 9.09228 486.713 9.20527 486.335C9.31825 485.958 9.25262 485.61 9.00837 485.294C8.77024 484.985 8.45119 484.833 8.05122 484.838C7.66528 484.846 7.23869 485.029 6.77145 485.389C6.30421 485.75 6.0141 486.119 5.90112 486.496C5.80216 486.876 5.87175 487.22 6.10989 487.528Z" fill="#018BE7"/>
<defs>
<filter id="filter0_d_324_610" x="-384.975" y="4.0249" width="591.019" height="602.443" filterUnits="userSpaceOnUse" color-interpolation-filters="sRGB">
<feFlood flood-opacity="0" result="BackgroundImageFix"/>
<feColorMatrix in="SourceAlpha" type="matrix" values="0 0 0 0 0 0 0 0 0 0 0 0 0 0 0 0 0 0 127 0" result="hardAlpha"/>
<feOffset dy="4"/>
<feGaussianBlur stdDeviation="2"/>
<feComposite in2="hardAlpha" operator="out"/>
<feColorMatrix type="matrix" values="0 0 0 0 0 0 0 0 0 0 0 0 0 0 0 0 0 0 0.25 0"/>
<feBlend mode="normal" in2="BackgroundImageFix" result="effect1_dropShadow_324_610"/>
<feBlend mode="normal" in="SourceGraphic" in2="effect1_dropShadow_324_610" result="shape"/>
</filter>
<clipPath id="clip0_324_610">
<rect width="30" height="30" fill="white" transform="translate(9.23975 240.926) rotate(52.3668)"/>
</clipPath>
</defs>
</svg>
