<svg width="40" height="41" viewBox="0 0 40 41" fill="none" xmlns="http://www.w3.org/2000/svg">
<rect y="0.645508" width="40" height="40" rx="10" fill="#FDFDFD"/>
<path d="M20 16.7401C17.8496 16.7401 16.0947 18.495 16.0947 20.6454C16.0947 22.7958 17.8496 24.5507 20 24.5507C22.1504 24.5507 23.9053 22.7958 23.9053 20.6454C23.9053 18.495 22.1504 16.7401 20 16.7401ZM31.7129 20.6454C31.7129 19.0282 31.7276 17.4257 31.6367 15.8114C31.5459 13.9364 31.1182 12.2724 29.7471 10.9013C28.3731 9.52724 26.7119 9.10243 24.8369 9.01161C23.2197 8.92079 21.6172 8.93544 20.0029 8.93544C18.3858 8.93544 16.7832 8.92079 15.169 9.01161C13.294 9.10243 11.6299 9.53017 10.2588 10.9013C8.88478 12.2753 8.45998 13.9364 8.36916 15.8114C8.27834 17.4286 8.29299 19.0311 8.29299 20.6454C8.29299 22.2597 8.27834 23.8651 8.36916 25.4794C8.45998 27.3544 8.88771 29.0184 10.2588 30.3895C11.6328 31.7636 13.294 32.1884 15.169 32.2792C16.7861 32.37 18.3887 32.3554 20.0029 32.3554C21.6201 32.3554 23.2227 32.37 24.8369 32.2792C26.7119 32.1884 28.376 31.7606 29.7471 30.3895C31.1211 29.0155 31.5459 27.3544 31.6367 25.4794C31.7305 23.8651 31.7129 22.2626 31.7129 20.6454ZM20 26.6542C16.6748 26.6542 13.9912 23.9706 13.9912 20.6454C13.9912 17.3202 16.6748 14.6366 20 14.6366C23.3252 14.6366 26.0088 17.3202 26.0088 20.6454C26.0088 23.9706 23.3252 26.6542 20 26.6542ZM26.2549 15.7938C25.4785 15.7938 24.8516 15.1669 24.8516 14.3905C24.8516 13.6142 25.4785 12.9872 26.2549 12.9872C27.0313 12.9872 27.6582 13.6142 27.6582 14.3905C27.6585 14.5749 27.6223 14.7575 27.5519 14.9278C27.4814 15.0982 27.3781 15.253 27.2477 15.3833C27.1174 15.5137 26.9626 15.617 26.7922 15.6875C26.6218 15.7579 26.4393 15.7941 26.2549 15.7938Z" fill="#2E2E2E"/>
</svg>
