<svg width="40" height="41" viewBox="0 0 40 41" fill="none" xmlns="http://www.w3.org/2000/svg">
<rect y="0.645508" width="40" height="40" rx="10" fill="#FDFDFD"/>
<path fill-rule="evenodd" clip-rule="evenodd" d="M6.25 9.19301C6.25 8.58368 6.49206 7.9993 6.92292 7.56843C7.35379 7.13757 7.93817 6.89551 8.5475 6.89551H31.45C31.752 6.89502 32.0511 6.95409 32.3302 7.06934C32.6093 7.1846 32.8629 7.35377 33.0766 7.56718C33.2902 7.78059 33.4597 8.03404 33.5752 8.31302C33.6908 8.59201 33.7502 8.89104 33.75 9.19301V32.0955C33.7503 32.3975 33.6911 32.6967 33.5757 32.9758C33.4603 33.2549 33.291 33.5085 33.0775 33.7221C32.864 33.9358 32.6105 34.1052 32.3314 34.2207C32.0524 34.3363 31.7533 34.3957 31.4512 34.3955H8.5475C8.24568 34.3955 7.94682 34.336 7.668 34.2205C7.38917 34.105 7.13584 33.9356 6.92248 33.7221C6.70912 33.5087 6.53991 33.2552 6.42453 32.9764C6.30914 32.6975 6.24984 32.3986 6.25 32.0968V9.19301ZM17.135 17.3805H20.8588V19.2505C21.3963 18.1755 22.7712 17.208 24.8375 17.208C28.7987 17.208 29.7375 19.3493 29.7375 23.278V30.5555H25.7288V24.173C25.7288 21.9355 25.1912 20.673 23.8263 20.673C21.9325 20.673 21.145 22.0343 21.145 24.173V30.5555H17.135V17.3805ZM10.26 30.3843H14.27V17.208H10.26V30.383V30.3843ZM14.8438 12.9105C14.8513 13.2539 14.7902 13.5952 14.6641 13.9147C14.5379 14.2341 14.3492 14.5251 14.109 14.7706C13.8689 15.016 13.5821 15.2111 13.2656 15.3443C12.949 15.4774 12.609 15.546 12.2656 15.546C11.9222 15.546 11.5822 15.4774 11.2657 15.3443C10.9491 15.2111 10.6624 15.016 10.4222 14.7706C10.1821 14.5251 9.99337 14.2341 9.8672 13.9147C9.74103 13.5952 9.67994 13.2539 9.6875 12.9105C9.70234 12.2366 9.98048 11.5952 10.4624 11.1239C10.9442 10.6525 11.5915 10.3885 12.2656 10.3885C12.9397 10.3885 13.587 10.6525 14.0689 11.1239C14.5508 11.5952 14.8289 12.2366 14.8438 12.9105Z" fill="#2E2E2E"/>
</svg>
