<svg width="50" height="50" viewBox="0 0 50 50" fill="none" xmlns="http://www.w3.org/2000/svg">
<rect x="50" y="50" width="50" height="50" rx="15" transform="rotate(-180 50 50)" fill="#FAD02C"/>
<path d="M23.9791 35.6458C23.7118 35.3785 23.5718 35.0382 23.5591 34.625C23.5475 34.2118 23.6753 33.8715 23.9427 33.6042L31.0885 26.4583H14.7916C14.3785 26.4583 14.0319 26.3183 13.7519 26.0383C13.4728 25.7593 13.3333 25.4132 13.3333 25C13.3333 24.5868 13.4728 24.2402 13.7519 23.9602C14.0319 23.6812 14.3785 23.5417 14.7916 23.5417H31.0885L23.9427 16.3958C23.6753 16.1285 23.5475 15.7882 23.5591 15.375C23.5718 14.9618 23.7118 14.6215 23.9791 14.3542C24.2465 14.0868 24.5868 13.9531 25 13.9531C25.4132 13.9531 25.7535 14.0868 26.0208 14.3542L35.6458 23.9792C35.7916 24.1007 35.8952 24.2524 35.9564 24.4342C36.0167 24.6169 36.0469 24.8056 36.0469 25C36.0469 25.1944 36.0167 25.3767 35.9564 25.5469C35.8952 25.717 35.7916 25.875 35.6458 26.0208L26.0208 35.6458C25.7535 35.9132 25.4132 36.0469 25 36.0469C24.5868 36.0469 24.2465 35.9132 23.9791 35.6458V35.6458Z" fill="#2E2E2E"/>
</svg>
