<svg width="50" height="50" viewBox="0 0 50 50" fill="none" xmlns="http://www.w3.org/2000/svg">
<rect x="50" y="50" width="50" height="50" rx="15" transform="rotate(-180 50 50)" fill="#FAD02C"/>
<path d="M25.7109 14.3542C25.9783 14.6215 26.1183 14.9618 26.1309 15.375C26.1426 15.7882 26.0147 16.1285 25.7474 16.3958L18.6015 23.5417H34.8984C35.3116 23.5417 35.6582 23.6817 35.9382 23.9617C36.2172 24.2407 36.3568 24.5868 36.3568 25C36.3568 25.4132 36.2172 25.7598 35.9382 26.0398C35.6582 26.3188 35.3116 26.4583 34.8984 26.4583H18.6015L25.7474 33.6042C26.0147 33.8715 26.1426 34.2118 26.1309 34.625C26.1183 35.0382 25.9783 35.3785 25.7109 35.6458C25.4436 35.9132 25.1033 36.0469 24.6901 36.0469C24.2769 36.0469 23.9366 35.9132 23.6693 35.6458L14.0443 26.0208C13.8984 25.8993 13.7949 25.7476 13.7336 25.5658C13.6733 25.3831 13.6432 25.1944 13.6432 25C13.6432 24.8056 13.6733 24.6233 13.7336 24.4531C13.7949 24.283 13.8984 24.125 14.0443 23.9792L23.6693 14.3542C23.9366 14.0868 24.2769 13.9531 24.6901 13.9531C25.1033 13.9531 25.4436 14.0868 25.7109 14.3542V14.3542Z" fill="#2E2E2E"/>
</svg>
