<svg width="40" height="41" viewBox="0 0 40 41" fill="none" xmlns="http://www.w3.org/2000/svg">
<rect y="0.645508" width="40" height="40" rx="10" fill="#FDFDFD"/>
<path d="M33.075 13.1455C32.1125 13.583 31.075 13.8705 30 14.008C31.1 13.3455 31.95 12.2955 32.35 11.033C31.3125 11.658 30.1625 12.0955 28.95 12.3455C27.9625 11.2705 26.575 10.6455 25 10.6455C22.0625 10.6455 19.6625 13.0455 19.6625 16.008C19.6625 16.433 19.7125 16.8455 19.8 17.233C15.35 17.008 11.3875 14.8705 8.74999 11.633C8.28749 12.4205 8.02499 13.3455 8.02499 14.3205C8.02499 16.183 8.96249 17.833 10.4125 18.7705C9.52499 18.7705 8.69999 18.5205 7.97499 18.1455V18.183C7.97499 20.783 9.82499 22.958 12.275 23.4455C11.4884 23.6608 10.6626 23.6907 9.86249 23.533C10.202 24.5986 10.8669 25.531 11.7638 26.1992C12.6606 26.8673 13.7443 27.2376 14.8625 27.258C12.967 28.7586 10.6175 29.5697 8.19999 29.558C7.77499 29.558 7.34999 29.533 6.92499 29.483C9.29999 31.008 12.125 31.8955 15.15 31.8955C25 31.8955 30.4125 23.7205 30.4125 16.633C30.4125 16.3955 30.4125 16.1705 30.4 15.933C31.45 15.183 32.35 14.233 33.075 13.1455Z" fill="#2E2E2E"/>
</svg>
