<svg width="40" height="40" viewBox="0 0 40 40" fill="none" xmlns="http://www.w3.org/2000/svg">
<path d="M35.0467 25.25C36.234 21.8507 36.234 18.1493 35.0467 14.75L34.9998 14.625C33.8906 11.5355 31.8545 8.8639 29.1697 6.97524C26.4849 5.08658 23.2824 4.073 19.9998 4.073C16.7173 4.073 13.5148 5.08658 10.83 6.97524C8.14519 8.8639 6.10906 11.5355 4.99983 14.625L4.95295 14.75C3.76568 18.1493 3.76568 21.8507 4.95295 25.25L4.99983 25.375C6.10745 28.465 8.14219 31.1377 10.826 33.0277C13.5098 34.9178 16.7118 35.933 19.9943 35.9348C23.2769 35.9365 26.4799 34.9245 29.1657 33.0373C31.8515 31.15 33.889 28.4795 34.9998 25.3906L35.0467 25.25ZM15.578 25.9375H24.4217C23.5311 28.7968 22.0155 31.3593 19.9998 33.3281C17.9842 31.3593 16.4686 28.7968 15.578 25.9375ZM15.1092 24.0625C14.5465 21.3834 14.5465 18.6166 15.1092 15.9375H24.8905C25.4531 18.6166 25.4531 21.3834 24.8905 24.0625H15.1092ZM5.93733 20C5.93407 18.624 6.13415 17.255 6.53108 15.9375H13.1873C12.6872 18.6227 12.6872 21.3772 13.1873 24.0625H6.53108C6.13415 22.7449 5.93407 21.376 5.93733 20ZM24.4217 14.0625H15.578C16.4686 11.2031 17.9842 8.6406 19.9998 6.67185C22.0155 8.6406 23.5311 11.2031 24.4217 14.0625ZM26.828 15.9375H33.4686C34.2607 18.5879 34.2607 21.4121 33.4686 24.0625H26.828C27.3071 21.3753 27.3071 18.6246 26.828 15.9375ZM32.7498 14.0625H26.3905C25.5893 11.0983 24.0951 8.36701 22.0311 6.09372C24.3378 6.43067 26.5248 7.33518 28.3956 8.72604C30.2665 10.1169 31.7626 11.9506 32.7498 14.0625ZM17.9686 6.09372C15.9045 8.36701 14.4104 11.0983 13.6092 14.0625H7.24983C8.23701 11.9506 9.73318 10.1169 11.604 8.72604C13.4749 7.33518 15.6618 6.43067 17.9686 6.09372ZM7.24983 25.9375H13.6092C14.4136 28.905 15.9073 31.6406 17.9686 33.9218C15.6621 33.578 13.4765 32.6691 11.6063 31.276C9.73618 29.8829 8.23958 28.049 7.24983 25.9375ZM22.0311 33.9218C24.0924 31.6406 25.586 28.905 26.3905 25.9375H32.7498C31.7601 28.049 30.2635 29.8829 28.3933 31.276C26.5232 32.6691 24.3376 33.578 22.0311 33.9218Z" fill="#FAD02C"/>
</svg>
